%FSLAX45Y45*%
G04 Gerber Fmt 4.5, Leading zero omitted, Abs format (unit mm)*
G04 Created by KiCad (PCBNEW (5.1.6)-1) date 2021-06-26 13:41:21*
%MOMM*%
%LPD*%
G01*
G04 APERTURE LIST*
%TA.AperFunction,Profile*%
%ADD10C,0.150000*%
%TD*%
%ADD11C,0.200000*%
%ADD12C,0.300000*%
G04 APERTURE END LIST*
D10*
X11660000Y-7140000D02*
X16750000Y-7140000D01*
X16750000Y-3280000D02*
X11660000Y-3280000D01*
X11430000Y-6910000D02*
X11430000Y-3510000D01*
X11660000Y-7140000D02*
G75*
G02*
X11430000Y-6910000I0J230000D01*
G01*
X11430000Y-3510000D02*
G75*
G02*
X11660000Y-3280000I230000J0D01*
G01*
X16980000Y-3510000D02*
X16980000Y-6910000D01*
X16980000Y-6910000D02*
G75*
G02*
X16750000Y-7140000I-230000J0D01*
G01*
X16750000Y-3280000D02*
G75*
G02*
X16980000Y-3510000I0J-230000D01*
G01*
D11*
X13144000Y-4782000D02*
X13224000Y-4862000D01*
X13224000Y-4782000D02*
X13144000Y-4862000D01*
X13144000Y-5036000D02*
X13224000Y-5116000D01*
X13224000Y-5036000D02*
X13144000Y-5116000D01*
X13144000Y-5290000D02*
X13224000Y-5370000D01*
X13224000Y-5290000D02*
X13144000Y-5370000D01*
X13144000Y-5544000D02*
X13224000Y-5624000D01*
X13224000Y-5544000D02*
X13144000Y-5624000D01*
X13144000Y-5798000D02*
X13224000Y-5878000D01*
X13224000Y-5798000D02*
X13144000Y-5878000D01*
X13144000Y-6052000D02*
X13224000Y-6132000D01*
X13224000Y-6052000D02*
X13144000Y-6132000D01*
X13144000Y-6306000D02*
X13224000Y-6386000D01*
X13224000Y-6306000D02*
X13144000Y-6386000D01*
X13398000Y-4528000D02*
X13478000Y-4608000D01*
X13478000Y-4528000D02*
X13398000Y-4608000D01*
X13398000Y-4782000D02*
X13478000Y-4862000D01*
X13478000Y-4782000D02*
X13398000Y-4862000D01*
X13398000Y-5036000D02*
X13478000Y-5116000D01*
X13478000Y-5036000D02*
X13398000Y-5116000D01*
X13398000Y-5290000D02*
X13478000Y-5370000D01*
X13478000Y-5290000D02*
X13398000Y-5370000D01*
X13398000Y-5544000D02*
X13478000Y-5624000D01*
X13478000Y-5544000D02*
X13398000Y-5624000D01*
X13398000Y-5798000D02*
X13478000Y-5878000D01*
X13478000Y-5798000D02*
X13398000Y-5878000D01*
X13398000Y-6052000D02*
X13478000Y-6132000D01*
X13478000Y-6052000D02*
X13398000Y-6132000D01*
X13398000Y-6306000D02*
X13478000Y-6386000D01*
X13478000Y-6306000D02*
X13398000Y-6386000D01*
X13398000Y-6560000D02*
X13478000Y-6640000D01*
X13478000Y-6560000D02*
X13398000Y-6640000D01*
X13652000Y-4528000D02*
X13732000Y-4608000D01*
X13732000Y-4528000D02*
X13652000Y-4608000D01*
X13652000Y-4782000D02*
X13732000Y-4862000D01*
X13732000Y-4782000D02*
X13652000Y-4862000D01*
X13652000Y-6306000D02*
X13732000Y-6386000D01*
X13732000Y-6306000D02*
X13652000Y-6386000D01*
X13652000Y-6560000D02*
X13732000Y-6640000D01*
X13732000Y-6560000D02*
X13652000Y-6640000D01*
X13906000Y-4528000D02*
X13986000Y-4608000D01*
X13986000Y-4528000D02*
X13906000Y-4608000D01*
X13906000Y-4782000D02*
X13986000Y-4862000D01*
X13986000Y-4782000D02*
X13906000Y-4862000D01*
X13906000Y-6306000D02*
X13986000Y-6386000D01*
X13986000Y-6306000D02*
X13906000Y-6386000D01*
X13906000Y-6560000D02*
X13986000Y-6640000D01*
X13986000Y-6560000D02*
X13906000Y-6640000D01*
X14160000Y-4528000D02*
X14240000Y-4608000D01*
X14240000Y-4528000D02*
X14160000Y-4608000D01*
X14160000Y-4782000D02*
X14240000Y-4862000D01*
X14240000Y-4782000D02*
X14160000Y-4862000D01*
X14160000Y-6306000D02*
X14240000Y-6386000D01*
X14240000Y-6306000D02*
X14160000Y-6386000D01*
X14160000Y-6560000D02*
X14240000Y-6640000D01*
X14240000Y-6560000D02*
X14160000Y-6640000D01*
X14414000Y-4528000D02*
X14494000Y-4608000D01*
X14494000Y-4528000D02*
X14414000Y-4608000D01*
X14414000Y-4782000D02*
X14494000Y-4862000D01*
X14494000Y-4782000D02*
X14414000Y-4862000D01*
X14414000Y-6306000D02*
X14494000Y-6386000D01*
X14494000Y-6306000D02*
X14414000Y-6386000D01*
X14414000Y-6560000D02*
X14494000Y-6640000D01*
X14494000Y-6560000D02*
X14414000Y-6640000D01*
X14668000Y-4528000D02*
X14748000Y-4608000D01*
X14748000Y-4528000D02*
X14668000Y-4608000D01*
X14668000Y-4782000D02*
X14748000Y-4862000D01*
X14748000Y-4782000D02*
X14668000Y-4862000D01*
X14668000Y-6306000D02*
X14748000Y-6386000D01*
X14748000Y-6306000D02*
X14668000Y-6386000D01*
X14668000Y-6560000D02*
X14748000Y-6640000D01*
X14748000Y-6560000D02*
X14668000Y-6640000D01*
X14922000Y-4528000D02*
X15002000Y-4608000D01*
X15002000Y-4528000D02*
X14922000Y-4608000D01*
X14922000Y-4782000D02*
X15002000Y-4862000D01*
X15002000Y-4782000D02*
X14922000Y-4862000D01*
X14922000Y-5036000D02*
X15002000Y-5116000D01*
X15002000Y-5036000D02*
X14922000Y-5116000D01*
X14922000Y-5290000D02*
X15002000Y-5370000D01*
X15002000Y-5290000D02*
X14922000Y-5370000D01*
X14922000Y-5544000D02*
X15002000Y-5624000D01*
X15002000Y-5544000D02*
X14922000Y-5624000D01*
X14922000Y-5798000D02*
X15002000Y-5878000D01*
X15002000Y-5798000D02*
X14922000Y-5878000D01*
X14922000Y-6052000D02*
X15002000Y-6132000D01*
X15002000Y-6052000D02*
X14922000Y-6132000D01*
X14922000Y-6306000D02*
X15002000Y-6386000D01*
X15002000Y-6306000D02*
X14922000Y-6386000D01*
X14922000Y-6560000D02*
X15002000Y-6640000D01*
X15002000Y-6560000D02*
X14922000Y-6640000D01*
X15176000Y-4782000D02*
X15256000Y-4862000D01*
X15256000Y-4782000D02*
X15176000Y-4862000D01*
X15176000Y-5036000D02*
X15256000Y-5116000D01*
X15256000Y-5036000D02*
X15176000Y-5116000D01*
X15176000Y-5290000D02*
X15256000Y-5370000D01*
X15256000Y-5290000D02*
X15176000Y-5370000D01*
X15176000Y-5544000D02*
X15256000Y-5624000D01*
X15256000Y-5544000D02*
X15176000Y-5624000D01*
X15176000Y-5798000D02*
X15256000Y-5878000D01*
X15256000Y-5798000D02*
X15176000Y-5878000D01*
X15176000Y-6052000D02*
X15256000Y-6132000D01*
X15256000Y-6052000D02*
X15176000Y-6132000D01*
X15176000Y-6306000D02*
X15256000Y-6386000D01*
X15256000Y-6306000D02*
X15176000Y-6386000D01*
X11837000Y-3810000D02*
G75*
G03*
X11837000Y-3810000I-50000J0D01*
G01*
X12091000Y-3810000D02*
G75*
G03*
X12091000Y-3810000I-50000J0D01*
G01*
X12345000Y-3810000D02*
G75*
G03*
X12345000Y-3810000I-50000J0D01*
G01*
X12599000Y-3810000D02*
G75*
G03*
X12599000Y-3810000I-50000J0D01*
G01*
X13107000Y-3810000D02*
G75*
G03*
X13107000Y-3810000I-50000J0D01*
G01*
X13361000Y-3810000D02*
G75*
G03*
X13361000Y-3810000I-50000J0D01*
G01*
X13615000Y-3810000D02*
G75*
G03*
X13615000Y-3810000I-50000J0D01*
G01*
X13869000Y-3810000D02*
G75*
G03*
X13869000Y-3810000I-50000J0D01*
G01*
X14123000Y-3810000D02*
G75*
G03*
X14123000Y-3810000I-50000J0D01*
G01*
X14377000Y-3810000D02*
G75*
G03*
X14377000Y-3810000I-50000J0D01*
G01*
X14631000Y-3810000D02*
G75*
G03*
X14631000Y-3810000I-50000J0D01*
G01*
X14885000Y-3810000D02*
G75*
G03*
X14885000Y-3810000I-50000J0D01*
G01*
X15139000Y-3810000D02*
G75*
G03*
X15139000Y-3810000I-50000J0D01*
G01*
X15393000Y-3810000D02*
G75*
G03*
X15393000Y-3810000I-50000J0D01*
G01*
X15647000Y-3810000D02*
G75*
G03*
X15647000Y-3810000I-50000J0D01*
G01*
X15901000Y-3810000D02*
G75*
G03*
X15901000Y-3810000I-50000J0D01*
G01*
X16407000Y-3810000D02*
G75*
G03*
X16407000Y-3810000I-50000J0D01*
G01*
X16661000Y-3810000D02*
G75*
G03*
X16661000Y-3810000I-50000J0D01*
G01*
D12*
X11708928Y-7613214D02*
X11708928Y-7313214D01*
X11780357Y-7313214D01*
X11823214Y-7327500D01*
X11851786Y-7356071D01*
X11866071Y-7384643D01*
X11880357Y-7441786D01*
X11880357Y-7484643D01*
X11866071Y-7541786D01*
X11851786Y-7570357D01*
X11823214Y-7598929D01*
X11780357Y-7613214D01*
X11708928Y-7613214D01*
X12008928Y-7613214D02*
X12008928Y-7413214D01*
X12008928Y-7470357D02*
X12023214Y-7441786D01*
X12037500Y-7427500D01*
X12066071Y-7413214D01*
X12094643Y-7413214D01*
X12194643Y-7613214D02*
X12194643Y-7413214D01*
X12194643Y-7313214D02*
X12180357Y-7327500D01*
X12194643Y-7341786D01*
X12208928Y-7327500D01*
X12194643Y-7313214D01*
X12194643Y-7341786D01*
X12380357Y-7613214D02*
X12351786Y-7598929D01*
X12337500Y-7570357D01*
X12337500Y-7313214D01*
X12537500Y-7613214D02*
X12508928Y-7598929D01*
X12494643Y-7570357D01*
X12494643Y-7313214D01*
X12880357Y-7613214D02*
X12880357Y-7313214D01*
X12980357Y-7527500D01*
X13080357Y-7313214D01*
X13080357Y-7613214D01*
X13351786Y-7613214D02*
X13351786Y-7456071D01*
X13337500Y-7427500D01*
X13308928Y-7413214D01*
X13251786Y-7413214D01*
X13223214Y-7427500D01*
X13351786Y-7598929D02*
X13323214Y-7613214D01*
X13251786Y-7613214D01*
X13223214Y-7598929D01*
X13208928Y-7570357D01*
X13208928Y-7541786D01*
X13223214Y-7513214D01*
X13251786Y-7498929D01*
X13323214Y-7498929D01*
X13351786Y-7484643D01*
X13494643Y-7413214D02*
X13494643Y-7713214D01*
X13494643Y-7427500D02*
X13523214Y-7413214D01*
X13580357Y-7413214D01*
X13608928Y-7427500D01*
X13623214Y-7441786D01*
X13637500Y-7470357D01*
X13637500Y-7556071D01*
X13623214Y-7584643D01*
X13608928Y-7598929D01*
X13580357Y-7613214D01*
X13523214Y-7613214D01*
X13494643Y-7598929D01*
X13766071Y-7584643D02*
X13780357Y-7598929D01*
X13766071Y-7613214D01*
X13751786Y-7598929D01*
X13766071Y-7584643D01*
X13766071Y-7613214D01*
X13766071Y-7427500D02*
X13780357Y-7441786D01*
X13766071Y-7456071D01*
X13751786Y-7441786D01*
X13766071Y-7427500D01*
X13766071Y-7456071D01*
X11342500Y-8067500D02*
X11422500Y-8147500D01*
X11422500Y-8067500D02*
X11342500Y-8147500D01*
X11766071Y-7943214D02*
X11794643Y-7943214D01*
X11823214Y-7957500D01*
X11837500Y-7971786D01*
X11851786Y-8000357D01*
X11866071Y-8057500D01*
X11866071Y-8128929D01*
X11851786Y-8186071D01*
X11837500Y-8214643D01*
X11823214Y-8228929D01*
X11794643Y-8243214D01*
X11766071Y-8243214D01*
X11737500Y-8228929D01*
X11723214Y-8214643D01*
X11708928Y-8186071D01*
X11694643Y-8128929D01*
X11694643Y-8057500D01*
X11708928Y-8000357D01*
X11723214Y-7971786D01*
X11737500Y-7957500D01*
X11766071Y-7943214D01*
X11994643Y-8214643D02*
X12008928Y-8228929D01*
X11994643Y-8243214D01*
X11980357Y-8228929D01*
X11994643Y-8214643D01*
X11994643Y-8243214D01*
X12180357Y-8071786D02*
X12151786Y-8057500D01*
X12137500Y-8043214D01*
X12123214Y-8014643D01*
X12123214Y-8000357D01*
X12137500Y-7971786D01*
X12151786Y-7957500D01*
X12180357Y-7943214D01*
X12237500Y-7943214D01*
X12266071Y-7957500D01*
X12280357Y-7971786D01*
X12294643Y-8000357D01*
X12294643Y-8014643D01*
X12280357Y-8043214D01*
X12266071Y-8057500D01*
X12237500Y-8071786D01*
X12180357Y-8071786D01*
X12151786Y-8086071D01*
X12137500Y-8100357D01*
X12123214Y-8128929D01*
X12123214Y-8186071D01*
X12137500Y-8214643D01*
X12151786Y-8228929D01*
X12180357Y-8243214D01*
X12237500Y-8243214D01*
X12266071Y-8228929D01*
X12280357Y-8214643D01*
X12294643Y-8186071D01*
X12294643Y-8128929D01*
X12280357Y-8100357D01*
X12266071Y-8086071D01*
X12237500Y-8071786D01*
X12480357Y-7943214D02*
X12508928Y-7943214D01*
X12537500Y-7957500D01*
X12551786Y-7971786D01*
X12566071Y-8000357D01*
X12580357Y-8057500D01*
X12580357Y-8128929D01*
X12566071Y-8186071D01*
X12551786Y-8214643D01*
X12537500Y-8228929D01*
X12508928Y-8243214D01*
X12480357Y-8243214D01*
X12451786Y-8228929D01*
X12437500Y-8214643D01*
X12423214Y-8186071D01*
X12408928Y-8128929D01*
X12408928Y-8057500D01*
X12423214Y-8000357D01*
X12437500Y-7971786D01*
X12451786Y-7957500D01*
X12480357Y-7943214D01*
X12708928Y-8243214D02*
X12708928Y-8043214D01*
X12708928Y-8071786D02*
X12723214Y-8057500D01*
X12751786Y-8043214D01*
X12794643Y-8043214D01*
X12823214Y-8057500D01*
X12837500Y-8086071D01*
X12837500Y-8243214D01*
X12837500Y-8086071D02*
X12851786Y-8057500D01*
X12880357Y-8043214D01*
X12923214Y-8043214D01*
X12951786Y-8057500D01*
X12966071Y-8086071D01*
X12966071Y-8243214D01*
X13108928Y-8243214D02*
X13108928Y-8043214D01*
X13108928Y-8071786D02*
X13123214Y-8057500D01*
X13151786Y-8043214D01*
X13194643Y-8043214D01*
X13223214Y-8057500D01*
X13237500Y-8086071D01*
X13237500Y-8243214D01*
X13237500Y-8086071D02*
X13251786Y-8057500D01*
X13280357Y-8043214D01*
X13323214Y-8043214D01*
X13351786Y-8057500D01*
X13366071Y-8086071D01*
X13366071Y-8243214D01*
X13951786Y-7928929D02*
X13694643Y-8314643D01*
X14337500Y-7943214D02*
X14366071Y-7943214D01*
X14394643Y-7957500D01*
X14408928Y-7971786D01*
X14423214Y-8000357D01*
X14437500Y-8057500D01*
X14437500Y-8128929D01*
X14423214Y-8186071D01*
X14408928Y-8214643D01*
X14394643Y-8228929D01*
X14366071Y-8243214D01*
X14337500Y-8243214D01*
X14308928Y-8228929D01*
X14294643Y-8214643D01*
X14280357Y-8186071D01*
X14266071Y-8128929D01*
X14266071Y-8057500D01*
X14280357Y-8000357D01*
X14294643Y-7971786D01*
X14308928Y-7957500D01*
X14337500Y-7943214D01*
X14566071Y-8214643D02*
X14580357Y-8228929D01*
X14566071Y-8243214D01*
X14551786Y-8228929D01*
X14566071Y-8214643D01*
X14566071Y-8243214D01*
X14766071Y-7943214D02*
X14794643Y-7943214D01*
X14823214Y-7957500D01*
X14837500Y-7971786D01*
X14851786Y-8000357D01*
X14866071Y-8057500D01*
X14866071Y-8128929D01*
X14851786Y-8186071D01*
X14837500Y-8214643D01*
X14823214Y-8228929D01*
X14794643Y-8243214D01*
X14766071Y-8243214D01*
X14737500Y-8228929D01*
X14723214Y-8214643D01*
X14708928Y-8186071D01*
X14694643Y-8128929D01*
X14694643Y-8057500D01*
X14708928Y-8000357D01*
X14723214Y-7971786D01*
X14737500Y-7957500D01*
X14766071Y-7943214D01*
X14966071Y-7943214D02*
X15151786Y-7943214D01*
X15051786Y-8057500D01*
X15094643Y-8057500D01*
X15123214Y-8071786D01*
X15137500Y-8086071D01*
X15151786Y-8114643D01*
X15151786Y-8186071D01*
X15137500Y-8214643D01*
X15123214Y-8228929D01*
X15094643Y-8243214D01*
X15008928Y-8243214D01*
X14980357Y-8228929D01*
X14966071Y-8214643D01*
X15437500Y-8243214D02*
X15266071Y-8243214D01*
X15351786Y-8243214D02*
X15351786Y-7943214D01*
X15323214Y-7986071D01*
X15294643Y-8014643D01*
X15266071Y-8028929D01*
X15551786Y-7943214D02*
X15551786Y-8000357D01*
X15666071Y-7943214D02*
X15666071Y-8000357D01*
X16108928Y-8357500D02*
X16094643Y-8343214D01*
X16066071Y-8300357D01*
X16051786Y-8271786D01*
X16037500Y-8228929D01*
X16023214Y-8157500D01*
X16023214Y-8100357D01*
X16037500Y-8028929D01*
X16051786Y-7986071D01*
X16066071Y-7957500D01*
X16094643Y-7914643D01*
X16108928Y-7900357D01*
X16366071Y-7943214D02*
X16223214Y-7943214D01*
X16208928Y-8086071D01*
X16223214Y-8071786D01*
X16251786Y-8057500D01*
X16323214Y-8057500D01*
X16351786Y-8071786D01*
X16366071Y-8086071D01*
X16380357Y-8114643D01*
X16380357Y-8186071D01*
X16366071Y-8214643D01*
X16351786Y-8228929D01*
X16323214Y-8243214D01*
X16251786Y-8243214D01*
X16223214Y-8228929D01*
X16208928Y-8214643D01*
X16494643Y-7971786D02*
X16508928Y-7957500D01*
X16537500Y-7943214D01*
X16608928Y-7943214D01*
X16637500Y-7957500D01*
X16651786Y-7971786D01*
X16666071Y-8000357D01*
X16666071Y-8028929D01*
X16651786Y-8071786D01*
X16480357Y-8243214D01*
X16666071Y-8243214D01*
X17023214Y-8243214D02*
X17023214Y-7943214D01*
X17151786Y-8243214D02*
X17151786Y-8086071D01*
X17137500Y-8057500D01*
X17108928Y-8043214D01*
X17066071Y-8043214D01*
X17037500Y-8057500D01*
X17023214Y-8071786D01*
X17337500Y-8243214D02*
X17308928Y-8228929D01*
X17294643Y-8214643D01*
X17280357Y-8186071D01*
X17280357Y-8100357D01*
X17294643Y-8071786D01*
X17308928Y-8057500D01*
X17337500Y-8043214D01*
X17380357Y-8043214D01*
X17408928Y-8057500D01*
X17423214Y-8071786D01*
X17437500Y-8100357D01*
X17437500Y-8186071D01*
X17423214Y-8214643D01*
X17408928Y-8228929D01*
X17380357Y-8243214D01*
X17337500Y-8243214D01*
X17608928Y-8243214D02*
X17580357Y-8228929D01*
X17566071Y-8200357D01*
X17566071Y-7943214D01*
X17837500Y-8228929D02*
X17808928Y-8243214D01*
X17751786Y-8243214D01*
X17723214Y-8228929D01*
X17708928Y-8200357D01*
X17708928Y-8086071D01*
X17723214Y-8057500D01*
X17751786Y-8043214D01*
X17808928Y-8043214D01*
X17837500Y-8057500D01*
X17851786Y-8086071D01*
X17851786Y-8114643D01*
X17708928Y-8143214D01*
X17966071Y-8228929D02*
X17994643Y-8243214D01*
X18051786Y-8243214D01*
X18080357Y-8228929D01*
X18094643Y-8200357D01*
X18094643Y-8186071D01*
X18080357Y-8157500D01*
X18051786Y-8143214D01*
X18008928Y-8143214D01*
X17980357Y-8128929D01*
X17966071Y-8100357D01*
X17966071Y-8086071D01*
X17980357Y-8057500D01*
X18008928Y-8043214D01*
X18051786Y-8043214D01*
X18080357Y-8057500D01*
X18194643Y-8357500D02*
X18208928Y-8343214D01*
X18237500Y-8300357D01*
X18251786Y-8271786D01*
X18266071Y-8228929D01*
X18280357Y-8157500D01*
X18280357Y-8100357D01*
X18266071Y-8028929D01*
X18251786Y-7986071D01*
X18237500Y-7957500D01*
X18208928Y-7914643D01*
X18194643Y-7900357D01*
X11422500Y-8503500D02*
G75*
G03*
X11422500Y-8503500I-50000J0D01*
G01*
X11866071Y-8639214D02*
X11694643Y-8639214D01*
X11780357Y-8639214D02*
X11780357Y-8339214D01*
X11751786Y-8382071D01*
X11723214Y-8410643D01*
X11694643Y-8424929D01*
X11994643Y-8610643D02*
X12008928Y-8624929D01*
X11994643Y-8639214D01*
X11980357Y-8624929D01*
X11994643Y-8610643D01*
X11994643Y-8639214D01*
X12194643Y-8339214D02*
X12223214Y-8339214D01*
X12251786Y-8353500D01*
X12266071Y-8367786D01*
X12280357Y-8396357D01*
X12294643Y-8453500D01*
X12294643Y-8524929D01*
X12280357Y-8582072D01*
X12266071Y-8610643D01*
X12251786Y-8624929D01*
X12223214Y-8639214D01*
X12194643Y-8639214D01*
X12166071Y-8624929D01*
X12151786Y-8610643D01*
X12137500Y-8582072D01*
X12123214Y-8524929D01*
X12123214Y-8453500D01*
X12137500Y-8396357D01*
X12151786Y-8367786D01*
X12166071Y-8353500D01*
X12194643Y-8339214D01*
X12480357Y-8339214D02*
X12508928Y-8339214D01*
X12537500Y-8353500D01*
X12551786Y-8367786D01*
X12566071Y-8396357D01*
X12580357Y-8453500D01*
X12580357Y-8524929D01*
X12566071Y-8582072D01*
X12551786Y-8610643D01*
X12537500Y-8624929D01*
X12508928Y-8639214D01*
X12480357Y-8639214D01*
X12451786Y-8624929D01*
X12437500Y-8610643D01*
X12423214Y-8582072D01*
X12408928Y-8524929D01*
X12408928Y-8453500D01*
X12423214Y-8396357D01*
X12437500Y-8367786D01*
X12451786Y-8353500D01*
X12480357Y-8339214D01*
X12708928Y-8639214D02*
X12708928Y-8439214D01*
X12708928Y-8467786D02*
X12723214Y-8453500D01*
X12751786Y-8439214D01*
X12794643Y-8439214D01*
X12823214Y-8453500D01*
X12837500Y-8482072D01*
X12837500Y-8639214D01*
X12837500Y-8482072D02*
X12851786Y-8453500D01*
X12880357Y-8439214D01*
X12923214Y-8439214D01*
X12951786Y-8453500D01*
X12966071Y-8482072D01*
X12966071Y-8639214D01*
X13108928Y-8639214D02*
X13108928Y-8439214D01*
X13108928Y-8467786D02*
X13123214Y-8453500D01*
X13151786Y-8439214D01*
X13194643Y-8439214D01*
X13223214Y-8453500D01*
X13237500Y-8482072D01*
X13237500Y-8639214D01*
X13237500Y-8482072D02*
X13251786Y-8453500D01*
X13280357Y-8439214D01*
X13323214Y-8439214D01*
X13351786Y-8453500D01*
X13366071Y-8482072D01*
X13366071Y-8639214D01*
X13951786Y-8324929D02*
X13694643Y-8710643D01*
X14337500Y-8339214D02*
X14366071Y-8339214D01*
X14394643Y-8353500D01*
X14408928Y-8367786D01*
X14423214Y-8396357D01*
X14437500Y-8453500D01*
X14437500Y-8524929D01*
X14423214Y-8582072D01*
X14408928Y-8610643D01*
X14394643Y-8624929D01*
X14366071Y-8639214D01*
X14337500Y-8639214D01*
X14308928Y-8624929D01*
X14294643Y-8610643D01*
X14280357Y-8582072D01*
X14266071Y-8524929D01*
X14266071Y-8453500D01*
X14280357Y-8396357D01*
X14294643Y-8367786D01*
X14308928Y-8353500D01*
X14337500Y-8339214D01*
X14566071Y-8610643D02*
X14580357Y-8624929D01*
X14566071Y-8639214D01*
X14551786Y-8624929D01*
X14566071Y-8610643D01*
X14566071Y-8639214D01*
X14766071Y-8339214D02*
X14794643Y-8339214D01*
X14823214Y-8353500D01*
X14837500Y-8367786D01*
X14851786Y-8396357D01*
X14866071Y-8453500D01*
X14866071Y-8524929D01*
X14851786Y-8582072D01*
X14837500Y-8610643D01*
X14823214Y-8624929D01*
X14794643Y-8639214D01*
X14766071Y-8639214D01*
X14737500Y-8624929D01*
X14723214Y-8610643D01*
X14708928Y-8582072D01*
X14694643Y-8524929D01*
X14694643Y-8453500D01*
X14708928Y-8396357D01*
X14723214Y-8367786D01*
X14737500Y-8353500D01*
X14766071Y-8339214D01*
X14966071Y-8339214D02*
X15151786Y-8339214D01*
X15051786Y-8453500D01*
X15094643Y-8453500D01*
X15123214Y-8467786D01*
X15137500Y-8482072D01*
X15151786Y-8510643D01*
X15151786Y-8582072D01*
X15137500Y-8610643D01*
X15123214Y-8624929D01*
X15094643Y-8639214D01*
X15008928Y-8639214D01*
X14980357Y-8624929D01*
X14966071Y-8610643D01*
X15294643Y-8639214D02*
X15351786Y-8639214D01*
X15380357Y-8624929D01*
X15394643Y-8610643D01*
X15423214Y-8567786D01*
X15437500Y-8510643D01*
X15437500Y-8396357D01*
X15423214Y-8367786D01*
X15408928Y-8353500D01*
X15380357Y-8339214D01*
X15323214Y-8339214D01*
X15294643Y-8353500D01*
X15280357Y-8367786D01*
X15266071Y-8396357D01*
X15266071Y-8467786D01*
X15280357Y-8496357D01*
X15294643Y-8510643D01*
X15323214Y-8524929D01*
X15380357Y-8524929D01*
X15408928Y-8510643D01*
X15423214Y-8496357D01*
X15437500Y-8467786D01*
X15551786Y-8339214D02*
X15551786Y-8396357D01*
X15666071Y-8339214D02*
X15666071Y-8396357D01*
X16108928Y-8753500D02*
X16094643Y-8739214D01*
X16066071Y-8696357D01*
X16051786Y-8667786D01*
X16037500Y-8624929D01*
X16023214Y-8553500D01*
X16023214Y-8496357D01*
X16037500Y-8424929D01*
X16051786Y-8382071D01*
X16066071Y-8353500D01*
X16094643Y-8310643D01*
X16108928Y-8296357D01*
X16380357Y-8639214D02*
X16208928Y-8639214D01*
X16294643Y-8639214D02*
X16294643Y-8339214D01*
X16266071Y-8382071D01*
X16237500Y-8410643D01*
X16208928Y-8424929D01*
X16551786Y-8467786D02*
X16523214Y-8453500D01*
X16508928Y-8439214D01*
X16494643Y-8410643D01*
X16494643Y-8396357D01*
X16508928Y-8367786D01*
X16523214Y-8353500D01*
X16551786Y-8339214D01*
X16608928Y-8339214D01*
X16637500Y-8353500D01*
X16651786Y-8367786D01*
X16666071Y-8396357D01*
X16666071Y-8410643D01*
X16651786Y-8439214D01*
X16637500Y-8453500D01*
X16608928Y-8467786D01*
X16551786Y-8467786D01*
X16523214Y-8482072D01*
X16508928Y-8496357D01*
X16494643Y-8524929D01*
X16494643Y-8582072D01*
X16508928Y-8610643D01*
X16523214Y-8624929D01*
X16551786Y-8639214D01*
X16608928Y-8639214D01*
X16637500Y-8624929D01*
X16651786Y-8610643D01*
X16666071Y-8582072D01*
X16666071Y-8524929D01*
X16651786Y-8496357D01*
X16637500Y-8482072D01*
X16608928Y-8467786D01*
X17023214Y-8639214D02*
X17023214Y-8339214D01*
X17151786Y-8639214D02*
X17151786Y-8482072D01*
X17137500Y-8453500D01*
X17108928Y-8439214D01*
X17066071Y-8439214D01*
X17037500Y-8453500D01*
X17023214Y-8467786D01*
X17337500Y-8639214D02*
X17308928Y-8624929D01*
X17294643Y-8610643D01*
X17280357Y-8582072D01*
X17280357Y-8496357D01*
X17294643Y-8467786D01*
X17308928Y-8453500D01*
X17337500Y-8439214D01*
X17380357Y-8439214D01*
X17408928Y-8453500D01*
X17423214Y-8467786D01*
X17437500Y-8496357D01*
X17437500Y-8582072D01*
X17423214Y-8610643D01*
X17408928Y-8624929D01*
X17380357Y-8639214D01*
X17337500Y-8639214D01*
X17608928Y-8639214D02*
X17580357Y-8624929D01*
X17566071Y-8596357D01*
X17566071Y-8339214D01*
X17837500Y-8624929D02*
X17808928Y-8639214D01*
X17751786Y-8639214D01*
X17723214Y-8624929D01*
X17708928Y-8596357D01*
X17708928Y-8482072D01*
X17723214Y-8453500D01*
X17751786Y-8439214D01*
X17808928Y-8439214D01*
X17837500Y-8453500D01*
X17851786Y-8482072D01*
X17851786Y-8510643D01*
X17708928Y-8539214D01*
X17966071Y-8624929D02*
X17994643Y-8639214D01*
X18051786Y-8639214D01*
X18080357Y-8624929D01*
X18094643Y-8596357D01*
X18094643Y-8582072D01*
X18080357Y-8553500D01*
X18051786Y-8539214D01*
X18008928Y-8539214D01*
X17980357Y-8524929D01*
X17966071Y-8496357D01*
X17966071Y-8482072D01*
X17980357Y-8453500D01*
X18008928Y-8439214D01*
X18051786Y-8439214D01*
X18080357Y-8453500D01*
X18194643Y-8753500D02*
X18208928Y-8739214D01*
X18237500Y-8696357D01*
X18251786Y-8667786D01*
X18266071Y-8624929D01*
X18280357Y-8553500D01*
X18280357Y-8496357D01*
X18266071Y-8424929D01*
X18251786Y-8382071D01*
X18237500Y-8353500D01*
X18208928Y-8310643D01*
X18194643Y-8296357D01*
M02*
