G04 #@! TF.GenerationSoftware,KiCad,Pcbnew,(5.1.6)-1*
G04 #@! TF.CreationDate,2021-06-26T13:41:07+03:00*
G04 #@! TF.ProjectId,a600_rgb2hdmi,61363030-5f72-4676-9232-68646d692e6b,rev?*
G04 #@! TF.SameCoordinates,Original*
G04 #@! TF.FileFunction,Soldermask,Bot*
G04 #@! TF.FilePolarity,Negative*
%FSLAX46Y46*%
G04 Gerber Fmt 4.6, Leading zero omitted, Abs format (unit mm)*
G04 Created by KiCad (PCBNEW (5.1.6)-1) date 2021-06-26 13:41:07*
%MOMM*%
%LPD*%
G01*
G04 APERTURE LIST*
%ADD10O,1.800000X1.800000*%
%ADD11R,1.800000X1.800000*%
%ADD12C,1.522400*%
%ADD13R,1.522400X1.522400*%
G04 APERTURE END LIST*
D10*
X166110000Y-38100000D03*
D11*
X163570000Y-38100000D03*
D10*
X158510000Y-38100000D03*
X155970000Y-38100000D03*
X153430000Y-38100000D03*
X150890000Y-38100000D03*
X148350000Y-38100000D03*
X145810000Y-38100000D03*
X143270000Y-38100000D03*
X140730000Y-38100000D03*
X138190000Y-38100000D03*
X135650000Y-38100000D03*
X133110000Y-38100000D03*
D11*
X130570000Y-38100000D03*
D10*
X125490000Y-38100000D03*
X122950000Y-38100000D03*
X120410000Y-38100000D03*
D11*
X117870000Y-38100000D03*
D12*
X131840000Y-63460000D03*
X131840000Y-60920000D03*
X131840000Y-58380000D03*
X131840000Y-55840000D03*
X131840000Y-53300000D03*
X131840000Y-50760000D03*
X134380000Y-66000000D03*
X134380000Y-60920000D03*
X134380000Y-58380000D03*
X134380000Y-55840000D03*
X134380000Y-53300000D03*
X134380000Y-50760000D03*
X134380000Y-48220000D03*
X134380000Y-45680000D03*
X136920000Y-45680000D03*
X139460000Y-45680000D03*
X142000000Y-45680000D03*
X144540000Y-45680000D03*
X147080000Y-45680000D03*
X149620000Y-45680000D03*
X131840000Y-48220000D03*
X136920000Y-48220000D03*
X139460000Y-48220000D03*
X142000000Y-48220000D03*
X144540000Y-48220000D03*
X147080000Y-48220000D03*
X149620000Y-48220000D03*
X152160000Y-48220000D03*
X152160000Y-50760000D03*
X152160000Y-53300000D03*
X152160000Y-55840000D03*
X152160000Y-58380000D03*
X152160000Y-60920000D03*
X152160000Y-63460000D03*
X149620000Y-50760000D03*
X149620000Y-53300000D03*
X149620000Y-55840000D03*
X149620000Y-58380000D03*
X149620000Y-60920000D03*
X149620000Y-63460000D03*
X136920000Y-66000000D03*
X139460000Y-66000000D03*
X149620000Y-66000000D03*
X147080000Y-66000000D03*
X144540000Y-66000000D03*
D13*
X142000000Y-66000000D03*
D12*
X134380000Y-63460000D03*
X136920000Y-63460000D03*
X139460000Y-63460000D03*
X147080000Y-63460000D03*
X144540000Y-63460000D03*
X142000000Y-63460000D03*
M02*
