%FSLAX45Y45*%
G04 Gerber Fmt 4.5, Leading zero omitted, Abs format (unit mm)*
G04 Created by KiCad (PCBNEW (5.1.6)-1) date 2021-06-26 13:41:21*
%MOMM*%
%LPD*%
G01*
G04 APERTURE LIST*
%TA.AperFunction,Profile*%
%ADD10C,0.150000*%
%TD*%
%ADD11C,0.200000*%
%ADD12C,0.300000*%
G04 APERTURE END LIST*
D10*
X11660000Y-7140000D02*
X16750000Y-7140000D01*
X16750000Y-3280000D02*
X11660000Y-3280000D01*
X11430000Y-6910000D02*
X11430000Y-3510000D01*
X11660000Y-7140000D02*
G75*
G02*
X11430000Y-6910000I0J230000D01*
G01*
X11430000Y-3510000D02*
G75*
G02*
X11660000Y-3280000I230000J0D01*
G01*
X16980000Y-3510000D02*
X16980000Y-6910000D01*
X16980000Y-6910000D02*
G75*
G02*
X16750000Y-7140000I-230000J0D01*
G01*
X16750000Y-3280000D02*
G75*
G02*
X16980000Y-3510000I0J-230000D01*
G01*
D11*
D12*
X11708928Y-7613214D02*
X11708928Y-7313214D01*
X11780357Y-7313214D01*
X11823214Y-7327500D01*
X11851786Y-7356071D01*
X11866071Y-7384643D01*
X11880357Y-7441786D01*
X11880357Y-7484643D01*
X11866071Y-7541786D01*
X11851786Y-7570357D01*
X11823214Y-7598929D01*
X11780357Y-7613214D01*
X11708928Y-7613214D01*
X12008928Y-7613214D02*
X12008928Y-7413214D01*
X12008928Y-7470357D02*
X12023214Y-7441786D01*
X12037500Y-7427500D01*
X12066071Y-7413214D01*
X12094643Y-7413214D01*
X12194643Y-7613214D02*
X12194643Y-7413214D01*
X12194643Y-7313214D02*
X12180357Y-7327500D01*
X12194643Y-7341786D01*
X12208928Y-7327500D01*
X12194643Y-7313214D01*
X12194643Y-7341786D01*
X12380357Y-7613214D02*
X12351786Y-7598929D01*
X12337500Y-7570357D01*
X12337500Y-7313214D01*
X12537500Y-7613214D02*
X12508928Y-7598929D01*
X12494643Y-7570357D01*
X12494643Y-7313214D01*
X12880357Y-7613214D02*
X12880357Y-7313214D01*
X12980357Y-7527500D01*
X13080357Y-7313214D01*
X13080357Y-7613214D01*
X13351786Y-7613214D02*
X13351786Y-7456071D01*
X13337500Y-7427500D01*
X13308928Y-7413214D01*
X13251786Y-7413214D01*
X13223214Y-7427500D01*
X13351786Y-7598929D02*
X13323214Y-7613214D01*
X13251786Y-7613214D01*
X13223214Y-7598929D01*
X13208928Y-7570357D01*
X13208928Y-7541786D01*
X13223214Y-7513214D01*
X13251786Y-7498929D01*
X13323214Y-7498929D01*
X13351786Y-7484643D01*
X13494643Y-7413214D02*
X13494643Y-7713214D01*
X13494643Y-7427500D02*
X13523214Y-7413214D01*
X13580357Y-7413214D01*
X13608928Y-7427500D01*
X13623214Y-7441786D01*
X13637500Y-7470357D01*
X13637500Y-7556071D01*
X13623214Y-7584643D01*
X13608928Y-7598929D01*
X13580357Y-7613214D01*
X13523214Y-7613214D01*
X13494643Y-7598929D01*
X13766071Y-7584643D02*
X13780357Y-7598929D01*
X13766071Y-7613214D01*
X13751786Y-7598929D01*
X13766071Y-7584643D01*
X13766071Y-7613214D01*
X13766071Y-7427500D02*
X13780357Y-7441786D01*
X13766071Y-7456071D01*
X13751786Y-7441786D01*
X13766071Y-7427500D01*
X13766071Y-7456071D01*
M02*
