G04 #@! TF.GenerationSoftware,KiCad,Pcbnew,(5.1.6)-1*
G04 #@! TF.CreationDate,2021-06-26T13:41:07+03:00*
G04 #@! TF.ProjectId,a600_rgb2hdmi,61363030-5f72-4676-9232-68646d692e6b,rev?*
G04 #@! TF.SameCoordinates,Original*
G04 #@! TF.FileFunction,Copper,L2,Bot*
G04 #@! TF.FilePolarity,Positive*
%FSLAX46Y46*%
G04 Gerber Fmt 4.6, Leading zero omitted, Abs format (unit mm)*
G04 Created by KiCad (PCBNEW (5.1.6)-1) date 2021-06-26 13:41:07*
%MOMM*%
%LPD*%
G01*
G04 APERTURE LIST*
G04 #@! TA.AperFunction,ComponentPad*
%ADD10O,1.700000X1.700000*%
G04 #@! TD*
G04 #@! TA.AperFunction,ComponentPad*
%ADD11R,1.700000X1.700000*%
G04 #@! TD*
G04 #@! TA.AperFunction,ComponentPad*
%ADD12C,1.422400*%
G04 #@! TD*
G04 #@! TA.AperFunction,ComponentPad*
%ADD13R,1.422400X1.422400*%
G04 #@! TD*
G04 #@! TA.AperFunction,Conductor*
%ADD14C,0.250000*%
G04 #@! TD*
G04 #@! TA.AperFunction,Conductor*
%ADD15C,2.000000*%
G04 #@! TD*
G04 #@! TA.AperFunction,NonConductor*
%ADD16C,0.254000*%
G04 #@! TD*
G04 APERTURE END LIST*
D10*
X166110000Y-38100000D03*
D11*
X163570000Y-38100000D03*
D10*
X158510000Y-38100000D03*
X155970000Y-38100000D03*
X153430000Y-38100000D03*
X150890000Y-38100000D03*
X148350000Y-38100000D03*
X145810000Y-38100000D03*
X143270000Y-38100000D03*
X140730000Y-38100000D03*
X138190000Y-38100000D03*
X135650000Y-38100000D03*
X133110000Y-38100000D03*
D11*
X130570000Y-38100000D03*
D10*
X125490000Y-38100000D03*
X122950000Y-38100000D03*
X120410000Y-38100000D03*
D11*
X117870000Y-38100000D03*
D12*
X131840000Y-63460000D03*
X131840000Y-60920000D03*
X131840000Y-58380000D03*
X131840000Y-55840000D03*
X131840000Y-53300000D03*
X131840000Y-50760000D03*
X134380000Y-66000000D03*
X134380000Y-60920000D03*
X134380000Y-58380000D03*
X134380000Y-55840000D03*
X134380000Y-53300000D03*
X134380000Y-50760000D03*
X134380000Y-48220000D03*
X134380000Y-45680000D03*
X136920000Y-45680000D03*
X139460000Y-45680000D03*
X142000000Y-45680000D03*
X144540000Y-45680000D03*
X147080000Y-45680000D03*
X149620000Y-45680000D03*
X131840000Y-48220000D03*
X136920000Y-48220000D03*
X139460000Y-48220000D03*
X142000000Y-48220000D03*
X144540000Y-48220000D03*
X147080000Y-48220000D03*
X149620000Y-48220000D03*
X152160000Y-48220000D03*
X152160000Y-50760000D03*
X152160000Y-53300000D03*
X152160000Y-55840000D03*
X152160000Y-58380000D03*
X152160000Y-60920000D03*
X152160000Y-63460000D03*
X149620000Y-50760000D03*
X149620000Y-53300000D03*
X149620000Y-55840000D03*
X149620000Y-58380000D03*
X149620000Y-60920000D03*
X149620000Y-63460000D03*
X136920000Y-66000000D03*
X139460000Y-66000000D03*
X149620000Y-66000000D03*
X147080000Y-66000000D03*
X144540000Y-66000000D03*
D13*
X142000000Y-66000000D03*
D12*
X134380000Y-63460000D03*
X136920000Y-63460000D03*
X139460000Y-63460000D03*
X147080000Y-63460000D03*
X144540000Y-63460000D03*
X142000000Y-63460000D03*
D14*
X134380000Y-45680000D02*
X134380000Y-43020000D01*
X134380000Y-43020000D02*
X137200000Y-40200000D01*
X138630000Y-40200000D02*
X140730000Y-38100000D01*
X137200000Y-40200000D02*
X138630000Y-40200000D01*
X134380000Y-48220000D02*
X135600000Y-47000000D01*
X135600000Y-47000000D02*
X135600000Y-43600000D01*
X135600000Y-43600000D02*
X138000000Y-41200000D01*
X140170000Y-41200000D02*
X143270000Y-38100000D01*
X138000000Y-41200000D02*
X140170000Y-41200000D01*
X136920000Y-45680000D02*
X136920000Y-44280000D01*
X136920000Y-44280000D02*
X138900000Y-42300000D01*
X141610000Y-42300000D02*
X145810000Y-38100000D01*
X138900000Y-42300000D02*
X141610000Y-42300000D01*
X136920000Y-48220000D02*
X138200000Y-46940000D01*
X138200000Y-46940000D02*
X138200000Y-44700000D01*
X138200000Y-44700000D02*
X139400000Y-43500000D01*
X142950000Y-43500000D02*
X148350000Y-38100000D01*
X139400000Y-43500000D02*
X142950000Y-43500000D01*
D15*
X120410000Y-38100000D02*
X120410000Y-36890000D01*
X120410000Y-38100000D02*
X120410000Y-39690000D01*
X131840000Y-55840000D02*
X130540000Y-55840000D01*
D16*
G36*
X167808168Y-33543620D02*
G01*
X168104605Y-33633120D01*
X168378006Y-33778490D01*
X168617972Y-33974200D01*
X168815347Y-34212787D01*
X168962622Y-34485167D01*
X169054189Y-34780971D01*
X169090000Y-35121690D01*
X169090001Y-69065261D01*
X169056379Y-69408170D01*
X168966880Y-69704604D01*
X168821509Y-69978008D01*
X168625800Y-70217972D01*
X168387215Y-70415345D01*
X168114834Y-70562622D01*
X167819029Y-70654189D01*
X167478310Y-70690000D01*
X116634729Y-70690000D01*
X116291830Y-70656379D01*
X115995396Y-70566880D01*
X115721992Y-70421509D01*
X115482028Y-70225800D01*
X115284655Y-69987215D01*
X115137378Y-69714834D01*
X115045811Y-69419029D01*
X115010000Y-69078310D01*
X115010000Y-37250000D01*
X116381928Y-37250000D01*
X116381928Y-38950000D01*
X116394188Y-39074482D01*
X116430498Y-39194180D01*
X116489463Y-39304494D01*
X116568815Y-39401185D01*
X116665506Y-39480537D01*
X116775820Y-39539502D01*
X116895518Y-39575812D01*
X117020000Y-39588072D01*
X118720000Y-39588072D01*
X118844482Y-39575812D01*
X118964180Y-39539502D01*
X119074494Y-39480537D01*
X119171185Y-39401185D01*
X119250537Y-39304494D01*
X119309502Y-39194180D01*
X119331513Y-39121620D01*
X119463368Y-39253475D01*
X119706589Y-39415990D01*
X119976842Y-39527932D01*
X120263740Y-39585000D01*
X120556260Y-39585000D01*
X120843158Y-39527932D01*
X121113411Y-39415990D01*
X121356632Y-39253475D01*
X121563475Y-39046632D01*
X121680000Y-38872240D01*
X121796525Y-39046632D01*
X122003368Y-39253475D01*
X122246589Y-39415990D01*
X122516842Y-39527932D01*
X122803740Y-39585000D01*
X123096260Y-39585000D01*
X123383158Y-39527932D01*
X123653411Y-39415990D01*
X123896632Y-39253475D01*
X124103475Y-39046632D01*
X124220000Y-38872240D01*
X124336525Y-39046632D01*
X124543368Y-39253475D01*
X124786589Y-39415990D01*
X125056842Y-39527932D01*
X125343740Y-39585000D01*
X125636260Y-39585000D01*
X125923158Y-39527932D01*
X126193411Y-39415990D01*
X126436632Y-39253475D01*
X126643475Y-39046632D01*
X126805990Y-38803411D01*
X126917932Y-38533158D01*
X126975000Y-38246260D01*
X126975000Y-37953740D01*
X126917932Y-37666842D01*
X126805990Y-37396589D01*
X126708043Y-37250000D01*
X129081928Y-37250000D01*
X129081928Y-38950000D01*
X129094188Y-39074482D01*
X129130498Y-39194180D01*
X129189463Y-39304494D01*
X129268815Y-39401185D01*
X129365506Y-39480537D01*
X129475820Y-39539502D01*
X129595518Y-39575812D01*
X129720000Y-39588072D01*
X131420000Y-39588072D01*
X131544482Y-39575812D01*
X131664180Y-39539502D01*
X131774494Y-39480537D01*
X131871185Y-39401185D01*
X131950537Y-39304494D01*
X132009502Y-39194180D01*
X132031513Y-39121620D01*
X132163368Y-39253475D01*
X132406589Y-39415990D01*
X132676842Y-39527932D01*
X132963740Y-39585000D01*
X133256260Y-39585000D01*
X133543158Y-39527932D01*
X133813411Y-39415990D01*
X134056632Y-39253475D01*
X134263475Y-39046632D01*
X134380000Y-38872240D01*
X134496525Y-39046632D01*
X134703368Y-39253475D01*
X134946589Y-39415990D01*
X135216842Y-39527932D01*
X135503740Y-39585000D01*
X135796260Y-39585000D01*
X136083158Y-39527932D01*
X136353411Y-39415990D01*
X136596632Y-39253475D01*
X136803475Y-39046632D01*
X136920000Y-38872240D01*
X137036525Y-39046632D01*
X137243368Y-39253475D01*
X137486589Y-39415990D01*
X137544555Y-39440000D01*
X137237322Y-39440000D01*
X137199999Y-39436324D01*
X137162676Y-39440000D01*
X137162667Y-39440000D01*
X137051014Y-39450997D01*
X136907753Y-39494454D01*
X136775724Y-39565026D01*
X136659999Y-39659999D01*
X136636201Y-39688997D01*
X133868998Y-42456201D01*
X133840000Y-42479999D01*
X133816202Y-42508997D01*
X133816201Y-42508998D01*
X133745026Y-42595724D01*
X133674454Y-42727754D01*
X133654222Y-42794454D01*
X133632815Y-42865026D01*
X133630998Y-42871015D01*
X133616324Y-43020000D01*
X133620001Y-43057332D01*
X133620000Y-44568754D01*
X133521847Y-44634338D01*
X133334338Y-44821847D01*
X133187013Y-45042335D01*
X133085533Y-45287328D01*
X133033800Y-45547411D01*
X133033800Y-45812589D01*
X133085533Y-46072672D01*
X133187013Y-46317665D01*
X133334338Y-46538153D01*
X133521847Y-46725662D01*
X133742335Y-46872987D01*
X133928260Y-46950000D01*
X133742335Y-47027013D01*
X133521847Y-47174338D01*
X133334338Y-47361847D01*
X133187013Y-47582335D01*
X133110000Y-47768260D01*
X133032987Y-47582335D01*
X132885662Y-47361847D01*
X132698153Y-47174338D01*
X132477665Y-47027013D01*
X132232672Y-46925533D01*
X131972589Y-46873800D01*
X131707411Y-46873800D01*
X131447328Y-46925533D01*
X131202335Y-47027013D01*
X130981847Y-47174338D01*
X130794338Y-47361847D01*
X130647013Y-47582335D01*
X130545533Y-47827328D01*
X130493800Y-48087411D01*
X130493800Y-48352589D01*
X130545533Y-48612672D01*
X130647013Y-48857665D01*
X130794338Y-49078153D01*
X130981847Y-49265662D01*
X131202335Y-49412987D01*
X131388260Y-49490000D01*
X131202335Y-49567013D01*
X130981847Y-49714338D01*
X130794338Y-49901847D01*
X130647013Y-50122335D01*
X130545533Y-50367328D01*
X130493800Y-50627411D01*
X130493800Y-50892589D01*
X130545533Y-51152672D01*
X130647013Y-51397665D01*
X130794338Y-51618153D01*
X130981847Y-51805662D01*
X131202335Y-51952987D01*
X131388260Y-52030000D01*
X131202335Y-52107013D01*
X130981847Y-52254338D01*
X130794338Y-52441847D01*
X130647013Y-52662335D01*
X130545533Y-52907328D01*
X130493800Y-53167411D01*
X130493800Y-53432589D01*
X130545533Y-53692672D01*
X130647013Y-53937665D01*
X130794338Y-54158153D01*
X130981847Y-54345662D01*
X131202335Y-54492987D01*
X131388260Y-54570000D01*
X131202335Y-54647013D01*
X130981847Y-54794338D01*
X130794338Y-54981847D01*
X130647013Y-55202335D01*
X130545533Y-55447328D01*
X130493800Y-55707411D01*
X130493800Y-55972589D01*
X130545533Y-56232672D01*
X130647013Y-56477665D01*
X130794338Y-56698153D01*
X130981847Y-56885662D01*
X131202335Y-57032987D01*
X131388260Y-57110000D01*
X131202335Y-57187013D01*
X130981847Y-57334338D01*
X130794338Y-57521847D01*
X130647013Y-57742335D01*
X130545533Y-57987328D01*
X130493800Y-58247411D01*
X130493800Y-58512589D01*
X130545533Y-58772672D01*
X130647013Y-59017665D01*
X130794338Y-59238153D01*
X130981847Y-59425662D01*
X131202335Y-59572987D01*
X131388260Y-59650000D01*
X131202335Y-59727013D01*
X130981847Y-59874338D01*
X130794338Y-60061847D01*
X130647013Y-60282335D01*
X130545533Y-60527328D01*
X130493800Y-60787411D01*
X130493800Y-61052589D01*
X130545533Y-61312672D01*
X130647013Y-61557665D01*
X130794338Y-61778153D01*
X130981847Y-61965662D01*
X131202335Y-62112987D01*
X131388260Y-62190000D01*
X131202335Y-62267013D01*
X130981847Y-62414338D01*
X130794338Y-62601847D01*
X130647013Y-62822335D01*
X130545533Y-63067328D01*
X130493800Y-63327411D01*
X130493800Y-63592589D01*
X130545533Y-63852672D01*
X130647013Y-64097665D01*
X130794338Y-64318153D01*
X130981847Y-64505662D01*
X131202335Y-64652987D01*
X131447328Y-64754467D01*
X131707411Y-64806200D01*
X131972589Y-64806200D01*
X132232672Y-64754467D01*
X132477665Y-64652987D01*
X132698153Y-64505662D01*
X132885662Y-64318153D01*
X133032987Y-64097665D01*
X133110000Y-63911740D01*
X133187013Y-64097665D01*
X133334338Y-64318153D01*
X133521847Y-64505662D01*
X133742335Y-64652987D01*
X133928260Y-64730000D01*
X133742335Y-64807013D01*
X133521847Y-64954338D01*
X133334338Y-65141847D01*
X133187013Y-65362335D01*
X133085533Y-65607328D01*
X133033800Y-65867411D01*
X133033800Y-66132589D01*
X133085533Y-66392672D01*
X133187013Y-66637665D01*
X133334338Y-66858153D01*
X133521847Y-67045662D01*
X133742335Y-67192987D01*
X133987328Y-67294467D01*
X134247411Y-67346200D01*
X134512589Y-67346200D01*
X134772672Y-67294467D01*
X135017665Y-67192987D01*
X135238153Y-67045662D01*
X135425662Y-66858153D01*
X135572987Y-66637665D01*
X135650000Y-66451740D01*
X135727013Y-66637665D01*
X135874338Y-66858153D01*
X136061847Y-67045662D01*
X136282335Y-67192987D01*
X136527328Y-67294467D01*
X136787411Y-67346200D01*
X137052589Y-67346200D01*
X137312672Y-67294467D01*
X137557665Y-67192987D01*
X137778153Y-67045662D01*
X137965662Y-66858153D01*
X138112987Y-66637665D01*
X138190000Y-66451740D01*
X138267013Y-66637665D01*
X138414338Y-66858153D01*
X138601847Y-67045662D01*
X138822335Y-67192987D01*
X139067328Y-67294467D01*
X139327411Y-67346200D01*
X139592589Y-67346200D01*
X139852672Y-67294467D01*
X140097665Y-67192987D01*
X140318153Y-67045662D01*
X140505662Y-66858153D01*
X140650728Y-66641046D01*
X140650728Y-66711200D01*
X140662988Y-66835682D01*
X140699298Y-66955380D01*
X140758263Y-67065694D01*
X140837615Y-67162385D01*
X140934306Y-67241737D01*
X141044620Y-67300702D01*
X141164318Y-67337012D01*
X141288800Y-67349272D01*
X142711200Y-67349272D01*
X142835682Y-67337012D01*
X142955380Y-67300702D01*
X143065694Y-67241737D01*
X143162385Y-67162385D01*
X143241737Y-67065694D01*
X143300702Y-66955380D01*
X143337012Y-66835682D01*
X143349272Y-66711200D01*
X143349272Y-66641046D01*
X143494338Y-66858153D01*
X143681847Y-67045662D01*
X143902335Y-67192987D01*
X144147328Y-67294467D01*
X144407411Y-67346200D01*
X144672589Y-67346200D01*
X144932672Y-67294467D01*
X145177665Y-67192987D01*
X145398153Y-67045662D01*
X145585662Y-66858153D01*
X145732987Y-66637665D01*
X145810000Y-66451740D01*
X145887013Y-66637665D01*
X146034338Y-66858153D01*
X146221847Y-67045662D01*
X146442335Y-67192987D01*
X146687328Y-67294467D01*
X146947411Y-67346200D01*
X147212589Y-67346200D01*
X147472672Y-67294467D01*
X147717665Y-67192987D01*
X147938153Y-67045662D01*
X148125662Y-66858153D01*
X148272987Y-66637665D01*
X148350000Y-66451740D01*
X148427013Y-66637665D01*
X148574338Y-66858153D01*
X148761847Y-67045662D01*
X148982335Y-67192987D01*
X149227328Y-67294467D01*
X149487411Y-67346200D01*
X149752589Y-67346200D01*
X150012672Y-67294467D01*
X150257665Y-67192987D01*
X150478153Y-67045662D01*
X150665662Y-66858153D01*
X150812987Y-66637665D01*
X150914467Y-66392672D01*
X150966200Y-66132589D01*
X150966200Y-65867411D01*
X150914467Y-65607328D01*
X150812987Y-65362335D01*
X150665662Y-65141847D01*
X150478153Y-64954338D01*
X150257665Y-64807013D01*
X150071740Y-64730000D01*
X150257665Y-64652987D01*
X150478153Y-64505662D01*
X150665662Y-64318153D01*
X150812987Y-64097665D01*
X150890000Y-63911740D01*
X150967013Y-64097665D01*
X151114338Y-64318153D01*
X151301847Y-64505662D01*
X151522335Y-64652987D01*
X151767328Y-64754467D01*
X152027411Y-64806200D01*
X152292589Y-64806200D01*
X152552672Y-64754467D01*
X152797665Y-64652987D01*
X153018153Y-64505662D01*
X153205662Y-64318153D01*
X153352987Y-64097665D01*
X153454467Y-63852672D01*
X153506200Y-63592589D01*
X153506200Y-63327411D01*
X153454467Y-63067328D01*
X153352987Y-62822335D01*
X153205662Y-62601847D01*
X153018153Y-62414338D01*
X152797665Y-62267013D01*
X152611740Y-62190000D01*
X152797665Y-62112987D01*
X153018153Y-61965662D01*
X153205662Y-61778153D01*
X153352987Y-61557665D01*
X153454467Y-61312672D01*
X153506200Y-61052589D01*
X153506200Y-60787411D01*
X153454467Y-60527328D01*
X153352987Y-60282335D01*
X153205662Y-60061847D01*
X153018153Y-59874338D01*
X152797665Y-59727013D01*
X152611740Y-59650000D01*
X152797665Y-59572987D01*
X153018153Y-59425662D01*
X153205662Y-59238153D01*
X153352987Y-59017665D01*
X153454467Y-58772672D01*
X153506200Y-58512589D01*
X153506200Y-58247411D01*
X153454467Y-57987328D01*
X153352987Y-57742335D01*
X153205662Y-57521847D01*
X153018153Y-57334338D01*
X152797665Y-57187013D01*
X152611740Y-57110000D01*
X152797665Y-57032987D01*
X153018153Y-56885662D01*
X153205662Y-56698153D01*
X153352987Y-56477665D01*
X153454467Y-56232672D01*
X153506200Y-55972589D01*
X153506200Y-55707411D01*
X153454467Y-55447328D01*
X153352987Y-55202335D01*
X153205662Y-54981847D01*
X153018153Y-54794338D01*
X152797665Y-54647013D01*
X152611740Y-54570000D01*
X152797665Y-54492987D01*
X153018153Y-54345662D01*
X153205662Y-54158153D01*
X153352987Y-53937665D01*
X153454467Y-53692672D01*
X153506200Y-53432589D01*
X153506200Y-53167411D01*
X153454467Y-52907328D01*
X153352987Y-52662335D01*
X153205662Y-52441847D01*
X153018153Y-52254338D01*
X152797665Y-52107013D01*
X152611740Y-52030000D01*
X152797665Y-51952987D01*
X153018153Y-51805662D01*
X153205662Y-51618153D01*
X153352987Y-51397665D01*
X153454467Y-51152672D01*
X153506200Y-50892589D01*
X153506200Y-50627411D01*
X153454467Y-50367328D01*
X153352987Y-50122335D01*
X153205662Y-49901847D01*
X153018153Y-49714338D01*
X152797665Y-49567013D01*
X152611740Y-49490000D01*
X152797665Y-49412987D01*
X153018153Y-49265662D01*
X153205662Y-49078153D01*
X153352987Y-48857665D01*
X153454467Y-48612672D01*
X153506200Y-48352589D01*
X153506200Y-48087411D01*
X153454467Y-47827328D01*
X153352987Y-47582335D01*
X153205662Y-47361847D01*
X153018153Y-47174338D01*
X152797665Y-47027013D01*
X152552672Y-46925533D01*
X152292589Y-46873800D01*
X152027411Y-46873800D01*
X151767328Y-46925533D01*
X151522335Y-47027013D01*
X151301847Y-47174338D01*
X151114338Y-47361847D01*
X150967013Y-47582335D01*
X150890000Y-47768260D01*
X150812987Y-47582335D01*
X150665662Y-47361847D01*
X150478153Y-47174338D01*
X150257665Y-47027013D01*
X150071740Y-46950000D01*
X150257665Y-46872987D01*
X150478153Y-46725662D01*
X150665662Y-46538153D01*
X150812987Y-46317665D01*
X150914467Y-46072672D01*
X150966200Y-45812589D01*
X150966200Y-45547411D01*
X150914467Y-45287328D01*
X150812987Y-45042335D01*
X150665662Y-44821847D01*
X150478153Y-44634338D01*
X150257665Y-44487013D01*
X150012672Y-44385533D01*
X149752589Y-44333800D01*
X149487411Y-44333800D01*
X149227328Y-44385533D01*
X148982335Y-44487013D01*
X148761847Y-44634338D01*
X148574338Y-44821847D01*
X148427013Y-45042335D01*
X148350000Y-45228260D01*
X148272987Y-45042335D01*
X148125662Y-44821847D01*
X147938153Y-44634338D01*
X147717665Y-44487013D01*
X147472672Y-44385533D01*
X147212589Y-44333800D01*
X146947411Y-44333800D01*
X146687328Y-44385533D01*
X146442335Y-44487013D01*
X146221847Y-44634338D01*
X146034338Y-44821847D01*
X145887013Y-45042335D01*
X145810000Y-45228260D01*
X145732987Y-45042335D01*
X145585662Y-44821847D01*
X145398153Y-44634338D01*
X145177665Y-44487013D01*
X144932672Y-44385533D01*
X144672589Y-44333800D01*
X144407411Y-44333800D01*
X144147328Y-44385533D01*
X143902335Y-44487013D01*
X143681847Y-44634338D01*
X143494338Y-44821847D01*
X143347013Y-45042335D01*
X143270000Y-45228260D01*
X143192987Y-45042335D01*
X143045662Y-44821847D01*
X142858153Y-44634338D01*
X142637665Y-44487013D01*
X142392672Y-44385533D01*
X142132589Y-44333800D01*
X141867411Y-44333800D01*
X141607328Y-44385533D01*
X141362335Y-44487013D01*
X141141847Y-44634338D01*
X140954338Y-44821847D01*
X140807013Y-45042335D01*
X140730000Y-45228260D01*
X140652987Y-45042335D01*
X140505662Y-44821847D01*
X140318153Y-44634338D01*
X140097665Y-44487013D01*
X139852672Y-44385533D01*
X139632970Y-44341832D01*
X139714802Y-44260000D01*
X142912678Y-44260000D01*
X142950000Y-44263676D01*
X142987322Y-44260000D01*
X142987333Y-44260000D01*
X143098986Y-44249003D01*
X143242247Y-44205546D01*
X143374276Y-44134974D01*
X143490001Y-44040001D01*
X143513804Y-44010997D01*
X147983592Y-39541210D01*
X148203740Y-39585000D01*
X148496260Y-39585000D01*
X148783158Y-39527932D01*
X149053411Y-39415990D01*
X149296632Y-39253475D01*
X149503475Y-39046632D01*
X149620000Y-38872240D01*
X149736525Y-39046632D01*
X149943368Y-39253475D01*
X150186589Y-39415990D01*
X150456842Y-39527932D01*
X150743740Y-39585000D01*
X151036260Y-39585000D01*
X151323158Y-39527932D01*
X151593411Y-39415990D01*
X151836632Y-39253475D01*
X152043475Y-39046632D01*
X152160000Y-38872240D01*
X152276525Y-39046632D01*
X152483368Y-39253475D01*
X152726589Y-39415990D01*
X152996842Y-39527932D01*
X153283740Y-39585000D01*
X153576260Y-39585000D01*
X153863158Y-39527932D01*
X154133411Y-39415990D01*
X154376632Y-39253475D01*
X154583475Y-39046632D01*
X154700000Y-38872240D01*
X154816525Y-39046632D01*
X155023368Y-39253475D01*
X155266589Y-39415990D01*
X155536842Y-39527932D01*
X155823740Y-39585000D01*
X156116260Y-39585000D01*
X156403158Y-39527932D01*
X156673411Y-39415990D01*
X156916632Y-39253475D01*
X157123475Y-39046632D01*
X157240000Y-38872240D01*
X157356525Y-39046632D01*
X157563368Y-39253475D01*
X157806589Y-39415990D01*
X158076842Y-39527932D01*
X158363740Y-39585000D01*
X158656260Y-39585000D01*
X158943158Y-39527932D01*
X159213411Y-39415990D01*
X159456632Y-39253475D01*
X159663475Y-39046632D01*
X159825990Y-38803411D01*
X159937932Y-38533158D01*
X159995000Y-38246260D01*
X159995000Y-37953740D01*
X159937932Y-37666842D01*
X159825990Y-37396589D01*
X159728043Y-37250000D01*
X162081928Y-37250000D01*
X162081928Y-38950000D01*
X162094188Y-39074482D01*
X162130498Y-39194180D01*
X162189463Y-39304494D01*
X162268815Y-39401185D01*
X162365506Y-39480537D01*
X162475820Y-39539502D01*
X162595518Y-39575812D01*
X162720000Y-39588072D01*
X164420000Y-39588072D01*
X164544482Y-39575812D01*
X164664180Y-39539502D01*
X164774494Y-39480537D01*
X164871185Y-39401185D01*
X164950537Y-39304494D01*
X165009502Y-39194180D01*
X165031513Y-39121620D01*
X165163368Y-39253475D01*
X165406589Y-39415990D01*
X165676842Y-39527932D01*
X165963740Y-39585000D01*
X166256260Y-39585000D01*
X166543158Y-39527932D01*
X166813411Y-39415990D01*
X167056632Y-39253475D01*
X167263475Y-39046632D01*
X167425990Y-38803411D01*
X167537932Y-38533158D01*
X167595000Y-38246260D01*
X167595000Y-37953740D01*
X167537932Y-37666842D01*
X167425990Y-37396589D01*
X167263475Y-37153368D01*
X167056632Y-36946525D01*
X166813411Y-36784010D01*
X166543158Y-36672068D01*
X166256260Y-36615000D01*
X165963740Y-36615000D01*
X165676842Y-36672068D01*
X165406589Y-36784010D01*
X165163368Y-36946525D01*
X165031513Y-37078380D01*
X165009502Y-37005820D01*
X164950537Y-36895506D01*
X164871185Y-36798815D01*
X164774494Y-36719463D01*
X164664180Y-36660498D01*
X164544482Y-36624188D01*
X164420000Y-36611928D01*
X162720000Y-36611928D01*
X162595518Y-36624188D01*
X162475820Y-36660498D01*
X162365506Y-36719463D01*
X162268815Y-36798815D01*
X162189463Y-36895506D01*
X162130498Y-37005820D01*
X162094188Y-37125518D01*
X162081928Y-37250000D01*
X159728043Y-37250000D01*
X159663475Y-37153368D01*
X159456632Y-36946525D01*
X159213411Y-36784010D01*
X158943158Y-36672068D01*
X158656260Y-36615000D01*
X158363740Y-36615000D01*
X158076842Y-36672068D01*
X157806589Y-36784010D01*
X157563368Y-36946525D01*
X157356525Y-37153368D01*
X157240000Y-37327760D01*
X157123475Y-37153368D01*
X156916632Y-36946525D01*
X156673411Y-36784010D01*
X156403158Y-36672068D01*
X156116260Y-36615000D01*
X155823740Y-36615000D01*
X155536842Y-36672068D01*
X155266589Y-36784010D01*
X155023368Y-36946525D01*
X154816525Y-37153368D01*
X154700000Y-37327760D01*
X154583475Y-37153368D01*
X154376632Y-36946525D01*
X154133411Y-36784010D01*
X153863158Y-36672068D01*
X153576260Y-36615000D01*
X153283740Y-36615000D01*
X152996842Y-36672068D01*
X152726589Y-36784010D01*
X152483368Y-36946525D01*
X152276525Y-37153368D01*
X152160000Y-37327760D01*
X152043475Y-37153368D01*
X151836632Y-36946525D01*
X151593411Y-36784010D01*
X151323158Y-36672068D01*
X151036260Y-36615000D01*
X150743740Y-36615000D01*
X150456842Y-36672068D01*
X150186589Y-36784010D01*
X149943368Y-36946525D01*
X149736525Y-37153368D01*
X149620000Y-37327760D01*
X149503475Y-37153368D01*
X149296632Y-36946525D01*
X149053411Y-36784010D01*
X148783158Y-36672068D01*
X148496260Y-36615000D01*
X148203740Y-36615000D01*
X147916842Y-36672068D01*
X147646589Y-36784010D01*
X147403368Y-36946525D01*
X147196525Y-37153368D01*
X147080000Y-37327760D01*
X146963475Y-37153368D01*
X146756632Y-36946525D01*
X146513411Y-36784010D01*
X146243158Y-36672068D01*
X145956260Y-36615000D01*
X145663740Y-36615000D01*
X145376842Y-36672068D01*
X145106589Y-36784010D01*
X144863368Y-36946525D01*
X144656525Y-37153368D01*
X144540000Y-37327760D01*
X144423475Y-37153368D01*
X144216632Y-36946525D01*
X143973411Y-36784010D01*
X143703158Y-36672068D01*
X143416260Y-36615000D01*
X143123740Y-36615000D01*
X142836842Y-36672068D01*
X142566589Y-36784010D01*
X142323368Y-36946525D01*
X142116525Y-37153368D01*
X142000000Y-37327760D01*
X141883475Y-37153368D01*
X141676632Y-36946525D01*
X141433411Y-36784010D01*
X141163158Y-36672068D01*
X140876260Y-36615000D01*
X140583740Y-36615000D01*
X140296842Y-36672068D01*
X140026589Y-36784010D01*
X139783368Y-36946525D01*
X139576525Y-37153368D01*
X139460000Y-37327760D01*
X139343475Y-37153368D01*
X139136632Y-36946525D01*
X138893411Y-36784010D01*
X138623158Y-36672068D01*
X138336260Y-36615000D01*
X138043740Y-36615000D01*
X137756842Y-36672068D01*
X137486589Y-36784010D01*
X137243368Y-36946525D01*
X137036525Y-37153368D01*
X136920000Y-37327760D01*
X136803475Y-37153368D01*
X136596632Y-36946525D01*
X136353411Y-36784010D01*
X136083158Y-36672068D01*
X135796260Y-36615000D01*
X135503740Y-36615000D01*
X135216842Y-36672068D01*
X134946589Y-36784010D01*
X134703368Y-36946525D01*
X134496525Y-37153368D01*
X134380000Y-37327760D01*
X134263475Y-37153368D01*
X134056632Y-36946525D01*
X133813411Y-36784010D01*
X133543158Y-36672068D01*
X133256260Y-36615000D01*
X132963740Y-36615000D01*
X132676842Y-36672068D01*
X132406589Y-36784010D01*
X132163368Y-36946525D01*
X132031513Y-37078380D01*
X132009502Y-37005820D01*
X131950537Y-36895506D01*
X131871185Y-36798815D01*
X131774494Y-36719463D01*
X131664180Y-36660498D01*
X131544482Y-36624188D01*
X131420000Y-36611928D01*
X129720000Y-36611928D01*
X129595518Y-36624188D01*
X129475820Y-36660498D01*
X129365506Y-36719463D01*
X129268815Y-36798815D01*
X129189463Y-36895506D01*
X129130498Y-37005820D01*
X129094188Y-37125518D01*
X129081928Y-37250000D01*
X126708043Y-37250000D01*
X126643475Y-37153368D01*
X126436632Y-36946525D01*
X126193411Y-36784010D01*
X125923158Y-36672068D01*
X125636260Y-36615000D01*
X125343740Y-36615000D01*
X125056842Y-36672068D01*
X124786589Y-36784010D01*
X124543368Y-36946525D01*
X124336525Y-37153368D01*
X124220000Y-37327760D01*
X124103475Y-37153368D01*
X123896632Y-36946525D01*
X123653411Y-36784010D01*
X123383158Y-36672068D01*
X123096260Y-36615000D01*
X122803740Y-36615000D01*
X122516842Y-36672068D01*
X122246589Y-36784010D01*
X122003368Y-36946525D01*
X121796525Y-37153368D01*
X121680000Y-37327760D01*
X121563475Y-37153368D01*
X121356632Y-36946525D01*
X121113411Y-36784010D01*
X120843158Y-36672068D01*
X120556260Y-36615000D01*
X120263740Y-36615000D01*
X119976842Y-36672068D01*
X119706589Y-36784010D01*
X119463368Y-36946525D01*
X119331513Y-37078380D01*
X119309502Y-37005820D01*
X119250537Y-36895506D01*
X119171185Y-36798815D01*
X119074494Y-36719463D01*
X118964180Y-36660498D01*
X118844482Y-36624188D01*
X118720000Y-36611928D01*
X117020000Y-36611928D01*
X116895518Y-36624188D01*
X116775820Y-36660498D01*
X116665506Y-36719463D01*
X116568815Y-36798815D01*
X116489463Y-36895506D01*
X116430498Y-37005820D01*
X116394188Y-37125518D01*
X116381928Y-37250000D01*
X115010000Y-37250000D01*
X115010000Y-35134720D01*
X115043620Y-34791832D01*
X115133120Y-34495395D01*
X115278490Y-34221994D01*
X115474200Y-33982028D01*
X115712787Y-33784653D01*
X115985167Y-33637378D01*
X116280971Y-33545811D01*
X116621690Y-33510000D01*
X167465280Y-33510000D01*
X167808168Y-33543620D01*
G37*
X167808168Y-33543620D02*
X168104605Y-33633120D01*
X168378006Y-33778490D01*
X168617972Y-33974200D01*
X168815347Y-34212787D01*
X168962622Y-34485167D01*
X169054189Y-34780971D01*
X169090000Y-35121690D01*
X169090001Y-69065261D01*
X169056379Y-69408170D01*
X168966880Y-69704604D01*
X168821509Y-69978008D01*
X168625800Y-70217972D01*
X168387215Y-70415345D01*
X168114834Y-70562622D01*
X167819029Y-70654189D01*
X167478310Y-70690000D01*
X116634729Y-70690000D01*
X116291830Y-70656379D01*
X115995396Y-70566880D01*
X115721992Y-70421509D01*
X115482028Y-70225800D01*
X115284655Y-69987215D01*
X115137378Y-69714834D01*
X115045811Y-69419029D01*
X115010000Y-69078310D01*
X115010000Y-37250000D01*
X116381928Y-37250000D01*
X116381928Y-38950000D01*
X116394188Y-39074482D01*
X116430498Y-39194180D01*
X116489463Y-39304494D01*
X116568815Y-39401185D01*
X116665506Y-39480537D01*
X116775820Y-39539502D01*
X116895518Y-39575812D01*
X117020000Y-39588072D01*
X118720000Y-39588072D01*
X118844482Y-39575812D01*
X118964180Y-39539502D01*
X119074494Y-39480537D01*
X119171185Y-39401185D01*
X119250537Y-39304494D01*
X119309502Y-39194180D01*
X119331513Y-39121620D01*
X119463368Y-39253475D01*
X119706589Y-39415990D01*
X119976842Y-39527932D01*
X120263740Y-39585000D01*
X120556260Y-39585000D01*
X120843158Y-39527932D01*
X121113411Y-39415990D01*
X121356632Y-39253475D01*
X121563475Y-39046632D01*
X121680000Y-38872240D01*
X121796525Y-39046632D01*
X122003368Y-39253475D01*
X122246589Y-39415990D01*
X122516842Y-39527932D01*
X122803740Y-39585000D01*
X123096260Y-39585000D01*
X123383158Y-39527932D01*
X123653411Y-39415990D01*
X123896632Y-39253475D01*
X124103475Y-39046632D01*
X124220000Y-38872240D01*
X124336525Y-39046632D01*
X124543368Y-39253475D01*
X124786589Y-39415990D01*
X125056842Y-39527932D01*
X125343740Y-39585000D01*
X125636260Y-39585000D01*
X125923158Y-39527932D01*
X126193411Y-39415990D01*
X126436632Y-39253475D01*
X126643475Y-39046632D01*
X126805990Y-38803411D01*
X126917932Y-38533158D01*
X126975000Y-38246260D01*
X126975000Y-37953740D01*
X126917932Y-37666842D01*
X126805990Y-37396589D01*
X126708043Y-37250000D01*
X129081928Y-37250000D01*
X129081928Y-38950000D01*
X129094188Y-39074482D01*
X129130498Y-39194180D01*
X129189463Y-39304494D01*
X129268815Y-39401185D01*
X129365506Y-39480537D01*
X129475820Y-39539502D01*
X129595518Y-39575812D01*
X129720000Y-39588072D01*
X131420000Y-39588072D01*
X131544482Y-39575812D01*
X131664180Y-39539502D01*
X131774494Y-39480537D01*
X131871185Y-39401185D01*
X131950537Y-39304494D01*
X132009502Y-39194180D01*
X132031513Y-39121620D01*
X132163368Y-39253475D01*
X132406589Y-39415990D01*
X132676842Y-39527932D01*
X132963740Y-39585000D01*
X133256260Y-39585000D01*
X133543158Y-39527932D01*
X133813411Y-39415990D01*
X134056632Y-39253475D01*
X134263475Y-39046632D01*
X134380000Y-38872240D01*
X134496525Y-39046632D01*
X134703368Y-39253475D01*
X134946589Y-39415990D01*
X135216842Y-39527932D01*
X135503740Y-39585000D01*
X135796260Y-39585000D01*
X136083158Y-39527932D01*
X136353411Y-39415990D01*
X136596632Y-39253475D01*
X136803475Y-39046632D01*
X136920000Y-38872240D01*
X137036525Y-39046632D01*
X137243368Y-39253475D01*
X137486589Y-39415990D01*
X137544555Y-39440000D01*
X137237322Y-39440000D01*
X137199999Y-39436324D01*
X137162676Y-39440000D01*
X137162667Y-39440000D01*
X137051014Y-39450997D01*
X136907753Y-39494454D01*
X136775724Y-39565026D01*
X136659999Y-39659999D01*
X136636201Y-39688997D01*
X133868998Y-42456201D01*
X133840000Y-42479999D01*
X133816202Y-42508997D01*
X133816201Y-42508998D01*
X133745026Y-42595724D01*
X133674454Y-42727754D01*
X133654222Y-42794454D01*
X133632815Y-42865026D01*
X133630998Y-42871015D01*
X133616324Y-43020000D01*
X133620001Y-43057332D01*
X133620000Y-44568754D01*
X133521847Y-44634338D01*
X133334338Y-44821847D01*
X133187013Y-45042335D01*
X133085533Y-45287328D01*
X133033800Y-45547411D01*
X133033800Y-45812589D01*
X133085533Y-46072672D01*
X133187013Y-46317665D01*
X133334338Y-46538153D01*
X133521847Y-46725662D01*
X133742335Y-46872987D01*
X133928260Y-46950000D01*
X133742335Y-47027013D01*
X133521847Y-47174338D01*
X133334338Y-47361847D01*
X133187013Y-47582335D01*
X133110000Y-47768260D01*
X133032987Y-47582335D01*
X132885662Y-47361847D01*
X132698153Y-47174338D01*
X132477665Y-47027013D01*
X132232672Y-46925533D01*
X131972589Y-46873800D01*
X131707411Y-46873800D01*
X131447328Y-46925533D01*
X131202335Y-47027013D01*
X130981847Y-47174338D01*
X130794338Y-47361847D01*
X130647013Y-47582335D01*
X130545533Y-47827328D01*
X130493800Y-48087411D01*
X130493800Y-48352589D01*
X130545533Y-48612672D01*
X130647013Y-48857665D01*
X130794338Y-49078153D01*
X130981847Y-49265662D01*
X131202335Y-49412987D01*
X131388260Y-49490000D01*
X131202335Y-49567013D01*
X130981847Y-49714338D01*
X130794338Y-49901847D01*
X130647013Y-50122335D01*
X130545533Y-50367328D01*
X130493800Y-50627411D01*
X130493800Y-50892589D01*
X130545533Y-51152672D01*
X130647013Y-51397665D01*
X130794338Y-51618153D01*
X130981847Y-51805662D01*
X131202335Y-51952987D01*
X131388260Y-52030000D01*
X131202335Y-52107013D01*
X130981847Y-52254338D01*
X130794338Y-52441847D01*
X130647013Y-52662335D01*
X130545533Y-52907328D01*
X130493800Y-53167411D01*
X130493800Y-53432589D01*
X130545533Y-53692672D01*
X130647013Y-53937665D01*
X130794338Y-54158153D01*
X130981847Y-54345662D01*
X131202335Y-54492987D01*
X131388260Y-54570000D01*
X131202335Y-54647013D01*
X130981847Y-54794338D01*
X130794338Y-54981847D01*
X130647013Y-55202335D01*
X130545533Y-55447328D01*
X130493800Y-55707411D01*
X130493800Y-55972589D01*
X130545533Y-56232672D01*
X130647013Y-56477665D01*
X130794338Y-56698153D01*
X130981847Y-56885662D01*
X131202335Y-57032987D01*
X131388260Y-57110000D01*
X131202335Y-57187013D01*
X130981847Y-57334338D01*
X130794338Y-57521847D01*
X130647013Y-57742335D01*
X130545533Y-57987328D01*
X130493800Y-58247411D01*
X130493800Y-58512589D01*
X130545533Y-58772672D01*
X130647013Y-59017665D01*
X130794338Y-59238153D01*
X130981847Y-59425662D01*
X131202335Y-59572987D01*
X131388260Y-59650000D01*
X131202335Y-59727013D01*
X130981847Y-59874338D01*
X130794338Y-60061847D01*
X130647013Y-60282335D01*
X130545533Y-60527328D01*
X130493800Y-60787411D01*
X130493800Y-61052589D01*
X130545533Y-61312672D01*
X130647013Y-61557665D01*
X130794338Y-61778153D01*
X130981847Y-61965662D01*
X131202335Y-62112987D01*
X131388260Y-62190000D01*
X131202335Y-62267013D01*
X130981847Y-62414338D01*
X130794338Y-62601847D01*
X130647013Y-62822335D01*
X130545533Y-63067328D01*
X130493800Y-63327411D01*
X130493800Y-63592589D01*
X130545533Y-63852672D01*
X130647013Y-64097665D01*
X130794338Y-64318153D01*
X130981847Y-64505662D01*
X131202335Y-64652987D01*
X131447328Y-64754467D01*
X131707411Y-64806200D01*
X131972589Y-64806200D01*
X132232672Y-64754467D01*
X132477665Y-64652987D01*
X132698153Y-64505662D01*
X132885662Y-64318153D01*
X133032987Y-64097665D01*
X133110000Y-63911740D01*
X133187013Y-64097665D01*
X133334338Y-64318153D01*
X133521847Y-64505662D01*
X133742335Y-64652987D01*
X133928260Y-64730000D01*
X133742335Y-64807013D01*
X133521847Y-64954338D01*
X133334338Y-65141847D01*
X133187013Y-65362335D01*
X133085533Y-65607328D01*
X133033800Y-65867411D01*
X133033800Y-66132589D01*
X133085533Y-66392672D01*
X133187013Y-66637665D01*
X133334338Y-66858153D01*
X133521847Y-67045662D01*
X133742335Y-67192987D01*
X133987328Y-67294467D01*
X134247411Y-67346200D01*
X134512589Y-67346200D01*
X134772672Y-67294467D01*
X135017665Y-67192987D01*
X135238153Y-67045662D01*
X135425662Y-66858153D01*
X135572987Y-66637665D01*
X135650000Y-66451740D01*
X135727013Y-66637665D01*
X135874338Y-66858153D01*
X136061847Y-67045662D01*
X136282335Y-67192987D01*
X136527328Y-67294467D01*
X136787411Y-67346200D01*
X137052589Y-67346200D01*
X137312672Y-67294467D01*
X137557665Y-67192987D01*
X137778153Y-67045662D01*
X137965662Y-66858153D01*
X138112987Y-66637665D01*
X138190000Y-66451740D01*
X138267013Y-66637665D01*
X138414338Y-66858153D01*
X138601847Y-67045662D01*
X138822335Y-67192987D01*
X139067328Y-67294467D01*
X139327411Y-67346200D01*
X139592589Y-67346200D01*
X139852672Y-67294467D01*
X140097665Y-67192987D01*
X140318153Y-67045662D01*
X140505662Y-66858153D01*
X140650728Y-66641046D01*
X140650728Y-66711200D01*
X140662988Y-66835682D01*
X140699298Y-66955380D01*
X140758263Y-67065694D01*
X140837615Y-67162385D01*
X140934306Y-67241737D01*
X141044620Y-67300702D01*
X141164318Y-67337012D01*
X141288800Y-67349272D01*
X142711200Y-67349272D01*
X142835682Y-67337012D01*
X142955380Y-67300702D01*
X143065694Y-67241737D01*
X143162385Y-67162385D01*
X143241737Y-67065694D01*
X143300702Y-66955380D01*
X143337012Y-66835682D01*
X143349272Y-66711200D01*
X143349272Y-66641046D01*
X143494338Y-66858153D01*
X143681847Y-67045662D01*
X143902335Y-67192987D01*
X144147328Y-67294467D01*
X144407411Y-67346200D01*
X144672589Y-67346200D01*
X144932672Y-67294467D01*
X145177665Y-67192987D01*
X145398153Y-67045662D01*
X145585662Y-66858153D01*
X145732987Y-66637665D01*
X145810000Y-66451740D01*
X145887013Y-66637665D01*
X146034338Y-66858153D01*
X146221847Y-67045662D01*
X146442335Y-67192987D01*
X146687328Y-67294467D01*
X146947411Y-67346200D01*
X147212589Y-67346200D01*
X147472672Y-67294467D01*
X147717665Y-67192987D01*
X147938153Y-67045662D01*
X148125662Y-66858153D01*
X148272987Y-66637665D01*
X148350000Y-66451740D01*
X148427013Y-66637665D01*
X148574338Y-66858153D01*
X148761847Y-67045662D01*
X148982335Y-67192987D01*
X149227328Y-67294467D01*
X149487411Y-67346200D01*
X149752589Y-67346200D01*
X150012672Y-67294467D01*
X150257665Y-67192987D01*
X150478153Y-67045662D01*
X150665662Y-66858153D01*
X150812987Y-66637665D01*
X150914467Y-66392672D01*
X150966200Y-66132589D01*
X150966200Y-65867411D01*
X150914467Y-65607328D01*
X150812987Y-65362335D01*
X150665662Y-65141847D01*
X150478153Y-64954338D01*
X150257665Y-64807013D01*
X150071740Y-64730000D01*
X150257665Y-64652987D01*
X150478153Y-64505662D01*
X150665662Y-64318153D01*
X150812987Y-64097665D01*
X150890000Y-63911740D01*
X150967013Y-64097665D01*
X151114338Y-64318153D01*
X151301847Y-64505662D01*
X151522335Y-64652987D01*
X151767328Y-64754467D01*
X152027411Y-64806200D01*
X152292589Y-64806200D01*
X152552672Y-64754467D01*
X152797665Y-64652987D01*
X153018153Y-64505662D01*
X153205662Y-64318153D01*
X153352987Y-64097665D01*
X153454467Y-63852672D01*
X153506200Y-63592589D01*
X153506200Y-63327411D01*
X153454467Y-63067328D01*
X153352987Y-62822335D01*
X153205662Y-62601847D01*
X153018153Y-62414338D01*
X152797665Y-62267013D01*
X152611740Y-62190000D01*
X152797665Y-62112987D01*
X153018153Y-61965662D01*
X153205662Y-61778153D01*
X153352987Y-61557665D01*
X153454467Y-61312672D01*
X153506200Y-61052589D01*
X153506200Y-60787411D01*
X153454467Y-60527328D01*
X153352987Y-60282335D01*
X153205662Y-60061847D01*
X153018153Y-59874338D01*
X152797665Y-59727013D01*
X152611740Y-59650000D01*
X152797665Y-59572987D01*
X153018153Y-59425662D01*
X153205662Y-59238153D01*
X153352987Y-59017665D01*
X153454467Y-58772672D01*
X153506200Y-58512589D01*
X153506200Y-58247411D01*
X153454467Y-57987328D01*
X153352987Y-57742335D01*
X153205662Y-57521847D01*
X153018153Y-57334338D01*
X152797665Y-57187013D01*
X152611740Y-57110000D01*
X152797665Y-57032987D01*
X153018153Y-56885662D01*
X153205662Y-56698153D01*
X153352987Y-56477665D01*
X153454467Y-56232672D01*
X153506200Y-55972589D01*
X153506200Y-55707411D01*
X153454467Y-55447328D01*
X153352987Y-55202335D01*
X153205662Y-54981847D01*
X153018153Y-54794338D01*
X152797665Y-54647013D01*
X152611740Y-54570000D01*
X152797665Y-54492987D01*
X153018153Y-54345662D01*
X153205662Y-54158153D01*
X153352987Y-53937665D01*
X153454467Y-53692672D01*
X153506200Y-53432589D01*
X153506200Y-53167411D01*
X153454467Y-52907328D01*
X153352987Y-52662335D01*
X153205662Y-52441847D01*
X153018153Y-52254338D01*
X152797665Y-52107013D01*
X152611740Y-52030000D01*
X152797665Y-51952987D01*
X153018153Y-51805662D01*
X153205662Y-51618153D01*
X153352987Y-51397665D01*
X153454467Y-51152672D01*
X153506200Y-50892589D01*
X153506200Y-50627411D01*
X153454467Y-50367328D01*
X153352987Y-50122335D01*
X153205662Y-49901847D01*
X153018153Y-49714338D01*
X152797665Y-49567013D01*
X152611740Y-49490000D01*
X152797665Y-49412987D01*
X153018153Y-49265662D01*
X153205662Y-49078153D01*
X153352987Y-48857665D01*
X153454467Y-48612672D01*
X153506200Y-48352589D01*
X153506200Y-48087411D01*
X153454467Y-47827328D01*
X153352987Y-47582335D01*
X153205662Y-47361847D01*
X153018153Y-47174338D01*
X152797665Y-47027013D01*
X152552672Y-46925533D01*
X152292589Y-46873800D01*
X152027411Y-46873800D01*
X151767328Y-46925533D01*
X151522335Y-47027013D01*
X151301847Y-47174338D01*
X151114338Y-47361847D01*
X150967013Y-47582335D01*
X150890000Y-47768260D01*
X150812987Y-47582335D01*
X150665662Y-47361847D01*
X150478153Y-47174338D01*
X150257665Y-47027013D01*
X150071740Y-46950000D01*
X150257665Y-46872987D01*
X150478153Y-46725662D01*
X150665662Y-46538153D01*
X150812987Y-46317665D01*
X150914467Y-46072672D01*
X150966200Y-45812589D01*
X150966200Y-45547411D01*
X150914467Y-45287328D01*
X150812987Y-45042335D01*
X150665662Y-44821847D01*
X150478153Y-44634338D01*
X150257665Y-44487013D01*
X150012672Y-44385533D01*
X149752589Y-44333800D01*
X149487411Y-44333800D01*
X149227328Y-44385533D01*
X148982335Y-44487013D01*
X148761847Y-44634338D01*
X148574338Y-44821847D01*
X148427013Y-45042335D01*
X148350000Y-45228260D01*
X148272987Y-45042335D01*
X148125662Y-44821847D01*
X147938153Y-44634338D01*
X147717665Y-44487013D01*
X147472672Y-44385533D01*
X147212589Y-44333800D01*
X146947411Y-44333800D01*
X146687328Y-44385533D01*
X146442335Y-44487013D01*
X146221847Y-44634338D01*
X146034338Y-44821847D01*
X145887013Y-45042335D01*
X145810000Y-45228260D01*
X145732987Y-45042335D01*
X145585662Y-44821847D01*
X145398153Y-44634338D01*
X145177665Y-44487013D01*
X144932672Y-44385533D01*
X144672589Y-44333800D01*
X144407411Y-44333800D01*
X144147328Y-44385533D01*
X143902335Y-44487013D01*
X143681847Y-44634338D01*
X143494338Y-44821847D01*
X143347013Y-45042335D01*
X143270000Y-45228260D01*
X143192987Y-45042335D01*
X143045662Y-44821847D01*
X142858153Y-44634338D01*
X142637665Y-44487013D01*
X142392672Y-44385533D01*
X142132589Y-44333800D01*
X141867411Y-44333800D01*
X141607328Y-44385533D01*
X141362335Y-44487013D01*
X141141847Y-44634338D01*
X140954338Y-44821847D01*
X140807013Y-45042335D01*
X140730000Y-45228260D01*
X140652987Y-45042335D01*
X140505662Y-44821847D01*
X140318153Y-44634338D01*
X140097665Y-44487013D01*
X139852672Y-44385533D01*
X139632970Y-44341832D01*
X139714802Y-44260000D01*
X142912678Y-44260000D01*
X142950000Y-44263676D01*
X142987322Y-44260000D01*
X142987333Y-44260000D01*
X143098986Y-44249003D01*
X143242247Y-44205546D01*
X143374276Y-44134974D01*
X143490001Y-44040001D01*
X143513804Y-44010997D01*
X147983592Y-39541210D01*
X148203740Y-39585000D01*
X148496260Y-39585000D01*
X148783158Y-39527932D01*
X149053411Y-39415990D01*
X149296632Y-39253475D01*
X149503475Y-39046632D01*
X149620000Y-38872240D01*
X149736525Y-39046632D01*
X149943368Y-39253475D01*
X150186589Y-39415990D01*
X150456842Y-39527932D01*
X150743740Y-39585000D01*
X151036260Y-39585000D01*
X151323158Y-39527932D01*
X151593411Y-39415990D01*
X151836632Y-39253475D01*
X152043475Y-39046632D01*
X152160000Y-38872240D01*
X152276525Y-39046632D01*
X152483368Y-39253475D01*
X152726589Y-39415990D01*
X152996842Y-39527932D01*
X153283740Y-39585000D01*
X153576260Y-39585000D01*
X153863158Y-39527932D01*
X154133411Y-39415990D01*
X154376632Y-39253475D01*
X154583475Y-39046632D01*
X154700000Y-38872240D01*
X154816525Y-39046632D01*
X155023368Y-39253475D01*
X155266589Y-39415990D01*
X155536842Y-39527932D01*
X155823740Y-39585000D01*
X156116260Y-39585000D01*
X156403158Y-39527932D01*
X156673411Y-39415990D01*
X156916632Y-39253475D01*
X157123475Y-39046632D01*
X157240000Y-38872240D01*
X157356525Y-39046632D01*
X157563368Y-39253475D01*
X157806589Y-39415990D01*
X158076842Y-39527932D01*
X158363740Y-39585000D01*
X158656260Y-39585000D01*
X158943158Y-39527932D01*
X159213411Y-39415990D01*
X159456632Y-39253475D01*
X159663475Y-39046632D01*
X159825990Y-38803411D01*
X159937932Y-38533158D01*
X159995000Y-38246260D01*
X159995000Y-37953740D01*
X159937932Y-37666842D01*
X159825990Y-37396589D01*
X159728043Y-37250000D01*
X162081928Y-37250000D01*
X162081928Y-38950000D01*
X162094188Y-39074482D01*
X162130498Y-39194180D01*
X162189463Y-39304494D01*
X162268815Y-39401185D01*
X162365506Y-39480537D01*
X162475820Y-39539502D01*
X162595518Y-39575812D01*
X162720000Y-39588072D01*
X164420000Y-39588072D01*
X164544482Y-39575812D01*
X164664180Y-39539502D01*
X164774494Y-39480537D01*
X164871185Y-39401185D01*
X164950537Y-39304494D01*
X165009502Y-39194180D01*
X165031513Y-39121620D01*
X165163368Y-39253475D01*
X165406589Y-39415990D01*
X165676842Y-39527932D01*
X165963740Y-39585000D01*
X166256260Y-39585000D01*
X166543158Y-39527932D01*
X166813411Y-39415990D01*
X167056632Y-39253475D01*
X167263475Y-39046632D01*
X167425990Y-38803411D01*
X167537932Y-38533158D01*
X167595000Y-38246260D01*
X167595000Y-37953740D01*
X167537932Y-37666842D01*
X167425990Y-37396589D01*
X167263475Y-37153368D01*
X167056632Y-36946525D01*
X166813411Y-36784010D01*
X166543158Y-36672068D01*
X166256260Y-36615000D01*
X165963740Y-36615000D01*
X165676842Y-36672068D01*
X165406589Y-36784010D01*
X165163368Y-36946525D01*
X165031513Y-37078380D01*
X165009502Y-37005820D01*
X164950537Y-36895506D01*
X164871185Y-36798815D01*
X164774494Y-36719463D01*
X164664180Y-36660498D01*
X164544482Y-36624188D01*
X164420000Y-36611928D01*
X162720000Y-36611928D01*
X162595518Y-36624188D01*
X162475820Y-36660498D01*
X162365506Y-36719463D01*
X162268815Y-36798815D01*
X162189463Y-36895506D01*
X162130498Y-37005820D01*
X162094188Y-37125518D01*
X162081928Y-37250000D01*
X159728043Y-37250000D01*
X159663475Y-37153368D01*
X159456632Y-36946525D01*
X159213411Y-36784010D01*
X158943158Y-36672068D01*
X158656260Y-36615000D01*
X158363740Y-36615000D01*
X158076842Y-36672068D01*
X157806589Y-36784010D01*
X157563368Y-36946525D01*
X157356525Y-37153368D01*
X157240000Y-37327760D01*
X157123475Y-37153368D01*
X156916632Y-36946525D01*
X156673411Y-36784010D01*
X156403158Y-36672068D01*
X156116260Y-36615000D01*
X155823740Y-36615000D01*
X155536842Y-36672068D01*
X155266589Y-36784010D01*
X155023368Y-36946525D01*
X154816525Y-37153368D01*
X154700000Y-37327760D01*
X154583475Y-37153368D01*
X154376632Y-36946525D01*
X154133411Y-36784010D01*
X153863158Y-36672068D01*
X153576260Y-36615000D01*
X153283740Y-36615000D01*
X152996842Y-36672068D01*
X152726589Y-36784010D01*
X152483368Y-36946525D01*
X152276525Y-37153368D01*
X152160000Y-37327760D01*
X152043475Y-37153368D01*
X151836632Y-36946525D01*
X151593411Y-36784010D01*
X151323158Y-36672068D01*
X151036260Y-36615000D01*
X150743740Y-36615000D01*
X150456842Y-36672068D01*
X150186589Y-36784010D01*
X149943368Y-36946525D01*
X149736525Y-37153368D01*
X149620000Y-37327760D01*
X149503475Y-37153368D01*
X149296632Y-36946525D01*
X149053411Y-36784010D01*
X148783158Y-36672068D01*
X148496260Y-36615000D01*
X148203740Y-36615000D01*
X147916842Y-36672068D01*
X147646589Y-36784010D01*
X147403368Y-36946525D01*
X147196525Y-37153368D01*
X147080000Y-37327760D01*
X146963475Y-37153368D01*
X146756632Y-36946525D01*
X146513411Y-36784010D01*
X146243158Y-36672068D01*
X145956260Y-36615000D01*
X145663740Y-36615000D01*
X145376842Y-36672068D01*
X145106589Y-36784010D01*
X144863368Y-36946525D01*
X144656525Y-37153368D01*
X144540000Y-37327760D01*
X144423475Y-37153368D01*
X144216632Y-36946525D01*
X143973411Y-36784010D01*
X143703158Y-36672068D01*
X143416260Y-36615000D01*
X143123740Y-36615000D01*
X142836842Y-36672068D01*
X142566589Y-36784010D01*
X142323368Y-36946525D01*
X142116525Y-37153368D01*
X142000000Y-37327760D01*
X141883475Y-37153368D01*
X141676632Y-36946525D01*
X141433411Y-36784010D01*
X141163158Y-36672068D01*
X140876260Y-36615000D01*
X140583740Y-36615000D01*
X140296842Y-36672068D01*
X140026589Y-36784010D01*
X139783368Y-36946525D01*
X139576525Y-37153368D01*
X139460000Y-37327760D01*
X139343475Y-37153368D01*
X139136632Y-36946525D01*
X138893411Y-36784010D01*
X138623158Y-36672068D01*
X138336260Y-36615000D01*
X138043740Y-36615000D01*
X137756842Y-36672068D01*
X137486589Y-36784010D01*
X137243368Y-36946525D01*
X137036525Y-37153368D01*
X136920000Y-37327760D01*
X136803475Y-37153368D01*
X136596632Y-36946525D01*
X136353411Y-36784010D01*
X136083158Y-36672068D01*
X135796260Y-36615000D01*
X135503740Y-36615000D01*
X135216842Y-36672068D01*
X134946589Y-36784010D01*
X134703368Y-36946525D01*
X134496525Y-37153368D01*
X134380000Y-37327760D01*
X134263475Y-37153368D01*
X134056632Y-36946525D01*
X133813411Y-36784010D01*
X133543158Y-36672068D01*
X133256260Y-36615000D01*
X132963740Y-36615000D01*
X132676842Y-36672068D01*
X132406589Y-36784010D01*
X132163368Y-36946525D01*
X132031513Y-37078380D01*
X132009502Y-37005820D01*
X131950537Y-36895506D01*
X131871185Y-36798815D01*
X131774494Y-36719463D01*
X131664180Y-36660498D01*
X131544482Y-36624188D01*
X131420000Y-36611928D01*
X129720000Y-36611928D01*
X129595518Y-36624188D01*
X129475820Y-36660498D01*
X129365506Y-36719463D01*
X129268815Y-36798815D01*
X129189463Y-36895506D01*
X129130498Y-37005820D01*
X129094188Y-37125518D01*
X129081928Y-37250000D01*
X126708043Y-37250000D01*
X126643475Y-37153368D01*
X126436632Y-36946525D01*
X126193411Y-36784010D01*
X125923158Y-36672068D01*
X125636260Y-36615000D01*
X125343740Y-36615000D01*
X125056842Y-36672068D01*
X124786589Y-36784010D01*
X124543368Y-36946525D01*
X124336525Y-37153368D01*
X124220000Y-37327760D01*
X124103475Y-37153368D01*
X123896632Y-36946525D01*
X123653411Y-36784010D01*
X123383158Y-36672068D01*
X123096260Y-36615000D01*
X122803740Y-36615000D01*
X122516842Y-36672068D01*
X122246589Y-36784010D01*
X122003368Y-36946525D01*
X121796525Y-37153368D01*
X121680000Y-37327760D01*
X121563475Y-37153368D01*
X121356632Y-36946525D01*
X121113411Y-36784010D01*
X120843158Y-36672068D01*
X120556260Y-36615000D01*
X120263740Y-36615000D01*
X119976842Y-36672068D01*
X119706589Y-36784010D01*
X119463368Y-36946525D01*
X119331513Y-37078380D01*
X119309502Y-37005820D01*
X119250537Y-36895506D01*
X119171185Y-36798815D01*
X119074494Y-36719463D01*
X118964180Y-36660498D01*
X118844482Y-36624188D01*
X118720000Y-36611928D01*
X117020000Y-36611928D01*
X116895518Y-36624188D01*
X116775820Y-36660498D01*
X116665506Y-36719463D01*
X116568815Y-36798815D01*
X116489463Y-36895506D01*
X116430498Y-37005820D01*
X116394188Y-37125518D01*
X116381928Y-37250000D01*
X115010000Y-37250000D01*
X115010000Y-35134720D01*
X115043620Y-34791832D01*
X115133120Y-34495395D01*
X115278490Y-34221994D01*
X115474200Y-33982028D01*
X115712787Y-33784653D01*
X115985167Y-33637378D01*
X116280971Y-33545811D01*
X116621690Y-33510000D01*
X167465280Y-33510000D01*
X167808168Y-33543620D01*
G36*
X148427013Y-64097665D02*
G01*
X148574338Y-64318153D01*
X148761847Y-64505662D01*
X148982335Y-64652987D01*
X149168260Y-64730000D01*
X148982335Y-64807013D01*
X148761847Y-64954338D01*
X148574338Y-65141847D01*
X148427013Y-65362335D01*
X148350000Y-65548260D01*
X148272987Y-65362335D01*
X148125662Y-65141847D01*
X147938153Y-64954338D01*
X147717665Y-64807013D01*
X147531740Y-64730000D01*
X147717665Y-64652987D01*
X147938153Y-64505662D01*
X148125662Y-64318153D01*
X148272987Y-64097665D01*
X148350000Y-63911740D01*
X148427013Y-64097665D01*
G37*
X148427013Y-64097665D02*
X148574338Y-64318153D01*
X148761847Y-64505662D01*
X148982335Y-64652987D01*
X149168260Y-64730000D01*
X148982335Y-64807013D01*
X148761847Y-64954338D01*
X148574338Y-65141847D01*
X148427013Y-65362335D01*
X148350000Y-65548260D01*
X148272987Y-65362335D01*
X148125662Y-65141847D01*
X147938153Y-64954338D01*
X147717665Y-64807013D01*
X147531740Y-64730000D01*
X147717665Y-64652987D01*
X147938153Y-64505662D01*
X148125662Y-64318153D01*
X148272987Y-64097665D01*
X148350000Y-63911740D01*
X148427013Y-64097665D01*
G36*
X135727013Y-64097665D02*
G01*
X135874338Y-64318153D01*
X136061847Y-64505662D01*
X136282335Y-64652987D01*
X136468260Y-64730000D01*
X136282335Y-64807013D01*
X136061847Y-64954338D01*
X135874338Y-65141847D01*
X135727013Y-65362335D01*
X135650000Y-65548260D01*
X135572987Y-65362335D01*
X135425662Y-65141847D01*
X135238153Y-64954338D01*
X135017665Y-64807013D01*
X134831740Y-64730000D01*
X135017665Y-64652987D01*
X135238153Y-64505662D01*
X135425662Y-64318153D01*
X135572987Y-64097665D01*
X135650000Y-63911740D01*
X135727013Y-64097665D01*
G37*
X135727013Y-64097665D02*
X135874338Y-64318153D01*
X136061847Y-64505662D01*
X136282335Y-64652987D01*
X136468260Y-64730000D01*
X136282335Y-64807013D01*
X136061847Y-64954338D01*
X135874338Y-65141847D01*
X135727013Y-65362335D01*
X135650000Y-65548260D01*
X135572987Y-65362335D01*
X135425662Y-65141847D01*
X135238153Y-64954338D01*
X135017665Y-64807013D01*
X134831740Y-64730000D01*
X135017665Y-64652987D01*
X135238153Y-64505662D01*
X135425662Y-64318153D01*
X135572987Y-64097665D01*
X135650000Y-63911740D01*
X135727013Y-64097665D01*
G36*
X138267013Y-64097665D02*
G01*
X138414338Y-64318153D01*
X138601847Y-64505662D01*
X138822335Y-64652987D01*
X139008260Y-64730000D01*
X138822335Y-64807013D01*
X138601847Y-64954338D01*
X138414338Y-65141847D01*
X138267013Y-65362335D01*
X138190000Y-65548260D01*
X138112987Y-65362335D01*
X137965662Y-65141847D01*
X137778153Y-64954338D01*
X137557665Y-64807013D01*
X137371740Y-64730000D01*
X137557665Y-64652987D01*
X137778153Y-64505662D01*
X137965662Y-64318153D01*
X138112987Y-64097665D01*
X138190000Y-63911740D01*
X138267013Y-64097665D01*
G37*
X138267013Y-64097665D02*
X138414338Y-64318153D01*
X138601847Y-64505662D01*
X138822335Y-64652987D01*
X139008260Y-64730000D01*
X138822335Y-64807013D01*
X138601847Y-64954338D01*
X138414338Y-65141847D01*
X138267013Y-65362335D01*
X138190000Y-65548260D01*
X138112987Y-65362335D01*
X137965662Y-65141847D01*
X137778153Y-64954338D01*
X137557665Y-64807013D01*
X137371740Y-64730000D01*
X137557665Y-64652987D01*
X137778153Y-64505662D01*
X137965662Y-64318153D01*
X138112987Y-64097665D01*
X138190000Y-63911740D01*
X138267013Y-64097665D01*
G36*
X145887013Y-64097665D02*
G01*
X146034338Y-64318153D01*
X146221847Y-64505662D01*
X146442335Y-64652987D01*
X146628260Y-64730000D01*
X146442335Y-64807013D01*
X146221847Y-64954338D01*
X146034338Y-65141847D01*
X145887013Y-65362335D01*
X145810000Y-65548260D01*
X145732987Y-65362335D01*
X145585662Y-65141847D01*
X145398153Y-64954338D01*
X145177665Y-64807013D01*
X144991740Y-64730000D01*
X145177665Y-64652987D01*
X145398153Y-64505662D01*
X145585662Y-64318153D01*
X145732987Y-64097665D01*
X145810000Y-63911740D01*
X145887013Y-64097665D01*
G37*
X145887013Y-64097665D02*
X146034338Y-64318153D01*
X146221847Y-64505662D01*
X146442335Y-64652987D01*
X146628260Y-64730000D01*
X146442335Y-64807013D01*
X146221847Y-64954338D01*
X146034338Y-65141847D01*
X145887013Y-65362335D01*
X145810000Y-65548260D01*
X145732987Y-65362335D01*
X145585662Y-65141847D01*
X145398153Y-64954338D01*
X145177665Y-64807013D01*
X144991740Y-64730000D01*
X145177665Y-64652987D01*
X145398153Y-64505662D01*
X145585662Y-64318153D01*
X145732987Y-64097665D01*
X145810000Y-63911740D01*
X145887013Y-64097665D01*
G36*
X143347013Y-64097665D02*
G01*
X143494338Y-64318153D01*
X143681847Y-64505662D01*
X143902335Y-64652987D01*
X144088260Y-64730000D01*
X143902335Y-64807013D01*
X143681847Y-64954338D01*
X143494338Y-65141847D01*
X143349272Y-65358954D01*
X143349272Y-65288800D01*
X143337012Y-65164318D01*
X143300702Y-65044620D01*
X143241737Y-64934306D01*
X143162385Y-64837615D01*
X143065694Y-64758263D01*
X142955380Y-64699298D01*
X142835682Y-64662988D01*
X142711200Y-64650728D01*
X142641046Y-64650728D01*
X142858153Y-64505662D01*
X143045662Y-64318153D01*
X143192987Y-64097665D01*
X143270000Y-63911740D01*
X143347013Y-64097665D01*
G37*
X143347013Y-64097665D02*
X143494338Y-64318153D01*
X143681847Y-64505662D01*
X143902335Y-64652987D01*
X144088260Y-64730000D01*
X143902335Y-64807013D01*
X143681847Y-64954338D01*
X143494338Y-65141847D01*
X143349272Y-65358954D01*
X143349272Y-65288800D01*
X143337012Y-65164318D01*
X143300702Y-65044620D01*
X143241737Y-64934306D01*
X143162385Y-64837615D01*
X143065694Y-64758263D01*
X142955380Y-64699298D01*
X142835682Y-64662988D01*
X142711200Y-64650728D01*
X142641046Y-64650728D01*
X142858153Y-64505662D01*
X143045662Y-64318153D01*
X143192987Y-64097665D01*
X143270000Y-63911740D01*
X143347013Y-64097665D01*
G36*
X140807013Y-64097665D02*
G01*
X140954338Y-64318153D01*
X141141847Y-64505662D01*
X141358954Y-64650728D01*
X141288800Y-64650728D01*
X141164318Y-64662988D01*
X141044620Y-64699298D01*
X140934306Y-64758263D01*
X140837615Y-64837615D01*
X140758263Y-64934306D01*
X140699298Y-65044620D01*
X140662988Y-65164318D01*
X140650728Y-65288800D01*
X140650728Y-65358954D01*
X140505662Y-65141847D01*
X140318153Y-64954338D01*
X140097665Y-64807013D01*
X139911740Y-64730000D01*
X140097665Y-64652987D01*
X140318153Y-64505662D01*
X140505662Y-64318153D01*
X140652987Y-64097665D01*
X140730000Y-63911740D01*
X140807013Y-64097665D01*
G37*
X140807013Y-64097665D02*
X140954338Y-64318153D01*
X141141847Y-64505662D01*
X141358954Y-64650728D01*
X141288800Y-64650728D01*
X141164318Y-64662988D01*
X141044620Y-64699298D01*
X140934306Y-64758263D01*
X140837615Y-64837615D01*
X140758263Y-64934306D01*
X140699298Y-65044620D01*
X140662988Y-65164318D01*
X140650728Y-65288800D01*
X140650728Y-65358954D01*
X140505662Y-65141847D01*
X140318153Y-64954338D01*
X140097665Y-64807013D01*
X139911740Y-64730000D01*
X140097665Y-64652987D01*
X140318153Y-64505662D01*
X140505662Y-64318153D01*
X140652987Y-64097665D01*
X140730000Y-63911740D01*
X140807013Y-64097665D01*
G36*
X148427013Y-48857665D02*
G01*
X148574338Y-49078153D01*
X148761847Y-49265662D01*
X148982335Y-49412987D01*
X149168260Y-49490000D01*
X148982335Y-49567013D01*
X148761847Y-49714338D01*
X148574338Y-49901847D01*
X148427013Y-50122335D01*
X148325533Y-50367328D01*
X148273800Y-50627411D01*
X148273800Y-50892589D01*
X148325533Y-51152672D01*
X148427013Y-51397665D01*
X148574338Y-51618153D01*
X148761847Y-51805662D01*
X148982335Y-51952987D01*
X149168260Y-52030000D01*
X148982335Y-52107013D01*
X148761847Y-52254338D01*
X148574338Y-52441847D01*
X148427013Y-52662335D01*
X148325533Y-52907328D01*
X148273800Y-53167411D01*
X148273800Y-53432589D01*
X148325533Y-53692672D01*
X148427013Y-53937665D01*
X148574338Y-54158153D01*
X148761847Y-54345662D01*
X148982335Y-54492987D01*
X149168260Y-54570000D01*
X148982335Y-54647013D01*
X148761847Y-54794338D01*
X148574338Y-54981847D01*
X148427013Y-55202335D01*
X148325533Y-55447328D01*
X148273800Y-55707411D01*
X148273800Y-55972589D01*
X148325533Y-56232672D01*
X148427013Y-56477665D01*
X148574338Y-56698153D01*
X148761847Y-56885662D01*
X148982335Y-57032987D01*
X149168260Y-57110000D01*
X148982335Y-57187013D01*
X148761847Y-57334338D01*
X148574338Y-57521847D01*
X148427013Y-57742335D01*
X148325533Y-57987328D01*
X148273800Y-58247411D01*
X148273800Y-58512589D01*
X148325533Y-58772672D01*
X148427013Y-59017665D01*
X148574338Y-59238153D01*
X148761847Y-59425662D01*
X148982335Y-59572987D01*
X149168260Y-59650000D01*
X148982335Y-59727013D01*
X148761847Y-59874338D01*
X148574338Y-60061847D01*
X148427013Y-60282335D01*
X148325533Y-60527328D01*
X148273800Y-60787411D01*
X148273800Y-61052589D01*
X148325533Y-61312672D01*
X148427013Y-61557665D01*
X148574338Y-61778153D01*
X148761847Y-61965662D01*
X148982335Y-62112987D01*
X149168260Y-62190000D01*
X148982335Y-62267013D01*
X148761847Y-62414338D01*
X148574338Y-62601847D01*
X148427013Y-62822335D01*
X148350000Y-63008260D01*
X148272987Y-62822335D01*
X148125662Y-62601847D01*
X147938153Y-62414338D01*
X147717665Y-62267013D01*
X147472672Y-62165533D01*
X147212589Y-62113800D01*
X146947411Y-62113800D01*
X146687328Y-62165533D01*
X146442335Y-62267013D01*
X146221847Y-62414338D01*
X146034338Y-62601847D01*
X145887013Y-62822335D01*
X145810000Y-63008260D01*
X145732987Y-62822335D01*
X145585662Y-62601847D01*
X145398153Y-62414338D01*
X145177665Y-62267013D01*
X144932672Y-62165533D01*
X144672589Y-62113800D01*
X144407411Y-62113800D01*
X144147328Y-62165533D01*
X143902335Y-62267013D01*
X143681847Y-62414338D01*
X143494338Y-62601847D01*
X143347013Y-62822335D01*
X143270000Y-63008260D01*
X143192987Y-62822335D01*
X143045662Y-62601847D01*
X142858153Y-62414338D01*
X142637665Y-62267013D01*
X142392672Y-62165533D01*
X142132589Y-62113800D01*
X141867411Y-62113800D01*
X141607328Y-62165533D01*
X141362335Y-62267013D01*
X141141847Y-62414338D01*
X140954338Y-62601847D01*
X140807013Y-62822335D01*
X140730000Y-63008260D01*
X140652987Y-62822335D01*
X140505662Y-62601847D01*
X140318153Y-62414338D01*
X140097665Y-62267013D01*
X139852672Y-62165533D01*
X139592589Y-62113800D01*
X139327411Y-62113800D01*
X139067328Y-62165533D01*
X138822335Y-62267013D01*
X138601847Y-62414338D01*
X138414338Y-62601847D01*
X138267013Y-62822335D01*
X138190000Y-63008260D01*
X138112987Y-62822335D01*
X137965662Y-62601847D01*
X137778153Y-62414338D01*
X137557665Y-62267013D01*
X137312672Y-62165533D01*
X137052589Y-62113800D01*
X136787411Y-62113800D01*
X136527328Y-62165533D01*
X136282335Y-62267013D01*
X136061847Y-62414338D01*
X135874338Y-62601847D01*
X135727013Y-62822335D01*
X135650000Y-63008260D01*
X135572987Y-62822335D01*
X135425662Y-62601847D01*
X135238153Y-62414338D01*
X135017665Y-62267013D01*
X134831740Y-62190000D01*
X135017665Y-62112987D01*
X135238153Y-61965662D01*
X135425662Y-61778153D01*
X135572987Y-61557665D01*
X135674467Y-61312672D01*
X135726200Y-61052589D01*
X135726200Y-60787411D01*
X135674467Y-60527328D01*
X135572987Y-60282335D01*
X135425662Y-60061847D01*
X135238153Y-59874338D01*
X135017665Y-59727013D01*
X134831740Y-59650000D01*
X135017665Y-59572987D01*
X135238153Y-59425662D01*
X135425662Y-59238153D01*
X135572987Y-59017665D01*
X135674467Y-58772672D01*
X135726200Y-58512589D01*
X135726200Y-58247411D01*
X135674467Y-57987328D01*
X135572987Y-57742335D01*
X135425662Y-57521847D01*
X135238153Y-57334338D01*
X135017665Y-57187013D01*
X134831740Y-57110000D01*
X135017665Y-57032987D01*
X135238153Y-56885662D01*
X135425662Y-56698153D01*
X135572987Y-56477665D01*
X135674467Y-56232672D01*
X135726200Y-55972589D01*
X135726200Y-55707411D01*
X135674467Y-55447328D01*
X135572987Y-55202335D01*
X135425662Y-54981847D01*
X135238153Y-54794338D01*
X135017665Y-54647013D01*
X134831740Y-54570000D01*
X135017665Y-54492987D01*
X135238153Y-54345662D01*
X135425662Y-54158153D01*
X135572987Y-53937665D01*
X135674467Y-53692672D01*
X135726200Y-53432589D01*
X135726200Y-53167411D01*
X135674467Y-52907328D01*
X135572987Y-52662335D01*
X135425662Y-52441847D01*
X135238153Y-52254338D01*
X135017665Y-52107013D01*
X134831740Y-52030000D01*
X135017665Y-51952987D01*
X135238153Y-51805662D01*
X135425662Y-51618153D01*
X135572987Y-51397665D01*
X135674467Y-51152672D01*
X135726200Y-50892589D01*
X135726200Y-50627411D01*
X135674467Y-50367328D01*
X135572987Y-50122335D01*
X135425662Y-49901847D01*
X135238153Y-49714338D01*
X135017665Y-49567013D01*
X134831740Y-49490000D01*
X135017665Y-49412987D01*
X135238153Y-49265662D01*
X135425662Y-49078153D01*
X135572987Y-48857665D01*
X135650000Y-48671740D01*
X135727013Y-48857665D01*
X135874338Y-49078153D01*
X136061847Y-49265662D01*
X136282335Y-49412987D01*
X136527328Y-49514467D01*
X136787411Y-49566200D01*
X137052589Y-49566200D01*
X137312672Y-49514467D01*
X137557665Y-49412987D01*
X137778153Y-49265662D01*
X137965662Y-49078153D01*
X138112987Y-48857665D01*
X138190000Y-48671740D01*
X138267013Y-48857665D01*
X138414338Y-49078153D01*
X138601847Y-49265662D01*
X138822335Y-49412987D01*
X139067328Y-49514467D01*
X139327411Y-49566200D01*
X139592589Y-49566200D01*
X139852672Y-49514467D01*
X140097665Y-49412987D01*
X140318153Y-49265662D01*
X140505662Y-49078153D01*
X140652987Y-48857665D01*
X140730000Y-48671740D01*
X140807013Y-48857665D01*
X140954338Y-49078153D01*
X141141847Y-49265662D01*
X141362335Y-49412987D01*
X141607328Y-49514467D01*
X141867411Y-49566200D01*
X142132589Y-49566200D01*
X142392672Y-49514467D01*
X142637665Y-49412987D01*
X142858153Y-49265662D01*
X143045662Y-49078153D01*
X143192987Y-48857665D01*
X143270000Y-48671740D01*
X143347013Y-48857665D01*
X143494338Y-49078153D01*
X143681847Y-49265662D01*
X143902335Y-49412987D01*
X144147328Y-49514467D01*
X144407411Y-49566200D01*
X144672589Y-49566200D01*
X144932672Y-49514467D01*
X145177665Y-49412987D01*
X145398153Y-49265662D01*
X145585662Y-49078153D01*
X145732987Y-48857665D01*
X145810000Y-48671740D01*
X145887013Y-48857665D01*
X146034338Y-49078153D01*
X146221847Y-49265662D01*
X146442335Y-49412987D01*
X146687328Y-49514467D01*
X146947411Y-49566200D01*
X147212589Y-49566200D01*
X147472672Y-49514467D01*
X147717665Y-49412987D01*
X147938153Y-49265662D01*
X148125662Y-49078153D01*
X148272987Y-48857665D01*
X148350000Y-48671740D01*
X148427013Y-48857665D01*
G37*
X148427013Y-48857665D02*
X148574338Y-49078153D01*
X148761847Y-49265662D01*
X148982335Y-49412987D01*
X149168260Y-49490000D01*
X148982335Y-49567013D01*
X148761847Y-49714338D01*
X148574338Y-49901847D01*
X148427013Y-50122335D01*
X148325533Y-50367328D01*
X148273800Y-50627411D01*
X148273800Y-50892589D01*
X148325533Y-51152672D01*
X148427013Y-51397665D01*
X148574338Y-51618153D01*
X148761847Y-51805662D01*
X148982335Y-51952987D01*
X149168260Y-52030000D01*
X148982335Y-52107013D01*
X148761847Y-52254338D01*
X148574338Y-52441847D01*
X148427013Y-52662335D01*
X148325533Y-52907328D01*
X148273800Y-53167411D01*
X148273800Y-53432589D01*
X148325533Y-53692672D01*
X148427013Y-53937665D01*
X148574338Y-54158153D01*
X148761847Y-54345662D01*
X148982335Y-54492987D01*
X149168260Y-54570000D01*
X148982335Y-54647013D01*
X148761847Y-54794338D01*
X148574338Y-54981847D01*
X148427013Y-55202335D01*
X148325533Y-55447328D01*
X148273800Y-55707411D01*
X148273800Y-55972589D01*
X148325533Y-56232672D01*
X148427013Y-56477665D01*
X148574338Y-56698153D01*
X148761847Y-56885662D01*
X148982335Y-57032987D01*
X149168260Y-57110000D01*
X148982335Y-57187013D01*
X148761847Y-57334338D01*
X148574338Y-57521847D01*
X148427013Y-57742335D01*
X148325533Y-57987328D01*
X148273800Y-58247411D01*
X148273800Y-58512589D01*
X148325533Y-58772672D01*
X148427013Y-59017665D01*
X148574338Y-59238153D01*
X148761847Y-59425662D01*
X148982335Y-59572987D01*
X149168260Y-59650000D01*
X148982335Y-59727013D01*
X148761847Y-59874338D01*
X148574338Y-60061847D01*
X148427013Y-60282335D01*
X148325533Y-60527328D01*
X148273800Y-60787411D01*
X148273800Y-61052589D01*
X148325533Y-61312672D01*
X148427013Y-61557665D01*
X148574338Y-61778153D01*
X148761847Y-61965662D01*
X148982335Y-62112987D01*
X149168260Y-62190000D01*
X148982335Y-62267013D01*
X148761847Y-62414338D01*
X148574338Y-62601847D01*
X148427013Y-62822335D01*
X148350000Y-63008260D01*
X148272987Y-62822335D01*
X148125662Y-62601847D01*
X147938153Y-62414338D01*
X147717665Y-62267013D01*
X147472672Y-62165533D01*
X147212589Y-62113800D01*
X146947411Y-62113800D01*
X146687328Y-62165533D01*
X146442335Y-62267013D01*
X146221847Y-62414338D01*
X146034338Y-62601847D01*
X145887013Y-62822335D01*
X145810000Y-63008260D01*
X145732987Y-62822335D01*
X145585662Y-62601847D01*
X145398153Y-62414338D01*
X145177665Y-62267013D01*
X144932672Y-62165533D01*
X144672589Y-62113800D01*
X144407411Y-62113800D01*
X144147328Y-62165533D01*
X143902335Y-62267013D01*
X143681847Y-62414338D01*
X143494338Y-62601847D01*
X143347013Y-62822335D01*
X143270000Y-63008260D01*
X143192987Y-62822335D01*
X143045662Y-62601847D01*
X142858153Y-62414338D01*
X142637665Y-62267013D01*
X142392672Y-62165533D01*
X142132589Y-62113800D01*
X141867411Y-62113800D01*
X141607328Y-62165533D01*
X141362335Y-62267013D01*
X141141847Y-62414338D01*
X140954338Y-62601847D01*
X140807013Y-62822335D01*
X140730000Y-63008260D01*
X140652987Y-62822335D01*
X140505662Y-62601847D01*
X140318153Y-62414338D01*
X140097665Y-62267013D01*
X139852672Y-62165533D01*
X139592589Y-62113800D01*
X139327411Y-62113800D01*
X139067328Y-62165533D01*
X138822335Y-62267013D01*
X138601847Y-62414338D01*
X138414338Y-62601847D01*
X138267013Y-62822335D01*
X138190000Y-63008260D01*
X138112987Y-62822335D01*
X137965662Y-62601847D01*
X137778153Y-62414338D01*
X137557665Y-62267013D01*
X137312672Y-62165533D01*
X137052589Y-62113800D01*
X136787411Y-62113800D01*
X136527328Y-62165533D01*
X136282335Y-62267013D01*
X136061847Y-62414338D01*
X135874338Y-62601847D01*
X135727013Y-62822335D01*
X135650000Y-63008260D01*
X135572987Y-62822335D01*
X135425662Y-62601847D01*
X135238153Y-62414338D01*
X135017665Y-62267013D01*
X134831740Y-62190000D01*
X135017665Y-62112987D01*
X135238153Y-61965662D01*
X135425662Y-61778153D01*
X135572987Y-61557665D01*
X135674467Y-61312672D01*
X135726200Y-61052589D01*
X135726200Y-60787411D01*
X135674467Y-60527328D01*
X135572987Y-60282335D01*
X135425662Y-60061847D01*
X135238153Y-59874338D01*
X135017665Y-59727013D01*
X134831740Y-59650000D01*
X135017665Y-59572987D01*
X135238153Y-59425662D01*
X135425662Y-59238153D01*
X135572987Y-59017665D01*
X135674467Y-58772672D01*
X135726200Y-58512589D01*
X135726200Y-58247411D01*
X135674467Y-57987328D01*
X135572987Y-57742335D01*
X135425662Y-57521847D01*
X135238153Y-57334338D01*
X135017665Y-57187013D01*
X134831740Y-57110000D01*
X135017665Y-57032987D01*
X135238153Y-56885662D01*
X135425662Y-56698153D01*
X135572987Y-56477665D01*
X135674467Y-56232672D01*
X135726200Y-55972589D01*
X135726200Y-55707411D01*
X135674467Y-55447328D01*
X135572987Y-55202335D01*
X135425662Y-54981847D01*
X135238153Y-54794338D01*
X135017665Y-54647013D01*
X134831740Y-54570000D01*
X135017665Y-54492987D01*
X135238153Y-54345662D01*
X135425662Y-54158153D01*
X135572987Y-53937665D01*
X135674467Y-53692672D01*
X135726200Y-53432589D01*
X135726200Y-53167411D01*
X135674467Y-52907328D01*
X135572987Y-52662335D01*
X135425662Y-52441847D01*
X135238153Y-52254338D01*
X135017665Y-52107013D01*
X134831740Y-52030000D01*
X135017665Y-51952987D01*
X135238153Y-51805662D01*
X135425662Y-51618153D01*
X135572987Y-51397665D01*
X135674467Y-51152672D01*
X135726200Y-50892589D01*
X135726200Y-50627411D01*
X135674467Y-50367328D01*
X135572987Y-50122335D01*
X135425662Y-49901847D01*
X135238153Y-49714338D01*
X135017665Y-49567013D01*
X134831740Y-49490000D01*
X135017665Y-49412987D01*
X135238153Y-49265662D01*
X135425662Y-49078153D01*
X135572987Y-48857665D01*
X135650000Y-48671740D01*
X135727013Y-48857665D01*
X135874338Y-49078153D01*
X136061847Y-49265662D01*
X136282335Y-49412987D01*
X136527328Y-49514467D01*
X136787411Y-49566200D01*
X137052589Y-49566200D01*
X137312672Y-49514467D01*
X137557665Y-49412987D01*
X137778153Y-49265662D01*
X137965662Y-49078153D01*
X138112987Y-48857665D01*
X138190000Y-48671740D01*
X138267013Y-48857665D01*
X138414338Y-49078153D01*
X138601847Y-49265662D01*
X138822335Y-49412987D01*
X139067328Y-49514467D01*
X139327411Y-49566200D01*
X139592589Y-49566200D01*
X139852672Y-49514467D01*
X140097665Y-49412987D01*
X140318153Y-49265662D01*
X140505662Y-49078153D01*
X140652987Y-48857665D01*
X140730000Y-48671740D01*
X140807013Y-48857665D01*
X140954338Y-49078153D01*
X141141847Y-49265662D01*
X141362335Y-49412987D01*
X141607328Y-49514467D01*
X141867411Y-49566200D01*
X142132589Y-49566200D01*
X142392672Y-49514467D01*
X142637665Y-49412987D01*
X142858153Y-49265662D01*
X143045662Y-49078153D01*
X143192987Y-48857665D01*
X143270000Y-48671740D01*
X143347013Y-48857665D01*
X143494338Y-49078153D01*
X143681847Y-49265662D01*
X143902335Y-49412987D01*
X144147328Y-49514467D01*
X144407411Y-49566200D01*
X144672589Y-49566200D01*
X144932672Y-49514467D01*
X145177665Y-49412987D01*
X145398153Y-49265662D01*
X145585662Y-49078153D01*
X145732987Y-48857665D01*
X145810000Y-48671740D01*
X145887013Y-48857665D01*
X146034338Y-49078153D01*
X146221847Y-49265662D01*
X146442335Y-49412987D01*
X146687328Y-49514467D01*
X146947411Y-49566200D01*
X147212589Y-49566200D01*
X147472672Y-49514467D01*
X147717665Y-49412987D01*
X147938153Y-49265662D01*
X148125662Y-49078153D01*
X148272987Y-48857665D01*
X148350000Y-48671740D01*
X148427013Y-48857665D01*
G36*
X133187013Y-61557665D02*
G01*
X133334338Y-61778153D01*
X133521847Y-61965662D01*
X133742335Y-62112987D01*
X133928260Y-62190000D01*
X133742335Y-62267013D01*
X133521847Y-62414338D01*
X133334338Y-62601847D01*
X133187013Y-62822335D01*
X133110000Y-63008260D01*
X133032987Y-62822335D01*
X132885662Y-62601847D01*
X132698153Y-62414338D01*
X132477665Y-62267013D01*
X132291740Y-62190000D01*
X132477665Y-62112987D01*
X132698153Y-61965662D01*
X132885662Y-61778153D01*
X133032987Y-61557665D01*
X133110000Y-61371740D01*
X133187013Y-61557665D01*
G37*
X133187013Y-61557665D02*
X133334338Y-61778153D01*
X133521847Y-61965662D01*
X133742335Y-62112987D01*
X133928260Y-62190000D01*
X133742335Y-62267013D01*
X133521847Y-62414338D01*
X133334338Y-62601847D01*
X133187013Y-62822335D01*
X133110000Y-63008260D01*
X133032987Y-62822335D01*
X132885662Y-62601847D01*
X132698153Y-62414338D01*
X132477665Y-62267013D01*
X132291740Y-62190000D01*
X132477665Y-62112987D01*
X132698153Y-61965662D01*
X132885662Y-61778153D01*
X133032987Y-61557665D01*
X133110000Y-61371740D01*
X133187013Y-61557665D01*
G36*
X150967013Y-61557665D02*
G01*
X151114338Y-61778153D01*
X151301847Y-61965662D01*
X151522335Y-62112987D01*
X151708260Y-62190000D01*
X151522335Y-62267013D01*
X151301847Y-62414338D01*
X151114338Y-62601847D01*
X150967013Y-62822335D01*
X150890000Y-63008260D01*
X150812987Y-62822335D01*
X150665662Y-62601847D01*
X150478153Y-62414338D01*
X150257665Y-62267013D01*
X150071740Y-62190000D01*
X150257665Y-62112987D01*
X150478153Y-61965662D01*
X150665662Y-61778153D01*
X150812987Y-61557665D01*
X150890000Y-61371740D01*
X150967013Y-61557665D01*
G37*
X150967013Y-61557665D02*
X151114338Y-61778153D01*
X151301847Y-61965662D01*
X151522335Y-62112987D01*
X151708260Y-62190000D01*
X151522335Y-62267013D01*
X151301847Y-62414338D01*
X151114338Y-62601847D01*
X150967013Y-62822335D01*
X150890000Y-63008260D01*
X150812987Y-62822335D01*
X150665662Y-62601847D01*
X150478153Y-62414338D01*
X150257665Y-62267013D01*
X150071740Y-62190000D01*
X150257665Y-62112987D01*
X150478153Y-61965662D01*
X150665662Y-61778153D01*
X150812987Y-61557665D01*
X150890000Y-61371740D01*
X150967013Y-61557665D01*
G36*
X133187013Y-59017665D02*
G01*
X133334338Y-59238153D01*
X133521847Y-59425662D01*
X133742335Y-59572987D01*
X133928260Y-59650000D01*
X133742335Y-59727013D01*
X133521847Y-59874338D01*
X133334338Y-60061847D01*
X133187013Y-60282335D01*
X133110000Y-60468260D01*
X133032987Y-60282335D01*
X132885662Y-60061847D01*
X132698153Y-59874338D01*
X132477665Y-59727013D01*
X132291740Y-59650000D01*
X132477665Y-59572987D01*
X132698153Y-59425662D01*
X132885662Y-59238153D01*
X133032987Y-59017665D01*
X133110000Y-58831740D01*
X133187013Y-59017665D01*
G37*
X133187013Y-59017665D02*
X133334338Y-59238153D01*
X133521847Y-59425662D01*
X133742335Y-59572987D01*
X133928260Y-59650000D01*
X133742335Y-59727013D01*
X133521847Y-59874338D01*
X133334338Y-60061847D01*
X133187013Y-60282335D01*
X133110000Y-60468260D01*
X133032987Y-60282335D01*
X132885662Y-60061847D01*
X132698153Y-59874338D01*
X132477665Y-59727013D01*
X132291740Y-59650000D01*
X132477665Y-59572987D01*
X132698153Y-59425662D01*
X132885662Y-59238153D01*
X133032987Y-59017665D01*
X133110000Y-58831740D01*
X133187013Y-59017665D01*
G36*
X150967013Y-59017665D02*
G01*
X151114338Y-59238153D01*
X151301847Y-59425662D01*
X151522335Y-59572987D01*
X151708260Y-59650000D01*
X151522335Y-59727013D01*
X151301847Y-59874338D01*
X151114338Y-60061847D01*
X150967013Y-60282335D01*
X150890000Y-60468260D01*
X150812987Y-60282335D01*
X150665662Y-60061847D01*
X150478153Y-59874338D01*
X150257665Y-59727013D01*
X150071740Y-59650000D01*
X150257665Y-59572987D01*
X150478153Y-59425662D01*
X150665662Y-59238153D01*
X150812987Y-59017665D01*
X150890000Y-58831740D01*
X150967013Y-59017665D01*
G37*
X150967013Y-59017665D02*
X151114338Y-59238153D01*
X151301847Y-59425662D01*
X151522335Y-59572987D01*
X151708260Y-59650000D01*
X151522335Y-59727013D01*
X151301847Y-59874338D01*
X151114338Y-60061847D01*
X150967013Y-60282335D01*
X150890000Y-60468260D01*
X150812987Y-60282335D01*
X150665662Y-60061847D01*
X150478153Y-59874338D01*
X150257665Y-59727013D01*
X150071740Y-59650000D01*
X150257665Y-59572987D01*
X150478153Y-59425662D01*
X150665662Y-59238153D01*
X150812987Y-59017665D01*
X150890000Y-58831740D01*
X150967013Y-59017665D01*
G36*
X150967013Y-56477665D02*
G01*
X151114338Y-56698153D01*
X151301847Y-56885662D01*
X151522335Y-57032987D01*
X151708260Y-57110000D01*
X151522335Y-57187013D01*
X151301847Y-57334338D01*
X151114338Y-57521847D01*
X150967013Y-57742335D01*
X150890000Y-57928260D01*
X150812987Y-57742335D01*
X150665662Y-57521847D01*
X150478153Y-57334338D01*
X150257665Y-57187013D01*
X150071740Y-57110000D01*
X150257665Y-57032987D01*
X150478153Y-56885662D01*
X150665662Y-56698153D01*
X150812987Y-56477665D01*
X150890000Y-56291740D01*
X150967013Y-56477665D01*
G37*
X150967013Y-56477665D02*
X151114338Y-56698153D01*
X151301847Y-56885662D01*
X151522335Y-57032987D01*
X151708260Y-57110000D01*
X151522335Y-57187013D01*
X151301847Y-57334338D01*
X151114338Y-57521847D01*
X150967013Y-57742335D01*
X150890000Y-57928260D01*
X150812987Y-57742335D01*
X150665662Y-57521847D01*
X150478153Y-57334338D01*
X150257665Y-57187013D01*
X150071740Y-57110000D01*
X150257665Y-57032987D01*
X150478153Y-56885662D01*
X150665662Y-56698153D01*
X150812987Y-56477665D01*
X150890000Y-56291740D01*
X150967013Y-56477665D01*
G36*
X133187013Y-56477665D02*
G01*
X133334338Y-56698153D01*
X133521847Y-56885662D01*
X133742335Y-57032987D01*
X133928260Y-57110000D01*
X133742335Y-57187013D01*
X133521847Y-57334338D01*
X133334338Y-57521847D01*
X133187013Y-57742335D01*
X133110000Y-57928260D01*
X133032987Y-57742335D01*
X132885662Y-57521847D01*
X132698153Y-57334338D01*
X132477665Y-57187013D01*
X132291740Y-57110000D01*
X132477665Y-57032987D01*
X132698153Y-56885662D01*
X132885662Y-56698153D01*
X133032987Y-56477665D01*
X133110000Y-56291740D01*
X133187013Y-56477665D01*
G37*
X133187013Y-56477665D02*
X133334338Y-56698153D01*
X133521847Y-56885662D01*
X133742335Y-57032987D01*
X133928260Y-57110000D01*
X133742335Y-57187013D01*
X133521847Y-57334338D01*
X133334338Y-57521847D01*
X133187013Y-57742335D01*
X133110000Y-57928260D01*
X133032987Y-57742335D01*
X132885662Y-57521847D01*
X132698153Y-57334338D01*
X132477665Y-57187013D01*
X132291740Y-57110000D01*
X132477665Y-57032987D01*
X132698153Y-56885662D01*
X132885662Y-56698153D01*
X133032987Y-56477665D01*
X133110000Y-56291740D01*
X133187013Y-56477665D01*
G36*
X150967013Y-53937665D02*
G01*
X151114338Y-54158153D01*
X151301847Y-54345662D01*
X151522335Y-54492987D01*
X151708260Y-54570000D01*
X151522335Y-54647013D01*
X151301847Y-54794338D01*
X151114338Y-54981847D01*
X150967013Y-55202335D01*
X150890000Y-55388260D01*
X150812987Y-55202335D01*
X150665662Y-54981847D01*
X150478153Y-54794338D01*
X150257665Y-54647013D01*
X150071740Y-54570000D01*
X150257665Y-54492987D01*
X150478153Y-54345662D01*
X150665662Y-54158153D01*
X150812987Y-53937665D01*
X150890000Y-53751740D01*
X150967013Y-53937665D01*
G37*
X150967013Y-53937665D02*
X151114338Y-54158153D01*
X151301847Y-54345662D01*
X151522335Y-54492987D01*
X151708260Y-54570000D01*
X151522335Y-54647013D01*
X151301847Y-54794338D01*
X151114338Y-54981847D01*
X150967013Y-55202335D01*
X150890000Y-55388260D01*
X150812987Y-55202335D01*
X150665662Y-54981847D01*
X150478153Y-54794338D01*
X150257665Y-54647013D01*
X150071740Y-54570000D01*
X150257665Y-54492987D01*
X150478153Y-54345662D01*
X150665662Y-54158153D01*
X150812987Y-53937665D01*
X150890000Y-53751740D01*
X150967013Y-53937665D01*
G36*
X133187013Y-53937665D02*
G01*
X133334338Y-54158153D01*
X133521847Y-54345662D01*
X133742335Y-54492987D01*
X133928260Y-54570000D01*
X133742335Y-54647013D01*
X133521847Y-54794338D01*
X133334338Y-54981847D01*
X133187013Y-55202335D01*
X133110000Y-55388260D01*
X133032987Y-55202335D01*
X132885662Y-54981847D01*
X132698153Y-54794338D01*
X132477665Y-54647013D01*
X132291740Y-54570000D01*
X132477665Y-54492987D01*
X132698153Y-54345662D01*
X132885662Y-54158153D01*
X133032987Y-53937665D01*
X133110000Y-53751740D01*
X133187013Y-53937665D01*
G37*
X133187013Y-53937665D02*
X133334338Y-54158153D01*
X133521847Y-54345662D01*
X133742335Y-54492987D01*
X133928260Y-54570000D01*
X133742335Y-54647013D01*
X133521847Y-54794338D01*
X133334338Y-54981847D01*
X133187013Y-55202335D01*
X133110000Y-55388260D01*
X133032987Y-55202335D01*
X132885662Y-54981847D01*
X132698153Y-54794338D01*
X132477665Y-54647013D01*
X132291740Y-54570000D01*
X132477665Y-54492987D01*
X132698153Y-54345662D01*
X132885662Y-54158153D01*
X133032987Y-53937665D01*
X133110000Y-53751740D01*
X133187013Y-53937665D01*
G36*
X150967013Y-51397665D02*
G01*
X151114338Y-51618153D01*
X151301847Y-51805662D01*
X151522335Y-51952987D01*
X151708260Y-52030000D01*
X151522335Y-52107013D01*
X151301847Y-52254338D01*
X151114338Y-52441847D01*
X150967013Y-52662335D01*
X150890000Y-52848260D01*
X150812987Y-52662335D01*
X150665662Y-52441847D01*
X150478153Y-52254338D01*
X150257665Y-52107013D01*
X150071740Y-52030000D01*
X150257665Y-51952987D01*
X150478153Y-51805662D01*
X150665662Y-51618153D01*
X150812987Y-51397665D01*
X150890000Y-51211740D01*
X150967013Y-51397665D01*
G37*
X150967013Y-51397665D02*
X151114338Y-51618153D01*
X151301847Y-51805662D01*
X151522335Y-51952987D01*
X151708260Y-52030000D01*
X151522335Y-52107013D01*
X151301847Y-52254338D01*
X151114338Y-52441847D01*
X150967013Y-52662335D01*
X150890000Y-52848260D01*
X150812987Y-52662335D01*
X150665662Y-52441847D01*
X150478153Y-52254338D01*
X150257665Y-52107013D01*
X150071740Y-52030000D01*
X150257665Y-51952987D01*
X150478153Y-51805662D01*
X150665662Y-51618153D01*
X150812987Y-51397665D01*
X150890000Y-51211740D01*
X150967013Y-51397665D01*
G36*
X133187013Y-51397665D02*
G01*
X133334338Y-51618153D01*
X133521847Y-51805662D01*
X133742335Y-51952987D01*
X133928260Y-52030000D01*
X133742335Y-52107013D01*
X133521847Y-52254338D01*
X133334338Y-52441847D01*
X133187013Y-52662335D01*
X133110000Y-52848260D01*
X133032987Y-52662335D01*
X132885662Y-52441847D01*
X132698153Y-52254338D01*
X132477665Y-52107013D01*
X132291740Y-52030000D01*
X132477665Y-51952987D01*
X132698153Y-51805662D01*
X132885662Y-51618153D01*
X133032987Y-51397665D01*
X133110000Y-51211740D01*
X133187013Y-51397665D01*
G37*
X133187013Y-51397665D02*
X133334338Y-51618153D01*
X133521847Y-51805662D01*
X133742335Y-51952987D01*
X133928260Y-52030000D01*
X133742335Y-52107013D01*
X133521847Y-52254338D01*
X133334338Y-52441847D01*
X133187013Y-52662335D01*
X133110000Y-52848260D01*
X133032987Y-52662335D01*
X132885662Y-52441847D01*
X132698153Y-52254338D01*
X132477665Y-52107013D01*
X132291740Y-52030000D01*
X132477665Y-51952987D01*
X132698153Y-51805662D01*
X132885662Y-51618153D01*
X133032987Y-51397665D01*
X133110000Y-51211740D01*
X133187013Y-51397665D01*
G36*
X133187013Y-48857665D02*
G01*
X133334338Y-49078153D01*
X133521847Y-49265662D01*
X133742335Y-49412987D01*
X133928260Y-49490000D01*
X133742335Y-49567013D01*
X133521847Y-49714338D01*
X133334338Y-49901847D01*
X133187013Y-50122335D01*
X133110000Y-50308260D01*
X133032987Y-50122335D01*
X132885662Y-49901847D01*
X132698153Y-49714338D01*
X132477665Y-49567013D01*
X132291740Y-49490000D01*
X132477665Y-49412987D01*
X132698153Y-49265662D01*
X132885662Y-49078153D01*
X133032987Y-48857665D01*
X133110000Y-48671740D01*
X133187013Y-48857665D01*
G37*
X133187013Y-48857665D02*
X133334338Y-49078153D01*
X133521847Y-49265662D01*
X133742335Y-49412987D01*
X133928260Y-49490000D01*
X133742335Y-49567013D01*
X133521847Y-49714338D01*
X133334338Y-49901847D01*
X133187013Y-50122335D01*
X133110000Y-50308260D01*
X133032987Y-50122335D01*
X132885662Y-49901847D01*
X132698153Y-49714338D01*
X132477665Y-49567013D01*
X132291740Y-49490000D01*
X132477665Y-49412987D01*
X132698153Y-49265662D01*
X132885662Y-49078153D01*
X133032987Y-48857665D01*
X133110000Y-48671740D01*
X133187013Y-48857665D01*
G36*
X150967013Y-48857665D02*
G01*
X151114338Y-49078153D01*
X151301847Y-49265662D01*
X151522335Y-49412987D01*
X151708260Y-49490000D01*
X151522335Y-49567013D01*
X151301847Y-49714338D01*
X151114338Y-49901847D01*
X150967013Y-50122335D01*
X150890000Y-50308260D01*
X150812987Y-50122335D01*
X150665662Y-49901847D01*
X150478153Y-49714338D01*
X150257665Y-49567013D01*
X150071740Y-49490000D01*
X150257665Y-49412987D01*
X150478153Y-49265662D01*
X150665662Y-49078153D01*
X150812987Y-48857665D01*
X150890000Y-48671740D01*
X150967013Y-48857665D01*
G37*
X150967013Y-48857665D02*
X151114338Y-49078153D01*
X151301847Y-49265662D01*
X151522335Y-49412987D01*
X151708260Y-49490000D01*
X151522335Y-49567013D01*
X151301847Y-49714338D01*
X151114338Y-49901847D01*
X150967013Y-50122335D01*
X150890000Y-50308260D01*
X150812987Y-50122335D01*
X150665662Y-49901847D01*
X150478153Y-49714338D01*
X150257665Y-49567013D01*
X150071740Y-49490000D01*
X150257665Y-49412987D01*
X150478153Y-49265662D01*
X150665662Y-49078153D01*
X150812987Y-48857665D01*
X150890000Y-48671740D01*
X150967013Y-48857665D01*
G36*
X145887013Y-46317665D02*
G01*
X146034338Y-46538153D01*
X146221847Y-46725662D01*
X146442335Y-46872987D01*
X146628260Y-46950000D01*
X146442335Y-47027013D01*
X146221847Y-47174338D01*
X146034338Y-47361847D01*
X145887013Y-47582335D01*
X145810000Y-47768260D01*
X145732987Y-47582335D01*
X145585662Y-47361847D01*
X145398153Y-47174338D01*
X145177665Y-47027013D01*
X144991740Y-46950000D01*
X145177665Y-46872987D01*
X145398153Y-46725662D01*
X145585662Y-46538153D01*
X145732987Y-46317665D01*
X145810000Y-46131740D01*
X145887013Y-46317665D01*
G37*
X145887013Y-46317665D02*
X146034338Y-46538153D01*
X146221847Y-46725662D01*
X146442335Y-46872987D01*
X146628260Y-46950000D01*
X146442335Y-47027013D01*
X146221847Y-47174338D01*
X146034338Y-47361847D01*
X145887013Y-47582335D01*
X145810000Y-47768260D01*
X145732987Y-47582335D01*
X145585662Y-47361847D01*
X145398153Y-47174338D01*
X145177665Y-47027013D01*
X144991740Y-46950000D01*
X145177665Y-46872987D01*
X145398153Y-46725662D01*
X145585662Y-46538153D01*
X145732987Y-46317665D01*
X145810000Y-46131740D01*
X145887013Y-46317665D01*
G36*
X140807013Y-46317665D02*
G01*
X140954338Y-46538153D01*
X141141847Y-46725662D01*
X141362335Y-46872987D01*
X141548260Y-46950000D01*
X141362335Y-47027013D01*
X141141847Y-47174338D01*
X140954338Y-47361847D01*
X140807013Y-47582335D01*
X140730000Y-47768260D01*
X140652987Y-47582335D01*
X140505662Y-47361847D01*
X140318153Y-47174338D01*
X140097665Y-47027013D01*
X139911740Y-46950000D01*
X140097665Y-46872987D01*
X140318153Y-46725662D01*
X140505662Y-46538153D01*
X140652987Y-46317665D01*
X140730000Y-46131740D01*
X140807013Y-46317665D01*
G37*
X140807013Y-46317665D02*
X140954338Y-46538153D01*
X141141847Y-46725662D01*
X141362335Y-46872987D01*
X141548260Y-46950000D01*
X141362335Y-47027013D01*
X141141847Y-47174338D01*
X140954338Y-47361847D01*
X140807013Y-47582335D01*
X140730000Y-47768260D01*
X140652987Y-47582335D01*
X140505662Y-47361847D01*
X140318153Y-47174338D01*
X140097665Y-47027013D01*
X139911740Y-46950000D01*
X140097665Y-46872987D01*
X140318153Y-46725662D01*
X140505662Y-46538153D01*
X140652987Y-46317665D01*
X140730000Y-46131740D01*
X140807013Y-46317665D01*
G36*
X148427013Y-46317665D02*
G01*
X148574338Y-46538153D01*
X148761847Y-46725662D01*
X148982335Y-46872987D01*
X149168260Y-46950000D01*
X148982335Y-47027013D01*
X148761847Y-47174338D01*
X148574338Y-47361847D01*
X148427013Y-47582335D01*
X148350000Y-47768260D01*
X148272987Y-47582335D01*
X148125662Y-47361847D01*
X147938153Y-47174338D01*
X147717665Y-47027013D01*
X147531740Y-46950000D01*
X147717665Y-46872987D01*
X147938153Y-46725662D01*
X148125662Y-46538153D01*
X148272987Y-46317665D01*
X148350000Y-46131740D01*
X148427013Y-46317665D01*
G37*
X148427013Y-46317665D02*
X148574338Y-46538153D01*
X148761847Y-46725662D01*
X148982335Y-46872987D01*
X149168260Y-46950000D01*
X148982335Y-47027013D01*
X148761847Y-47174338D01*
X148574338Y-47361847D01*
X148427013Y-47582335D01*
X148350000Y-47768260D01*
X148272987Y-47582335D01*
X148125662Y-47361847D01*
X147938153Y-47174338D01*
X147717665Y-47027013D01*
X147531740Y-46950000D01*
X147717665Y-46872987D01*
X147938153Y-46725662D01*
X148125662Y-46538153D01*
X148272987Y-46317665D01*
X148350000Y-46131740D01*
X148427013Y-46317665D01*
G36*
X143347013Y-46317665D02*
G01*
X143494338Y-46538153D01*
X143681847Y-46725662D01*
X143902335Y-46872987D01*
X144088260Y-46950000D01*
X143902335Y-47027013D01*
X143681847Y-47174338D01*
X143494338Y-47361847D01*
X143347013Y-47582335D01*
X143270000Y-47768260D01*
X143192987Y-47582335D01*
X143045662Y-47361847D01*
X142858153Y-47174338D01*
X142637665Y-47027013D01*
X142451740Y-46950000D01*
X142637665Y-46872987D01*
X142858153Y-46725662D01*
X143045662Y-46538153D01*
X143192987Y-46317665D01*
X143270000Y-46131740D01*
X143347013Y-46317665D01*
G37*
X143347013Y-46317665D02*
X143494338Y-46538153D01*
X143681847Y-46725662D01*
X143902335Y-46872987D01*
X144088260Y-46950000D01*
X143902335Y-47027013D01*
X143681847Y-47174338D01*
X143494338Y-47361847D01*
X143347013Y-47582335D01*
X143270000Y-47768260D01*
X143192987Y-47582335D01*
X143045662Y-47361847D01*
X142858153Y-47174338D01*
X142637665Y-47027013D01*
X142451740Y-46950000D01*
X142637665Y-46872987D01*
X142858153Y-46725662D01*
X143045662Y-46538153D01*
X143192987Y-46317665D01*
X143270000Y-46131740D01*
X143347013Y-46317665D01*
G36*
X136468260Y-46950000D02*
G01*
X136363045Y-46993582D01*
X136360000Y-46962667D01*
X136360000Y-46905157D01*
X136468260Y-46950000D01*
G37*
X136468260Y-46950000D02*
X136363045Y-46993582D01*
X136360000Y-46962667D01*
X136360000Y-46905157D01*
X136468260Y-46950000D01*
G36*
X139008260Y-46950000D02*
G01*
X138960753Y-46969678D01*
X138963676Y-46940001D01*
X138962806Y-46931173D01*
X139008260Y-46950000D01*
G37*
X139008260Y-46950000D02*
X138960753Y-46969678D01*
X138963676Y-46940001D01*
X138962806Y-46931173D01*
X139008260Y-46950000D01*
G36*
X145663740Y-39585000D02*
G01*
X145790198Y-39585000D01*
X142635199Y-42740000D01*
X142244801Y-42740000D01*
X145443592Y-39541210D01*
X145663740Y-39585000D01*
G37*
X145663740Y-39585000D02*
X145790198Y-39585000D01*
X142635199Y-42740000D01*
X142244801Y-42740000D01*
X145443592Y-39541210D01*
X145663740Y-39585000D01*
G36*
X143123740Y-39585000D02*
G01*
X143250198Y-39585000D01*
X141295199Y-41540000D01*
X140904801Y-41540000D01*
X142903592Y-39541210D01*
X143123740Y-39585000D01*
G37*
X143123740Y-39585000D02*
X143250198Y-39585000D01*
X141295199Y-41540000D01*
X140904801Y-41540000D01*
X142903592Y-39541210D01*
X143123740Y-39585000D01*
G36*
X140583740Y-39585000D02*
G01*
X140710199Y-39585000D01*
X139855199Y-40440000D01*
X139464801Y-40440000D01*
X140363593Y-39541210D01*
X140583740Y-39585000D01*
G37*
X140583740Y-39585000D02*
X140710199Y-39585000D01*
X139855199Y-40440000D01*
X139464801Y-40440000D01*
X140363593Y-39541210D01*
X140583740Y-39585000D01*
M02*
