M48
; DRILL file {KiCad (5.1.6)-1} date 06/26/21 13:41:20
; FORMAT={-:-/ absolute / metric / decimal}
; #@! TF.CreationDate,2021-06-26T13:41:20+03:00
; #@! TF.GenerationSoftware,Kicad,Pcbnew,(5.1.6)-1
; #@! TF.FileFunction,Plated,1,2,PTH
FMAT,2
METRIC
T1C0.800
T2C1.000
%
G90
G05
T1
X131.84Y-48.22
X131.84Y-50.76
X131.84Y-53.3
X131.84Y-55.84
X131.84Y-58.38
X131.84Y-60.92
X131.84Y-63.46
X134.38Y-45.68
X134.38Y-48.22
X134.38Y-50.76
X134.38Y-53.3
X134.38Y-55.84
X134.38Y-58.38
X134.38Y-60.92
X134.38Y-63.46
X134.38Y-66.0
X136.92Y-45.68
X136.92Y-48.22
X136.92Y-63.46
X136.92Y-66.0
X139.46Y-45.68
X139.46Y-48.22
X139.46Y-63.46
X139.46Y-66.0
X142.0Y-45.68
X142.0Y-48.22
X142.0Y-63.46
X142.0Y-66.0
X144.54Y-45.68
X144.54Y-48.22
X144.54Y-63.46
X144.54Y-66.0
X147.08Y-45.68
X147.08Y-48.22
X147.08Y-63.46
X147.08Y-66.0
X149.62Y-45.68
X149.62Y-48.22
X149.62Y-50.76
X149.62Y-53.3
X149.62Y-55.84
X149.62Y-58.38
X149.62Y-60.92
X149.62Y-63.46
X149.62Y-66.0
X152.16Y-48.22
X152.16Y-50.76
X152.16Y-53.3
X152.16Y-55.84
X152.16Y-58.38
X152.16Y-60.92
X152.16Y-63.46
T2
X117.87Y-38.1
X120.41Y-38.1
X122.95Y-38.1
X125.49Y-38.1
X130.57Y-38.1
X133.11Y-38.1
X135.65Y-38.1
X138.19Y-38.1
X140.73Y-38.1
X143.27Y-38.1
X145.81Y-38.1
X148.35Y-38.1
X150.89Y-38.1
X153.43Y-38.1
X155.97Y-38.1
X158.51Y-38.1
X163.57Y-38.1
X166.11Y-38.1
T0
M30
