G04 #@! TF.GenerationSoftware,KiCad,Pcbnew,(5.1.6)-1*
G04 #@! TF.CreationDate,2021-06-26T13:41:07+03:00*
G04 #@! TF.ProjectId,a600_rgb2hdmi,61363030-5f72-4676-9232-68646d692e6b,rev?*
G04 #@! TF.SameCoordinates,Original*
G04 #@! TF.FileFunction,Legend,Top*
G04 #@! TF.FilePolarity,Positive*
%FSLAX46Y46*%
G04 Gerber Fmt 4.6, Leading zero omitted, Abs format (unit mm)*
G04 Created by KiCad (PCBNEW (5.1.6)-1) date 2021-06-26 13:41:07*
%MOMM*%
%LPD*%
G01*
G04 APERTURE LIST*
%ADD10C,0.100000*%
%ADD11C,0.150000*%
%ADD12C,0.120000*%
%ADD13O,1.800000X1.800000*%
%ADD14R,1.800000X1.800000*%
%ADD15C,1.522400*%
%ADD16R,1.522400X1.522400*%
G04 APERTURE END LIST*
D10*
X147633333Y-44526190D02*
X147800000Y-45026190D01*
X147966666Y-44526190D01*
X148419047Y-44978571D02*
X148395238Y-45002380D01*
X148323809Y-45026190D01*
X148276190Y-45026190D01*
X148204761Y-45002380D01*
X148157142Y-44954761D01*
X148133333Y-44907142D01*
X148109523Y-44811904D01*
X148109523Y-44740476D01*
X148133333Y-44645238D01*
X148157142Y-44597619D01*
X148204761Y-44550000D01*
X148276190Y-44526190D01*
X148323809Y-44526190D01*
X148395238Y-44550000D01*
X148419047Y-44573809D01*
X148919047Y-44978571D02*
X148895238Y-45002380D01*
X148823809Y-45026190D01*
X148776190Y-45026190D01*
X148704761Y-45002380D01*
X148657142Y-44954761D01*
X148633333Y-44907142D01*
X148609523Y-44811904D01*
X148609523Y-44740476D01*
X148633333Y-44645238D01*
X148657142Y-44597619D01*
X148704761Y-44550000D01*
X148776190Y-44526190D01*
X148823809Y-44526190D01*
X148895238Y-44550000D01*
X148919047Y-44573809D01*
X145916666Y-47426190D02*
X145750000Y-47188095D01*
X145630952Y-47426190D02*
X145630952Y-46926190D01*
X145821428Y-46926190D01*
X145869047Y-46950000D01*
X145892857Y-46973809D01*
X145916666Y-47021428D01*
X145916666Y-47092857D01*
X145892857Y-47140476D01*
X145869047Y-47164285D01*
X145821428Y-47188095D01*
X145630952Y-47188095D01*
X146226190Y-46926190D02*
X146273809Y-46926190D01*
X146321428Y-46950000D01*
X146345238Y-46973809D01*
X146369047Y-47021428D01*
X146392857Y-47116666D01*
X146392857Y-47235714D01*
X146369047Y-47330952D01*
X146345238Y-47378571D01*
X146321428Y-47402380D01*
X146273809Y-47426190D01*
X146226190Y-47426190D01*
X146178571Y-47402380D01*
X146154761Y-47378571D01*
X146130952Y-47330952D01*
X146107142Y-47235714D01*
X146107142Y-47116666D01*
X146130952Y-47021428D01*
X146154761Y-46973809D01*
X146178571Y-46950000D01*
X146226190Y-46926190D01*
X145916666Y-44926190D02*
X145750000Y-44688095D01*
X145630952Y-44926190D02*
X145630952Y-44426190D01*
X145821428Y-44426190D01*
X145869047Y-44450000D01*
X145892857Y-44473809D01*
X145916666Y-44521428D01*
X145916666Y-44592857D01*
X145892857Y-44640476D01*
X145869047Y-44664285D01*
X145821428Y-44688095D01*
X145630952Y-44688095D01*
X146392857Y-44926190D02*
X146107142Y-44926190D01*
X146250000Y-44926190D02*
X146250000Y-44426190D01*
X146202380Y-44497619D01*
X146154761Y-44545238D01*
X146107142Y-44569047D01*
X143516666Y-47426190D02*
X143350000Y-47188095D01*
X143230952Y-47426190D02*
X143230952Y-46926190D01*
X143421428Y-46926190D01*
X143469047Y-46950000D01*
X143492857Y-46973809D01*
X143516666Y-47021428D01*
X143516666Y-47092857D01*
X143492857Y-47140476D01*
X143469047Y-47164285D01*
X143421428Y-47188095D01*
X143230952Y-47188095D01*
X143707142Y-46973809D02*
X143730952Y-46950000D01*
X143778571Y-46926190D01*
X143897619Y-46926190D01*
X143945238Y-46950000D01*
X143969047Y-46973809D01*
X143992857Y-47021428D01*
X143992857Y-47069047D01*
X143969047Y-47140476D01*
X143683333Y-47426190D01*
X143992857Y-47426190D01*
X143516666Y-44926190D02*
X143350000Y-44688095D01*
X143230952Y-44926190D02*
X143230952Y-44426190D01*
X143421428Y-44426190D01*
X143469047Y-44450000D01*
X143492857Y-44473809D01*
X143516666Y-44521428D01*
X143516666Y-44592857D01*
X143492857Y-44640476D01*
X143469047Y-44664285D01*
X143421428Y-44688095D01*
X143230952Y-44688095D01*
X143683333Y-44426190D02*
X143992857Y-44426190D01*
X143826190Y-44616666D01*
X143897619Y-44616666D01*
X143945238Y-44640476D01*
X143969047Y-44664285D01*
X143992857Y-44711904D01*
X143992857Y-44830952D01*
X143969047Y-44878571D01*
X143945238Y-44902380D01*
X143897619Y-44926190D01*
X143754761Y-44926190D01*
X143707142Y-44902380D01*
X143683333Y-44878571D01*
X140797619Y-47164285D02*
X140869047Y-47188095D01*
X140892857Y-47211904D01*
X140916666Y-47259523D01*
X140916666Y-47330952D01*
X140892857Y-47378571D01*
X140869047Y-47402380D01*
X140821428Y-47426190D01*
X140630952Y-47426190D01*
X140630952Y-46926190D01*
X140797619Y-46926190D01*
X140845238Y-46950000D01*
X140869047Y-46973809D01*
X140892857Y-47021428D01*
X140892857Y-47069047D01*
X140869047Y-47116666D01*
X140845238Y-47140476D01*
X140797619Y-47164285D01*
X140630952Y-47164285D01*
X141226190Y-46926190D02*
X141273809Y-46926190D01*
X141321428Y-46950000D01*
X141345238Y-46973809D01*
X141369047Y-47021428D01*
X141392857Y-47116666D01*
X141392857Y-47235714D01*
X141369047Y-47330952D01*
X141345238Y-47378571D01*
X141321428Y-47402380D01*
X141273809Y-47426190D01*
X141226190Y-47426190D01*
X141178571Y-47402380D01*
X141154761Y-47378571D01*
X141130952Y-47330952D01*
X141107142Y-47235714D01*
X141107142Y-47116666D01*
X141130952Y-47021428D01*
X141154761Y-46973809D01*
X141178571Y-46950000D01*
X141226190Y-46926190D01*
X140797619Y-44664285D02*
X140869047Y-44688095D01*
X140892857Y-44711904D01*
X140916666Y-44759523D01*
X140916666Y-44830952D01*
X140892857Y-44878571D01*
X140869047Y-44902380D01*
X140821428Y-44926190D01*
X140630952Y-44926190D01*
X140630952Y-44426190D01*
X140797619Y-44426190D01*
X140845238Y-44450000D01*
X140869047Y-44473809D01*
X140892857Y-44521428D01*
X140892857Y-44569047D01*
X140869047Y-44616666D01*
X140845238Y-44640476D01*
X140797619Y-44664285D01*
X140630952Y-44664285D01*
X141392857Y-44926190D02*
X141107142Y-44926190D01*
X141250000Y-44926190D02*
X141250000Y-44426190D01*
X141202380Y-44497619D01*
X141154761Y-44545238D01*
X141107142Y-44569047D01*
X138297619Y-47164285D02*
X138369047Y-47188095D01*
X138392857Y-47211904D01*
X138416666Y-47259523D01*
X138416666Y-47330952D01*
X138392857Y-47378571D01*
X138369047Y-47402380D01*
X138321428Y-47426190D01*
X138130952Y-47426190D01*
X138130952Y-46926190D01*
X138297619Y-46926190D01*
X138345238Y-46950000D01*
X138369047Y-46973809D01*
X138392857Y-47021428D01*
X138392857Y-47069047D01*
X138369047Y-47116666D01*
X138345238Y-47140476D01*
X138297619Y-47164285D01*
X138130952Y-47164285D01*
X138607142Y-46973809D02*
X138630952Y-46950000D01*
X138678571Y-46926190D01*
X138797619Y-46926190D01*
X138845238Y-46950000D01*
X138869047Y-46973809D01*
X138892857Y-47021428D01*
X138892857Y-47069047D01*
X138869047Y-47140476D01*
X138583333Y-47426190D01*
X138892857Y-47426190D01*
X138297619Y-44664285D02*
X138369047Y-44688095D01*
X138392857Y-44711904D01*
X138416666Y-44759523D01*
X138416666Y-44830952D01*
X138392857Y-44878571D01*
X138369047Y-44902380D01*
X138321428Y-44926190D01*
X138130952Y-44926190D01*
X138130952Y-44426190D01*
X138297619Y-44426190D01*
X138345238Y-44450000D01*
X138369047Y-44473809D01*
X138392857Y-44521428D01*
X138392857Y-44569047D01*
X138369047Y-44616666D01*
X138345238Y-44640476D01*
X138297619Y-44664285D01*
X138130952Y-44664285D01*
X138583333Y-44426190D02*
X138892857Y-44426190D01*
X138726190Y-44616666D01*
X138797619Y-44616666D01*
X138845238Y-44640476D01*
X138869047Y-44664285D01*
X138892857Y-44711904D01*
X138892857Y-44830952D01*
X138869047Y-44878571D01*
X138845238Y-44902380D01*
X138797619Y-44926190D01*
X138654761Y-44926190D01*
X138607142Y-44902380D01*
X138583333Y-44878571D01*
X135892857Y-46950000D02*
X135845238Y-46926190D01*
X135773809Y-46926190D01*
X135702380Y-46950000D01*
X135654761Y-46997619D01*
X135630952Y-47045238D01*
X135607142Y-47140476D01*
X135607142Y-47211904D01*
X135630952Y-47307142D01*
X135654761Y-47354761D01*
X135702380Y-47402380D01*
X135773809Y-47426190D01*
X135821428Y-47426190D01*
X135892857Y-47402380D01*
X135916666Y-47378571D01*
X135916666Y-47211904D01*
X135821428Y-47211904D01*
X136226190Y-46926190D02*
X136273809Y-46926190D01*
X136321428Y-46950000D01*
X136345238Y-46973809D01*
X136369047Y-47021428D01*
X136392857Y-47116666D01*
X136392857Y-47235714D01*
X136369047Y-47330952D01*
X136345238Y-47378571D01*
X136321428Y-47402380D01*
X136273809Y-47426190D01*
X136226190Y-47426190D01*
X136178571Y-47402380D01*
X136154761Y-47378571D01*
X136130952Y-47330952D01*
X136107142Y-47235714D01*
X136107142Y-47116666D01*
X136130952Y-47021428D01*
X136154761Y-46973809D01*
X136178571Y-46950000D01*
X136226190Y-46926190D01*
X135792857Y-44450000D02*
X135745238Y-44426190D01*
X135673809Y-44426190D01*
X135602380Y-44450000D01*
X135554761Y-44497619D01*
X135530952Y-44545238D01*
X135507142Y-44640476D01*
X135507142Y-44711904D01*
X135530952Y-44807142D01*
X135554761Y-44854761D01*
X135602380Y-44902380D01*
X135673809Y-44926190D01*
X135721428Y-44926190D01*
X135792857Y-44902380D01*
X135816666Y-44878571D01*
X135816666Y-44711904D01*
X135721428Y-44711904D01*
X136292857Y-44926190D02*
X136007142Y-44926190D01*
X136150000Y-44926190D02*
X136150000Y-44426190D01*
X136102380Y-44497619D01*
X136054761Y-44545238D01*
X136007142Y-44569047D01*
X133292857Y-46950000D02*
X133245238Y-46926190D01*
X133173809Y-46926190D01*
X133102380Y-46950000D01*
X133054761Y-46997619D01*
X133030952Y-47045238D01*
X133007142Y-47140476D01*
X133007142Y-47211904D01*
X133030952Y-47307142D01*
X133054761Y-47354761D01*
X133102380Y-47402380D01*
X133173809Y-47426190D01*
X133221428Y-47426190D01*
X133292857Y-47402380D01*
X133316666Y-47378571D01*
X133316666Y-47211904D01*
X133221428Y-47211904D01*
X133507142Y-46973809D02*
X133530952Y-46950000D01*
X133578571Y-46926190D01*
X133697619Y-46926190D01*
X133745238Y-46950000D01*
X133769047Y-46973809D01*
X133792857Y-47021428D01*
X133792857Y-47069047D01*
X133769047Y-47140476D01*
X133483333Y-47426190D01*
X133792857Y-47426190D01*
X133292857Y-44450000D02*
X133245238Y-44426190D01*
X133173809Y-44426190D01*
X133102380Y-44450000D01*
X133054761Y-44497619D01*
X133030952Y-44545238D01*
X133007142Y-44640476D01*
X133007142Y-44711904D01*
X133030952Y-44807142D01*
X133054761Y-44854761D01*
X133102380Y-44902380D01*
X133173809Y-44926190D01*
X133221428Y-44926190D01*
X133292857Y-44902380D01*
X133316666Y-44878571D01*
X133316666Y-44711904D01*
X133221428Y-44711904D01*
X133483333Y-44426190D02*
X133792857Y-44426190D01*
X133626190Y-44616666D01*
X133697619Y-44616666D01*
X133745238Y-44640476D01*
X133769047Y-44664285D01*
X133792857Y-44711904D01*
X133792857Y-44830952D01*
X133769047Y-44878571D01*
X133745238Y-44902380D01*
X133697619Y-44926190D01*
X133554761Y-44926190D01*
X133507142Y-44902380D01*
X133483333Y-44878571D01*
X135130952Y-51702380D02*
X135202380Y-51726190D01*
X135321428Y-51726190D01*
X135369047Y-51702380D01*
X135392857Y-51678571D01*
X135416666Y-51630952D01*
X135416666Y-51583333D01*
X135392857Y-51535714D01*
X135369047Y-51511904D01*
X135321428Y-51488095D01*
X135226190Y-51464285D01*
X135178571Y-51440476D01*
X135154761Y-51416666D01*
X135130952Y-51369047D01*
X135130952Y-51321428D01*
X135154761Y-51273809D01*
X135178571Y-51250000D01*
X135226190Y-51226190D01*
X135345238Y-51226190D01*
X135416666Y-51250000D01*
X135726190Y-51488095D02*
X135726190Y-51726190D01*
X135559523Y-51226190D02*
X135726190Y-51488095D01*
X135892857Y-51226190D01*
X136059523Y-51726190D02*
X136059523Y-51226190D01*
X136345238Y-51726190D01*
X136345238Y-51226190D01*
X136869047Y-51678571D02*
X136845238Y-51702380D01*
X136773809Y-51726190D01*
X136726190Y-51726190D01*
X136654761Y-51702380D01*
X136607142Y-51654761D01*
X136583333Y-51607142D01*
X136559523Y-51511904D01*
X136559523Y-51440476D01*
X136583333Y-51345238D01*
X136607142Y-51297619D01*
X136654761Y-51250000D01*
X136726190Y-51226190D01*
X136773809Y-51226190D01*
X136845238Y-51250000D01*
X136869047Y-51273809D01*
X129147619Y-53926190D02*
X129480952Y-53926190D01*
X129266666Y-54426190D01*
X129671428Y-54426190D02*
X129671428Y-53926190D01*
X129838095Y-54283333D01*
X130004761Y-53926190D01*
X130004761Y-54426190D01*
X130242857Y-54426190D02*
X130242857Y-53926190D01*
X130242857Y-54164285D02*
X130528571Y-54164285D01*
X130528571Y-54426190D02*
X130528571Y-53926190D01*
X130719047Y-53926190D02*
X131052380Y-53926190D01*
X130719047Y-54426190D01*
X131052380Y-54426190D01*
D11*
X137376190Y-53729761D02*
X137519047Y-53777380D01*
X137757142Y-53777380D01*
X137852380Y-53729761D01*
X137900000Y-53682142D01*
X137947619Y-53586904D01*
X137947619Y-53491666D01*
X137900000Y-53396428D01*
X137852380Y-53348809D01*
X137757142Y-53301190D01*
X137566666Y-53253571D01*
X137471428Y-53205952D01*
X137423809Y-53158333D01*
X137376190Y-53063095D01*
X137376190Y-52967857D01*
X137423809Y-52872619D01*
X137471428Y-52825000D01*
X137566666Y-52777380D01*
X137804761Y-52777380D01*
X137947619Y-52825000D01*
X138376190Y-53777380D02*
X138376190Y-52777380D01*
X138709523Y-53491666D01*
X139042857Y-52777380D01*
X139042857Y-53777380D01*
X139376190Y-52777380D02*
X139947619Y-52777380D01*
X139661904Y-53777380D02*
X139661904Y-52777380D01*
X141042857Y-53777380D02*
X141042857Y-52777380D01*
X141423809Y-52777380D01*
X141519047Y-52825000D01*
X141566666Y-52872619D01*
X141614285Y-52967857D01*
X141614285Y-53110714D01*
X141566666Y-53205952D01*
X141519047Y-53253571D01*
X141423809Y-53301190D01*
X141042857Y-53301190D01*
X142519047Y-53777380D02*
X142042857Y-53777380D01*
X142042857Y-52777380D01*
X143423809Y-53682142D02*
X143376190Y-53729761D01*
X143233333Y-53777380D01*
X143138095Y-53777380D01*
X142995238Y-53729761D01*
X142900000Y-53634523D01*
X142852380Y-53539285D01*
X142804761Y-53348809D01*
X142804761Y-53205952D01*
X142852380Y-53015476D01*
X142900000Y-52920238D01*
X142995238Y-52825000D01*
X143138095Y-52777380D01*
X143233333Y-52777380D01*
X143376190Y-52825000D01*
X143423809Y-52872619D01*
X144423809Y-53682142D02*
X144376190Y-53729761D01*
X144233333Y-53777380D01*
X144138095Y-53777380D01*
X143995238Y-53729761D01*
X143900000Y-53634523D01*
X143852380Y-53539285D01*
X143804761Y-53348809D01*
X143804761Y-53205952D01*
X143852380Y-53015476D01*
X143900000Y-52920238D01*
X143995238Y-52825000D01*
X144138095Y-52777380D01*
X144233333Y-52777380D01*
X144376190Y-52825000D01*
X144423809Y-52872619D01*
X146042857Y-53777380D02*
X146042857Y-53253571D01*
X145995238Y-53158333D01*
X145900000Y-53110714D01*
X145709523Y-53110714D01*
X145614285Y-53158333D01*
X146042857Y-53729761D02*
X145947619Y-53777380D01*
X145709523Y-53777380D01*
X145614285Y-53729761D01*
X145566666Y-53634523D01*
X145566666Y-53539285D01*
X145614285Y-53444047D01*
X145709523Y-53396428D01*
X145947619Y-53396428D01*
X146042857Y-53348809D01*
X146376190Y-53110714D02*
X146757142Y-53110714D01*
X146519047Y-52777380D02*
X146519047Y-53634523D01*
X146566666Y-53729761D01*
X146661904Y-53777380D01*
X146757142Y-53777380D01*
X138352380Y-54760714D02*
X138733333Y-54760714D01*
X138495238Y-54427380D02*
X138495238Y-55284523D01*
X138542857Y-55379761D01*
X138638095Y-55427380D01*
X138733333Y-55427380D01*
X139066666Y-55427380D02*
X139066666Y-54427380D01*
X139495238Y-55427380D02*
X139495238Y-54903571D01*
X139447619Y-54808333D01*
X139352380Y-54760714D01*
X139209523Y-54760714D01*
X139114285Y-54808333D01*
X139066666Y-54855952D01*
X140352380Y-55379761D02*
X140257142Y-55427380D01*
X140066666Y-55427380D01*
X139971428Y-55379761D01*
X139923809Y-55284523D01*
X139923809Y-54903571D01*
X139971428Y-54808333D01*
X140066666Y-54760714D01*
X140257142Y-54760714D01*
X140352380Y-54808333D01*
X140400000Y-54903571D01*
X140400000Y-54998809D01*
X139923809Y-55094047D01*
X141590476Y-55427380D02*
X141590476Y-54427380D01*
X141590476Y-54808333D02*
X141685714Y-54760714D01*
X141876190Y-54760714D01*
X141971428Y-54808333D01*
X142019047Y-54855952D01*
X142066666Y-54951190D01*
X142066666Y-55236904D01*
X142019047Y-55332142D01*
X141971428Y-55379761D01*
X141876190Y-55427380D01*
X141685714Y-55427380D01*
X141590476Y-55379761D01*
X142638095Y-55427380D02*
X142542857Y-55379761D01*
X142495238Y-55332142D01*
X142447619Y-55236904D01*
X142447619Y-54951190D01*
X142495238Y-54855952D01*
X142542857Y-54808333D01*
X142638095Y-54760714D01*
X142780952Y-54760714D01*
X142876190Y-54808333D01*
X142923809Y-54855952D01*
X142971428Y-54951190D01*
X142971428Y-55236904D01*
X142923809Y-55332142D01*
X142876190Y-55379761D01*
X142780952Y-55427380D01*
X142638095Y-55427380D01*
X143257142Y-54760714D02*
X143638095Y-54760714D01*
X143400000Y-54427380D02*
X143400000Y-55284523D01*
X143447619Y-55379761D01*
X143542857Y-55427380D01*
X143638095Y-55427380D01*
X143828571Y-54760714D02*
X144209523Y-54760714D01*
X143971428Y-54427380D02*
X143971428Y-55284523D01*
X144019047Y-55379761D01*
X144114285Y-55427380D01*
X144209523Y-55427380D01*
X144685714Y-55427380D02*
X144590476Y-55379761D01*
X144542857Y-55332142D01*
X144495238Y-55236904D01*
X144495238Y-54951190D01*
X144542857Y-54855952D01*
X144590476Y-54808333D01*
X144685714Y-54760714D01*
X144828571Y-54760714D01*
X144923809Y-54808333D01*
X144971428Y-54855952D01*
X145019047Y-54951190D01*
X145019047Y-55236904D01*
X144971428Y-55332142D01*
X144923809Y-55379761D01*
X144828571Y-55427380D01*
X144685714Y-55427380D01*
X145447619Y-55427380D02*
X145447619Y-54760714D01*
X145447619Y-54855952D02*
X145495238Y-54808333D01*
X145590476Y-54760714D01*
X145733333Y-54760714D01*
X145828571Y-54808333D01*
X145876190Y-54903571D01*
X145876190Y-55427380D01*
X145876190Y-54903571D02*
X145923809Y-54808333D01*
X146019047Y-54760714D01*
X146161904Y-54760714D01*
X146257142Y-54808333D01*
X146304761Y-54903571D01*
X146304761Y-55427380D01*
X137280952Y-57077380D02*
X137185714Y-57029761D01*
X137138095Y-56934523D01*
X137138095Y-56077380D01*
X138090476Y-57077380D02*
X138090476Y-56553571D01*
X138042857Y-56458333D01*
X137947619Y-56410714D01*
X137757142Y-56410714D01*
X137661904Y-56458333D01*
X138090476Y-57029761D02*
X137995238Y-57077380D01*
X137757142Y-57077380D01*
X137661904Y-57029761D01*
X137614285Y-56934523D01*
X137614285Y-56839285D01*
X137661904Y-56744047D01*
X137757142Y-56696428D01*
X137995238Y-56696428D01*
X138090476Y-56648809D01*
X138471428Y-56410714D02*
X138709523Y-57077380D01*
X138947619Y-56410714D02*
X138709523Y-57077380D01*
X138614285Y-57315476D01*
X138566666Y-57363095D01*
X138471428Y-57410714D01*
X139709523Y-57029761D02*
X139614285Y-57077380D01*
X139423809Y-57077380D01*
X139328571Y-57029761D01*
X139280952Y-56934523D01*
X139280952Y-56553571D01*
X139328571Y-56458333D01*
X139423809Y-56410714D01*
X139614285Y-56410714D01*
X139709523Y-56458333D01*
X139757142Y-56553571D01*
X139757142Y-56648809D01*
X139280952Y-56744047D01*
X140185714Y-57077380D02*
X140185714Y-56410714D01*
X140185714Y-56601190D02*
X140233333Y-56505952D01*
X140280952Y-56458333D01*
X140376190Y-56410714D01*
X140471428Y-56410714D01*
X140852380Y-57029761D02*
X140852380Y-57077380D01*
X140804761Y-57172619D01*
X140757142Y-57220238D01*
X140804761Y-56458333D02*
X140852380Y-56505952D01*
X140804761Y-56553571D01*
X140757142Y-56505952D01*
X140804761Y-56458333D01*
X140804761Y-56553571D01*
X142042857Y-56410714D02*
X142042857Y-57410714D01*
X142042857Y-56458333D02*
X142138095Y-56410714D01*
X142328571Y-56410714D01*
X142423809Y-56458333D01*
X142471428Y-56505952D01*
X142519047Y-56601190D01*
X142519047Y-56886904D01*
X142471428Y-56982142D01*
X142423809Y-57029761D01*
X142328571Y-57077380D01*
X142138095Y-57077380D01*
X142042857Y-57029761D01*
X142947619Y-57077380D02*
X142947619Y-56410714D01*
X142947619Y-56077380D02*
X142900000Y-56125000D01*
X142947619Y-56172619D01*
X142995238Y-56125000D01*
X142947619Y-56077380D01*
X142947619Y-56172619D01*
X143423809Y-56410714D02*
X143423809Y-57077380D01*
X143423809Y-56505952D02*
X143471428Y-56458333D01*
X143566666Y-56410714D01*
X143709523Y-56410714D01*
X143804761Y-56458333D01*
X143852380Y-56553571D01*
X143852380Y-57077380D01*
X144280952Y-57029761D02*
X144376190Y-57077380D01*
X144566666Y-57077380D01*
X144661904Y-57029761D01*
X144709523Y-56934523D01*
X144709523Y-56886904D01*
X144661904Y-56791666D01*
X144566666Y-56744047D01*
X144423809Y-56744047D01*
X144328571Y-56696428D01*
X144280952Y-56601190D01*
X144280952Y-56553571D01*
X144328571Y-56458333D01*
X144423809Y-56410714D01*
X144566666Y-56410714D01*
X144661904Y-56458333D01*
X146328571Y-57077380D02*
X146328571Y-56553571D01*
X146280952Y-56458333D01*
X146185714Y-56410714D01*
X145995238Y-56410714D01*
X145900000Y-56458333D01*
X146328571Y-57029761D02*
X146233333Y-57077380D01*
X145995238Y-57077380D01*
X145900000Y-57029761D01*
X145852380Y-56934523D01*
X145852380Y-56839285D01*
X145900000Y-56744047D01*
X145995238Y-56696428D01*
X146233333Y-56696428D01*
X146328571Y-56648809D01*
X146661904Y-56410714D02*
X147042857Y-56410714D01*
X146804761Y-56077380D02*
X146804761Y-56934523D01*
X146852380Y-57029761D01*
X146947619Y-57077380D01*
X147042857Y-57077380D01*
X137304761Y-58060714D02*
X137685714Y-58060714D01*
X137447619Y-57727380D02*
X137447619Y-58584523D01*
X137495238Y-58679761D01*
X137590476Y-58727380D01*
X137685714Y-58727380D01*
X138019047Y-58727380D02*
X138019047Y-57727380D01*
X138447619Y-58727380D02*
X138447619Y-58203571D01*
X138400000Y-58108333D01*
X138304761Y-58060714D01*
X138161904Y-58060714D01*
X138066666Y-58108333D01*
X138019047Y-58155952D01*
X139304761Y-58679761D02*
X139209523Y-58727380D01*
X139019047Y-58727380D01*
X138923809Y-58679761D01*
X138876190Y-58584523D01*
X138876190Y-58203571D01*
X138923809Y-58108333D01*
X139019047Y-58060714D01*
X139209523Y-58060714D01*
X139304761Y-58108333D01*
X139352380Y-58203571D01*
X139352380Y-58298809D01*
X138876190Y-58394047D01*
X140400000Y-58060714D02*
X140780952Y-58060714D01*
X140542857Y-57727380D02*
X140542857Y-58584523D01*
X140590476Y-58679761D01*
X140685714Y-58727380D01*
X140780952Y-58727380D01*
X141257142Y-58727380D02*
X141161904Y-58679761D01*
X141114285Y-58632142D01*
X141066666Y-58536904D01*
X141066666Y-58251190D01*
X141114285Y-58155952D01*
X141161904Y-58108333D01*
X141257142Y-58060714D01*
X141400000Y-58060714D01*
X141495238Y-58108333D01*
X141542857Y-58155952D01*
X141590476Y-58251190D01*
X141590476Y-58536904D01*
X141542857Y-58632142D01*
X141495238Y-58679761D01*
X141400000Y-58727380D01*
X141257142Y-58727380D01*
X142019047Y-58060714D02*
X142019047Y-59060714D01*
X142019047Y-58108333D02*
X142114285Y-58060714D01*
X142304761Y-58060714D01*
X142400000Y-58108333D01*
X142447619Y-58155952D01*
X142495238Y-58251190D01*
X142495238Y-58536904D01*
X142447619Y-58632142D01*
X142400000Y-58679761D01*
X142304761Y-58727380D01*
X142114285Y-58727380D01*
X142019047Y-58679761D01*
X143828571Y-58727380D02*
X143733333Y-58679761D01*
X143685714Y-58584523D01*
X143685714Y-57727380D01*
X144638095Y-58727380D02*
X144638095Y-58203571D01*
X144590476Y-58108333D01*
X144495238Y-58060714D01*
X144304761Y-58060714D01*
X144209523Y-58108333D01*
X144638095Y-58679761D02*
X144542857Y-58727380D01*
X144304761Y-58727380D01*
X144209523Y-58679761D01*
X144161904Y-58584523D01*
X144161904Y-58489285D01*
X144209523Y-58394047D01*
X144304761Y-58346428D01*
X144542857Y-58346428D01*
X144638095Y-58298809D01*
X145019047Y-58060714D02*
X145257142Y-58727380D01*
X145495238Y-58060714D02*
X145257142Y-58727380D01*
X145161904Y-58965476D01*
X145114285Y-59013095D01*
X145019047Y-59060714D01*
X146257142Y-58679761D02*
X146161904Y-58727380D01*
X145971428Y-58727380D01*
X145876190Y-58679761D01*
X145828571Y-58584523D01*
X145828571Y-58203571D01*
X145876190Y-58108333D01*
X145971428Y-58060714D01*
X146161904Y-58060714D01*
X146257142Y-58108333D01*
X146304761Y-58203571D01*
X146304761Y-58298809D01*
X145828571Y-58394047D01*
X146733333Y-58727380D02*
X146733333Y-58060714D01*
X146733333Y-58251190D02*
X146780952Y-58155952D01*
X146828571Y-58108333D01*
X146923809Y-58060714D01*
X147019047Y-58060714D01*
X147352380Y-58632142D02*
X147400000Y-58679761D01*
X147352380Y-58727380D01*
X147304761Y-58679761D01*
X147352380Y-58632142D01*
X147352380Y-58727380D01*
X115890476Y-70152380D02*
X115890476Y-69152380D01*
X116319047Y-70152380D02*
X116319047Y-69628571D01*
X116271428Y-69533333D01*
X116176190Y-69485714D01*
X116033333Y-69485714D01*
X115938095Y-69533333D01*
X115890476Y-69580952D01*
X116652380Y-69485714D02*
X117033333Y-69485714D01*
X116795238Y-69152380D02*
X116795238Y-70009523D01*
X116842857Y-70104761D01*
X116938095Y-70152380D01*
X117033333Y-70152380D01*
X117223809Y-69485714D02*
X117604761Y-69485714D01*
X117366666Y-69152380D02*
X117366666Y-70009523D01*
X117414285Y-70104761D01*
X117509523Y-70152380D01*
X117604761Y-70152380D01*
X117938095Y-69485714D02*
X117938095Y-70485714D01*
X117938095Y-69533333D02*
X118033333Y-69485714D01*
X118223809Y-69485714D01*
X118319047Y-69533333D01*
X118366666Y-69580952D01*
X118414285Y-69676190D01*
X118414285Y-69961904D01*
X118366666Y-70057142D01*
X118319047Y-70104761D01*
X118223809Y-70152380D01*
X118033333Y-70152380D01*
X117938095Y-70104761D01*
X118795238Y-70104761D02*
X118890476Y-70152380D01*
X119080952Y-70152380D01*
X119176190Y-70104761D01*
X119223809Y-70009523D01*
X119223809Y-69961904D01*
X119176190Y-69866666D01*
X119080952Y-69819047D01*
X118938095Y-69819047D01*
X118842857Y-69771428D01*
X118795238Y-69676190D01*
X118795238Y-69628571D01*
X118842857Y-69533333D01*
X118938095Y-69485714D01*
X119080952Y-69485714D01*
X119176190Y-69533333D01*
X119652380Y-70057142D02*
X119700000Y-70104761D01*
X119652380Y-70152380D01*
X119604761Y-70104761D01*
X119652380Y-70057142D01*
X119652380Y-70152380D01*
X119652380Y-69533333D02*
X119700000Y-69580952D01*
X119652380Y-69628571D01*
X119604761Y-69580952D01*
X119652380Y-69533333D01*
X119652380Y-69628571D01*
X120842857Y-69104761D02*
X119985714Y-70390476D01*
X121890476Y-69104761D02*
X121033333Y-70390476D01*
X122652380Y-69485714D02*
X122652380Y-70295238D01*
X122604761Y-70390476D01*
X122557142Y-70438095D01*
X122461904Y-70485714D01*
X122319047Y-70485714D01*
X122223809Y-70438095D01*
X122652380Y-70104761D02*
X122557142Y-70152380D01*
X122366666Y-70152380D01*
X122271428Y-70104761D01*
X122223809Y-70057142D01*
X122176190Y-69961904D01*
X122176190Y-69676190D01*
X122223809Y-69580952D01*
X122271428Y-69533333D01*
X122366666Y-69485714D01*
X122557142Y-69485714D01*
X122652380Y-69533333D01*
X123128571Y-70152380D02*
X123128571Y-69485714D01*
X123128571Y-69152380D02*
X123080952Y-69200000D01*
X123128571Y-69247619D01*
X123176190Y-69200000D01*
X123128571Y-69152380D01*
X123128571Y-69247619D01*
X123461904Y-69485714D02*
X123842857Y-69485714D01*
X123604761Y-69152380D02*
X123604761Y-70009523D01*
X123652380Y-70104761D01*
X123747619Y-70152380D01*
X123842857Y-70152380D01*
X124176190Y-70152380D02*
X124176190Y-69152380D01*
X124604761Y-70152380D02*
X124604761Y-69628571D01*
X124557142Y-69533333D01*
X124461904Y-69485714D01*
X124319047Y-69485714D01*
X124223809Y-69533333D01*
X124176190Y-69580952D01*
X125509523Y-69485714D02*
X125509523Y-70152380D01*
X125080952Y-69485714D02*
X125080952Y-70009523D01*
X125128571Y-70104761D01*
X125223809Y-70152380D01*
X125366666Y-70152380D01*
X125461904Y-70104761D01*
X125509523Y-70057142D01*
X125985714Y-70152380D02*
X125985714Y-69152380D01*
X125985714Y-69533333D02*
X126080952Y-69485714D01*
X126271428Y-69485714D01*
X126366666Y-69533333D01*
X126414285Y-69580952D01*
X126461904Y-69676190D01*
X126461904Y-69961904D01*
X126414285Y-70057142D01*
X126366666Y-70104761D01*
X126271428Y-70152380D01*
X126080952Y-70152380D01*
X125985714Y-70104761D01*
X126890476Y-70057142D02*
X126938095Y-70104761D01*
X126890476Y-70152380D01*
X126842857Y-70104761D01*
X126890476Y-70057142D01*
X126890476Y-70152380D01*
X127795238Y-70104761D02*
X127700000Y-70152380D01*
X127509523Y-70152380D01*
X127414285Y-70104761D01*
X127366666Y-70057142D01*
X127319047Y-69961904D01*
X127319047Y-69676190D01*
X127366666Y-69580952D01*
X127414285Y-69533333D01*
X127509523Y-69485714D01*
X127700000Y-69485714D01*
X127795238Y-69533333D01*
X128366666Y-70152380D02*
X128271428Y-70104761D01*
X128223809Y-70057142D01*
X128176190Y-69961904D01*
X128176190Y-69676190D01*
X128223809Y-69580952D01*
X128271428Y-69533333D01*
X128366666Y-69485714D01*
X128509523Y-69485714D01*
X128604761Y-69533333D01*
X128652380Y-69580952D01*
X128700000Y-69676190D01*
X128700000Y-69961904D01*
X128652380Y-70057142D01*
X128604761Y-70104761D01*
X128509523Y-70152380D01*
X128366666Y-70152380D01*
X129128571Y-70152380D02*
X129128571Y-69485714D01*
X129128571Y-69580952D02*
X129176190Y-69533333D01*
X129271428Y-69485714D01*
X129414285Y-69485714D01*
X129509523Y-69533333D01*
X129557142Y-69628571D01*
X129557142Y-70152380D01*
X129557142Y-69628571D02*
X129604761Y-69533333D01*
X129700000Y-69485714D01*
X129842857Y-69485714D01*
X129938095Y-69533333D01*
X129985714Y-69628571D01*
X129985714Y-70152380D01*
X131176190Y-69104761D02*
X130319047Y-70390476D01*
X131938095Y-70152380D02*
X131938095Y-69152380D01*
X131938095Y-70104761D02*
X131842857Y-70152380D01*
X131652380Y-70152380D01*
X131557142Y-70104761D01*
X131509523Y-70057142D01*
X131461904Y-69961904D01*
X131461904Y-69676190D01*
X131509523Y-69580952D01*
X131557142Y-69533333D01*
X131652380Y-69485714D01*
X131842857Y-69485714D01*
X131938095Y-69533333D01*
X132271428Y-69485714D02*
X132652380Y-69485714D01*
X132414285Y-69152380D02*
X132414285Y-70009523D01*
X132461904Y-70104761D01*
X132557142Y-70152380D01*
X132652380Y-70152380D01*
X132985714Y-70152380D02*
X132985714Y-69152380D01*
X133414285Y-70152380D02*
X133414285Y-69628571D01*
X133366666Y-69533333D01*
X133271428Y-69485714D01*
X133128571Y-69485714D01*
X133033333Y-69533333D01*
X132985714Y-69580952D01*
X134271428Y-70104761D02*
X134176190Y-70152380D01*
X133985714Y-70152380D01*
X133890476Y-70104761D01*
X133842857Y-70009523D01*
X133842857Y-69628571D01*
X133890476Y-69533333D01*
X133985714Y-69485714D01*
X134176190Y-69485714D01*
X134271428Y-69533333D01*
X134319047Y-69628571D01*
X134319047Y-69723809D01*
X133842857Y-69819047D01*
X134890476Y-70152380D02*
X134795238Y-70104761D01*
X134747619Y-70057142D01*
X134700000Y-69961904D01*
X134700000Y-69676190D01*
X134747619Y-69580952D01*
X134795238Y-69533333D01*
X134890476Y-69485714D01*
X135033333Y-69485714D01*
X135128571Y-69533333D01*
X135176190Y-69580952D01*
X135223809Y-69676190D01*
X135223809Y-69961904D01*
X135176190Y-70057142D01*
X135128571Y-70104761D01*
X135033333Y-70152380D01*
X134890476Y-70152380D01*
X136080952Y-70152380D02*
X136080952Y-69152380D01*
X136080952Y-70104761D02*
X135985714Y-70152380D01*
X135795238Y-70152380D01*
X135700000Y-70104761D01*
X135652380Y-70057142D01*
X135604761Y-69961904D01*
X135604761Y-69676190D01*
X135652380Y-69580952D01*
X135700000Y-69533333D01*
X135795238Y-69485714D01*
X135985714Y-69485714D01*
X136080952Y-69533333D01*
X136700000Y-70152380D02*
X136604761Y-70104761D01*
X136557142Y-70057142D01*
X136509523Y-69961904D01*
X136509523Y-69676190D01*
X136557142Y-69580952D01*
X136604761Y-69533333D01*
X136700000Y-69485714D01*
X136842857Y-69485714D01*
X136938095Y-69533333D01*
X136985714Y-69580952D01*
X137033333Y-69676190D01*
X137033333Y-69961904D01*
X136985714Y-70057142D01*
X136938095Y-70104761D01*
X136842857Y-70152380D01*
X136700000Y-70152380D01*
X137461904Y-70152380D02*
X137461904Y-69485714D01*
X137461904Y-69676190D02*
X137509523Y-69580952D01*
X137557142Y-69533333D01*
X137652380Y-69485714D01*
X137747619Y-69485714D01*
X137985714Y-69152380D02*
X138652380Y-69152380D01*
X138223809Y-70152380D01*
X139080952Y-70152380D02*
X139271428Y-70152380D01*
X139366666Y-70104761D01*
X139414285Y-70057142D01*
X139509523Y-69914285D01*
X139557142Y-69723809D01*
X139557142Y-69342857D01*
X139509523Y-69247619D01*
X139461904Y-69200000D01*
X139366666Y-69152380D01*
X139176190Y-69152380D01*
X139080952Y-69200000D01*
X139033333Y-69247619D01*
X138985714Y-69342857D01*
X138985714Y-69580952D01*
X139033333Y-69676190D01*
X139080952Y-69723809D01*
X139176190Y-69771428D01*
X139366666Y-69771428D01*
X139461904Y-69723809D01*
X139509523Y-69676190D01*
X139557142Y-69580952D01*
X166042857Y-41228571D02*
X166080952Y-41114285D01*
X166119047Y-41076190D01*
X166195238Y-41038095D01*
X166309523Y-41038095D01*
X166385714Y-41076190D01*
X166423809Y-41114285D01*
X166461904Y-41190476D01*
X166461904Y-41495238D01*
X165661904Y-41495238D01*
X165661904Y-41228571D01*
X165700000Y-41152380D01*
X165738095Y-41114285D01*
X165814285Y-41076190D01*
X165890476Y-41076190D01*
X165966666Y-41114285D01*
X166004761Y-41152380D01*
X166042857Y-41228571D01*
X166042857Y-41495238D01*
X165661904Y-40809523D02*
X165661904Y-40352380D01*
X166461904Y-40580952D02*
X165661904Y-40580952D01*
X165738095Y-40123809D02*
X165700000Y-40085714D01*
X165661904Y-40009523D01*
X165661904Y-39819047D01*
X165700000Y-39742857D01*
X165738095Y-39704761D01*
X165814285Y-39666666D01*
X165890476Y-39666666D01*
X166004761Y-39704761D01*
X166461904Y-40161904D01*
X166461904Y-39666666D01*
X163542857Y-41228571D02*
X163580952Y-41114285D01*
X163619047Y-41076190D01*
X163695238Y-41038095D01*
X163809523Y-41038095D01*
X163885714Y-41076190D01*
X163923809Y-41114285D01*
X163961904Y-41190476D01*
X163961904Y-41495238D01*
X163161904Y-41495238D01*
X163161904Y-41228571D01*
X163200000Y-41152380D01*
X163238095Y-41114285D01*
X163314285Y-41076190D01*
X163390476Y-41076190D01*
X163466666Y-41114285D01*
X163504761Y-41152380D01*
X163542857Y-41228571D01*
X163542857Y-41495238D01*
X163161904Y-40809523D02*
X163161904Y-40352380D01*
X163961904Y-40580952D02*
X163161904Y-40580952D01*
X163961904Y-39666666D02*
X163961904Y-40123809D01*
X163961904Y-39895238D02*
X163161904Y-39895238D01*
X163276190Y-39971428D01*
X163352380Y-40047619D01*
X163390476Y-40123809D01*
X158861904Y-40533333D02*
X158480952Y-40800000D01*
X158861904Y-40990476D02*
X158061904Y-40990476D01*
X158061904Y-40685714D01*
X158100000Y-40609523D01*
X158138095Y-40571428D01*
X158214285Y-40533333D01*
X158328571Y-40533333D01*
X158404761Y-40571428D01*
X158442857Y-40609523D01*
X158480952Y-40685714D01*
X158480952Y-40990476D01*
X158061904Y-40038095D02*
X158061904Y-39961904D01*
X158100000Y-39885714D01*
X158138095Y-39847619D01*
X158214285Y-39809523D01*
X158366666Y-39771428D01*
X158557142Y-39771428D01*
X158709523Y-39809523D01*
X158785714Y-39847619D01*
X158823809Y-39885714D01*
X158861904Y-39961904D01*
X158861904Y-40038095D01*
X158823809Y-40114285D01*
X158785714Y-40152380D01*
X158709523Y-40190476D01*
X158557142Y-40228571D01*
X158366666Y-40228571D01*
X158214285Y-40190476D01*
X158138095Y-40152380D01*
X158100000Y-40114285D01*
X158061904Y-40038095D01*
X156361904Y-40533333D02*
X155980952Y-40800000D01*
X156361904Y-40990476D02*
X155561904Y-40990476D01*
X155561904Y-40685714D01*
X155600000Y-40609523D01*
X155638095Y-40571428D01*
X155714285Y-40533333D01*
X155828571Y-40533333D01*
X155904761Y-40571428D01*
X155942857Y-40609523D01*
X155980952Y-40685714D01*
X155980952Y-40990476D01*
X156361904Y-39771428D02*
X156361904Y-40228571D01*
X156361904Y-40000000D02*
X155561904Y-40000000D01*
X155676190Y-40076190D01*
X155752380Y-40152380D01*
X155790476Y-40228571D01*
X153861904Y-40533333D02*
X153480952Y-40800000D01*
X153861904Y-40990476D02*
X153061904Y-40990476D01*
X153061904Y-40685714D01*
X153100000Y-40609523D01*
X153138095Y-40571428D01*
X153214285Y-40533333D01*
X153328571Y-40533333D01*
X153404761Y-40571428D01*
X153442857Y-40609523D01*
X153480952Y-40685714D01*
X153480952Y-40990476D01*
X153138095Y-40228571D02*
X153100000Y-40190476D01*
X153061904Y-40114285D01*
X153061904Y-39923809D01*
X153100000Y-39847619D01*
X153138095Y-39809523D01*
X153214285Y-39771428D01*
X153290476Y-39771428D01*
X153404761Y-39809523D01*
X153861904Y-40266666D01*
X153861904Y-39771428D01*
X151261904Y-40533333D02*
X150880952Y-40800000D01*
X151261904Y-40990476D02*
X150461904Y-40990476D01*
X150461904Y-40685714D01*
X150500000Y-40609523D01*
X150538095Y-40571428D01*
X150614285Y-40533333D01*
X150728571Y-40533333D01*
X150804761Y-40571428D01*
X150842857Y-40609523D01*
X150880952Y-40685714D01*
X150880952Y-40990476D01*
X150461904Y-40266666D02*
X150461904Y-39771428D01*
X150766666Y-40038095D01*
X150766666Y-39923809D01*
X150804761Y-39847619D01*
X150842857Y-39809523D01*
X150919047Y-39771428D01*
X151109523Y-39771428D01*
X151185714Y-39809523D01*
X151223809Y-39847619D01*
X151261904Y-39923809D01*
X151261904Y-40152380D01*
X151223809Y-40228571D01*
X151185714Y-40266666D01*
X147900000Y-40571428D02*
X147861904Y-40647619D01*
X147861904Y-40761904D01*
X147900000Y-40876190D01*
X147976190Y-40952380D01*
X148052380Y-40990476D01*
X148204761Y-41028571D01*
X148319047Y-41028571D01*
X148471428Y-40990476D01*
X148547619Y-40952380D01*
X148623809Y-40876190D01*
X148661904Y-40761904D01*
X148661904Y-40685714D01*
X148623809Y-40571428D01*
X148585714Y-40533333D01*
X148319047Y-40533333D01*
X148319047Y-40685714D01*
X147861904Y-40038095D02*
X147861904Y-39961904D01*
X147900000Y-39885714D01*
X147938095Y-39847619D01*
X148014285Y-39809523D01*
X148166666Y-39771428D01*
X148357142Y-39771428D01*
X148509523Y-39809523D01*
X148585714Y-39847619D01*
X148623809Y-39885714D01*
X148661904Y-39961904D01*
X148661904Y-40038095D01*
X148623809Y-40114285D01*
X148585714Y-40152380D01*
X148509523Y-40190476D01*
X148357142Y-40228571D01*
X148166666Y-40228571D01*
X148014285Y-40190476D01*
X147938095Y-40152380D01*
X147900000Y-40114285D01*
X147861904Y-40038095D01*
X145400000Y-40571428D02*
X145361904Y-40647619D01*
X145361904Y-40761904D01*
X145400000Y-40876190D01*
X145476190Y-40952380D01*
X145552380Y-40990476D01*
X145704761Y-41028571D01*
X145819047Y-41028571D01*
X145971428Y-40990476D01*
X146047619Y-40952380D01*
X146123809Y-40876190D01*
X146161904Y-40761904D01*
X146161904Y-40685714D01*
X146123809Y-40571428D01*
X146085714Y-40533333D01*
X145819047Y-40533333D01*
X145819047Y-40685714D01*
X146161904Y-39771428D02*
X146161904Y-40228571D01*
X146161904Y-40000000D02*
X145361904Y-40000000D01*
X145476190Y-40076190D01*
X145552380Y-40152380D01*
X145590476Y-40228571D01*
X142900000Y-40571428D02*
X142861904Y-40647619D01*
X142861904Y-40761904D01*
X142900000Y-40876190D01*
X142976190Y-40952380D01*
X143052380Y-40990476D01*
X143204761Y-41028571D01*
X143319047Y-41028571D01*
X143471428Y-40990476D01*
X143547619Y-40952380D01*
X143623809Y-40876190D01*
X143661904Y-40761904D01*
X143661904Y-40685714D01*
X143623809Y-40571428D01*
X143585714Y-40533333D01*
X143319047Y-40533333D01*
X143319047Y-40685714D01*
X142938095Y-40228571D02*
X142900000Y-40190476D01*
X142861904Y-40114285D01*
X142861904Y-39923809D01*
X142900000Y-39847619D01*
X142938095Y-39809523D01*
X143014285Y-39771428D01*
X143090476Y-39771428D01*
X143204761Y-39809523D01*
X143661904Y-40266666D01*
X143661904Y-39771428D01*
X140400000Y-40571428D02*
X140361904Y-40647619D01*
X140361904Y-40761904D01*
X140400000Y-40876190D01*
X140476190Y-40952380D01*
X140552380Y-40990476D01*
X140704761Y-41028571D01*
X140819047Y-41028571D01*
X140971428Y-40990476D01*
X141047619Y-40952380D01*
X141123809Y-40876190D01*
X141161904Y-40761904D01*
X141161904Y-40685714D01*
X141123809Y-40571428D01*
X141085714Y-40533333D01*
X140819047Y-40533333D01*
X140819047Y-40685714D01*
X140361904Y-40266666D02*
X140361904Y-39771428D01*
X140666666Y-40038095D01*
X140666666Y-39923809D01*
X140704761Y-39847619D01*
X140742857Y-39809523D01*
X140819047Y-39771428D01*
X141009523Y-39771428D01*
X141085714Y-39809523D01*
X141123809Y-39847619D01*
X141161904Y-39923809D01*
X141161904Y-40152380D01*
X141123809Y-40228571D01*
X141085714Y-40266666D01*
X138142857Y-40723809D02*
X138180952Y-40609523D01*
X138219047Y-40571428D01*
X138295238Y-40533333D01*
X138409523Y-40533333D01*
X138485714Y-40571428D01*
X138523809Y-40609523D01*
X138561904Y-40685714D01*
X138561904Y-40990476D01*
X137761904Y-40990476D01*
X137761904Y-40723809D01*
X137800000Y-40647619D01*
X137838095Y-40609523D01*
X137914285Y-40571428D01*
X137990476Y-40571428D01*
X138066666Y-40609523D01*
X138104761Y-40647619D01*
X138142857Y-40723809D01*
X138142857Y-40990476D01*
X137761904Y-40038095D02*
X137761904Y-39961904D01*
X137800000Y-39885714D01*
X137838095Y-39847619D01*
X137914285Y-39809523D01*
X138066666Y-39771428D01*
X138257142Y-39771428D01*
X138409523Y-39809523D01*
X138485714Y-39847619D01*
X138523809Y-39885714D01*
X138561904Y-39961904D01*
X138561904Y-40038095D01*
X138523809Y-40114285D01*
X138485714Y-40152380D01*
X138409523Y-40190476D01*
X138257142Y-40228571D01*
X138066666Y-40228571D01*
X137914285Y-40190476D01*
X137838095Y-40152380D01*
X137800000Y-40114285D01*
X137761904Y-40038095D01*
X135542857Y-40723809D02*
X135580952Y-40609523D01*
X135619047Y-40571428D01*
X135695238Y-40533333D01*
X135809523Y-40533333D01*
X135885714Y-40571428D01*
X135923809Y-40609523D01*
X135961904Y-40685714D01*
X135961904Y-40990476D01*
X135161904Y-40990476D01*
X135161904Y-40723809D01*
X135200000Y-40647619D01*
X135238095Y-40609523D01*
X135314285Y-40571428D01*
X135390476Y-40571428D01*
X135466666Y-40609523D01*
X135504761Y-40647619D01*
X135542857Y-40723809D01*
X135542857Y-40990476D01*
X135961904Y-39771428D02*
X135961904Y-40228571D01*
X135961904Y-40000000D02*
X135161904Y-40000000D01*
X135276190Y-40076190D01*
X135352380Y-40152380D01*
X135390476Y-40228571D01*
X133042857Y-40723809D02*
X133080952Y-40609523D01*
X133119047Y-40571428D01*
X133195238Y-40533333D01*
X133309523Y-40533333D01*
X133385714Y-40571428D01*
X133423809Y-40609523D01*
X133461904Y-40685714D01*
X133461904Y-40990476D01*
X132661904Y-40990476D01*
X132661904Y-40723809D01*
X132700000Y-40647619D01*
X132738095Y-40609523D01*
X132814285Y-40571428D01*
X132890476Y-40571428D01*
X132966666Y-40609523D01*
X133004761Y-40647619D01*
X133042857Y-40723809D01*
X133042857Y-40990476D01*
X132738095Y-40228571D02*
X132700000Y-40190476D01*
X132661904Y-40114285D01*
X132661904Y-39923809D01*
X132700000Y-39847619D01*
X132738095Y-39809523D01*
X132814285Y-39771428D01*
X132890476Y-39771428D01*
X133004761Y-39809523D01*
X133461904Y-40266666D01*
X133461904Y-39771428D01*
X130542857Y-40723809D02*
X130580952Y-40609523D01*
X130619047Y-40571428D01*
X130695238Y-40533333D01*
X130809523Y-40533333D01*
X130885714Y-40571428D01*
X130923809Y-40609523D01*
X130961904Y-40685714D01*
X130961904Y-40990476D01*
X130161904Y-40990476D01*
X130161904Y-40723809D01*
X130200000Y-40647619D01*
X130238095Y-40609523D01*
X130314285Y-40571428D01*
X130390476Y-40571428D01*
X130466666Y-40609523D01*
X130504761Y-40647619D01*
X130542857Y-40723809D01*
X130542857Y-40990476D01*
X130161904Y-40266666D02*
X130161904Y-39771428D01*
X130466666Y-40038095D01*
X130466666Y-39923809D01*
X130504761Y-39847619D01*
X130542857Y-39809523D01*
X130619047Y-39771428D01*
X130809523Y-39771428D01*
X130885714Y-39809523D01*
X130923809Y-39847619D01*
X130961904Y-39923809D01*
X130961904Y-40152380D01*
X130923809Y-40228571D01*
X130885714Y-40266666D01*
X125885714Y-41176190D02*
X125923809Y-41214285D01*
X125961904Y-41328571D01*
X125961904Y-41404761D01*
X125923809Y-41519047D01*
X125847619Y-41595238D01*
X125771428Y-41633333D01*
X125619047Y-41671428D01*
X125504761Y-41671428D01*
X125352380Y-41633333D01*
X125276190Y-41595238D01*
X125200000Y-41519047D01*
X125161904Y-41404761D01*
X125161904Y-41328571D01*
X125200000Y-41214285D01*
X125238095Y-41176190D01*
X125961904Y-40452380D02*
X125961904Y-40833333D01*
X125161904Y-40833333D01*
X125961904Y-40185714D02*
X125161904Y-40185714D01*
X125961904Y-39728571D02*
X125504761Y-40071428D01*
X125161904Y-39728571D02*
X125619047Y-40185714D01*
X123323809Y-42490476D02*
X123361904Y-42376190D01*
X123361904Y-42185714D01*
X123323809Y-42109523D01*
X123285714Y-42071428D01*
X123209523Y-42033333D01*
X123133333Y-42033333D01*
X123057142Y-42071428D01*
X123019047Y-42109523D01*
X122980952Y-42185714D01*
X122942857Y-42338095D01*
X122904761Y-42414285D01*
X122866666Y-42452380D01*
X122790476Y-42490476D01*
X122714285Y-42490476D01*
X122638095Y-42452380D01*
X122600000Y-42414285D01*
X122561904Y-42338095D01*
X122561904Y-42147619D01*
X122600000Y-42033333D01*
X122980952Y-41538095D02*
X123361904Y-41538095D01*
X122561904Y-41804761D02*
X122980952Y-41538095D01*
X122561904Y-41271428D01*
X123361904Y-41004761D02*
X122561904Y-41004761D01*
X123361904Y-40547619D01*
X122561904Y-40547619D01*
X123285714Y-39709523D02*
X123323809Y-39747619D01*
X123361904Y-39861904D01*
X123361904Y-39938095D01*
X123323809Y-40052380D01*
X123247619Y-40128571D01*
X123171428Y-40166666D01*
X123019047Y-40204761D01*
X122904761Y-40204761D01*
X122752380Y-40166666D01*
X122676190Y-40128571D01*
X122600000Y-40052380D01*
X122561904Y-39938095D01*
X122561904Y-39861904D01*
X122600000Y-39747619D01*
X122638095Y-39709523D01*
X120000000Y-41109523D02*
X119961904Y-41185714D01*
X119961904Y-41300000D01*
X120000000Y-41414285D01*
X120076190Y-41490476D01*
X120152380Y-41528571D01*
X120304761Y-41566666D01*
X120419047Y-41566666D01*
X120571428Y-41528571D01*
X120647619Y-41490476D01*
X120723809Y-41414285D01*
X120761904Y-41300000D01*
X120761904Y-41223809D01*
X120723809Y-41109523D01*
X120685714Y-41071428D01*
X120419047Y-41071428D01*
X120419047Y-41223809D01*
X120761904Y-40728571D02*
X119961904Y-40728571D01*
X120761904Y-40271428D01*
X119961904Y-40271428D01*
X120761904Y-39890476D02*
X119961904Y-39890476D01*
X119961904Y-39700000D01*
X120000000Y-39585714D01*
X120076190Y-39509523D01*
X120152380Y-39471428D01*
X120304761Y-39433333D01*
X120419047Y-39433333D01*
X120571428Y-39471428D01*
X120647619Y-39509523D01*
X120723809Y-39585714D01*
X120761904Y-39700000D01*
X120761904Y-39890476D01*
X117361904Y-40452380D02*
X117361904Y-40833333D01*
X117742857Y-40871428D01*
X117704761Y-40833333D01*
X117666666Y-40757142D01*
X117666666Y-40566666D01*
X117704761Y-40490476D01*
X117742857Y-40452380D01*
X117819047Y-40414285D01*
X118009523Y-40414285D01*
X118085714Y-40452380D01*
X118123809Y-40490476D01*
X118161904Y-40566666D01*
X118161904Y-40757142D01*
X118123809Y-40833333D01*
X118085714Y-40871428D01*
X117361904Y-40185714D02*
X118161904Y-39919047D01*
X117361904Y-39652380D01*
D12*
X167440000Y-39430000D02*
X167440000Y-36770000D01*
X164840000Y-39430000D02*
X167440000Y-39430000D01*
X164840000Y-36770000D02*
X167440000Y-36770000D01*
X164840000Y-39430000D02*
X164840000Y-36770000D01*
X163570000Y-39430000D02*
X162240000Y-39430000D01*
X162240000Y-39430000D02*
X162240000Y-38100000D01*
X159840000Y-39430000D02*
X159840000Y-36770000D01*
X131840000Y-39430000D02*
X159840000Y-39430000D01*
X131840000Y-36770000D02*
X159840000Y-36770000D01*
X131840000Y-39430000D02*
X131840000Y-36770000D01*
X130570000Y-39430000D02*
X129240000Y-39430000D01*
X129240000Y-39430000D02*
X129240000Y-38100000D01*
X126820000Y-39430000D02*
X126820000Y-36770000D01*
X119140000Y-39430000D02*
X126820000Y-39430000D01*
X119140000Y-36770000D02*
X126820000Y-36770000D01*
X119140000Y-39430000D02*
X119140000Y-36770000D01*
X117870000Y-39430000D02*
X116540000Y-39430000D01*
X116540000Y-39430000D02*
X116540000Y-38100000D01*
X143000000Y-68880000D02*
X154040000Y-68880000D01*
X154040000Y-68880000D02*
X155040000Y-67880000D01*
X155040000Y-67880000D02*
X155040000Y-42800000D01*
X155040000Y-42800000D02*
X128960000Y-42800000D01*
X128960000Y-42800000D02*
X128960000Y-68880000D01*
X128960000Y-68880000D02*
X141000000Y-68880000D01*
D11*
X127666666Y-63000000D02*
X127666666Y-62523809D01*
X127952380Y-63095238D02*
X126952380Y-62761904D01*
X127952380Y-62428571D01*
X126952380Y-61666666D02*
X126952380Y-61857142D01*
X127000000Y-61952380D01*
X127047619Y-62000000D01*
X127190476Y-62095238D01*
X127380952Y-62142857D01*
X127761904Y-62142857D01*
X127857142Y-62095238D01*
X127904761Y-62047619D01*
X127952380Y-61952380D01*
X127952380Y-61761904D01*
X127904761Y-61666666D01*
X127857142Y-61619047D01*
X127761904Y-61571428D01*
X127523809Y-61571428D01*
X127428571Y-61619047D01*
X127380952Y-61666666D01*
X127333333Y-61761904D01*
X127333333Y-61952380D01*
X127380952Y-62047619D01*
X127428571Y-62095238D01*
X127523809Y-62142857D01*
X126952380Y-60952380D02*
X126952380Y-60857142D01*
X127000000Y-60761904D01*
X127047619Y-60714285D01*
X127142857Y-60666666D01*
X127333333Y-60619047D01*
X127571428Y-60619047D01*
X127761904Y-60666666D01*
X127857142Y-60714285D01*
X127904761Y-60761904D01*
X127952380Y-60857142D01*
X127952380Y-60952380D01*
X127904761Y-61047619D01*
X127857142Y-61095238D01*
X127761904Y-61142857D01*
X127571428Y-61190476D01*
X127333333Y-61190476D01*
X127142857Y-61142857D01*
X127047619Y-61095238D01*
X127000000Y-61047619D01*
X126952380Y-60952380D01*
X126952380Y-60000000D02*
X126952380Y-59904761D01*
X127000000Y-59809523D01*
X127047619Y-59761904D01*
X127142857Y-59714285D01*
X127333333Y-59666666D01*
X127571428Y-59666666D01*
X127761904Y-59714285D01*
X127857142Y-59761904D01*
X127904761Y-59809523D01*
X127952380Y-59904761D01*
X127952380Y-60000000D01*
X127904761Y-60095238D01*
X127857142Y-60142857D01*
X127761904Y-60190476D01*
X127571428Y-60238095D01*
X127333333Y-60238095D01*
X127142857Y-60190476D01*
X127047619Y-60142857D01*
X127000000Y-60095238D01*
X126952380Y-60000000D01*
X127904761Y-58523809D02*
X127952380Y-58380952D01*
X127952380Y-58142857D01*
X127904761Y-58047619D01*
X127857142Y-58000000D01*
X127761904Y-57952380D01*
X127666666Y-57952380D01*
X127571428Y-58000000D01*
X127523809Y-58047619D01*
X127476190Y-58142857D01*
X127428571Y-58333333D01*
X127380952Y-58428571D01*
X127333333Y-58476190D01*
X127238095Y-58523809D01*
X127142857Y-58523809D01*
X127047619Y-58476190D01*
X127000000Y-58428571D01*
X126952380Y-58333333D01*
X126952380Y-58095238D01*
X127000000Y-57952380D01*
X127285714Y-57095238D02*
X127952380Y-57095238D01*
X127285714Y-57523809D02*
X127809523Y-57523809D01*
X127904761Y-57476190D01*
X127952380Y-57380952D01*
X127952380Y-57238095D01*
X127904761Y-57142857D01*
X127857142Y-57095238D01*
X127285714Y-56619047D02*
X128285714Y-56619047D01*
X127333333Y-56619047D02*
X127285714Y-56523809D01*
X127285714Y-56333333D01*
X127333333Y-56238095D01*
X127380952Y-56190476D01*
X127476190Y-56142857D01*
X127761904Y-56142857D01*
X127857142Y-56190476D01*
X127904761Y-56238095D01*
X127952380Y-56333333D01*
X127952380Y-56523809D01*
X127904761Y-56619047D01*
X127904761Y-55333333D02*
X127952380Y-55428571D01*
X127952380Y-55619047D01*
X127904761Y-55714285D01*
X127809523Y-55761904D01*
X127428571Y-55761904D01*
X127333333Y-55714285D01*
X127285714Y-55619047D01*
X127285714Y-55428571D01*
X127333333Y-55333333D01*
X127428571Y-55285714D01*
X127523809Y-55285714D01*
X127619047Y-55761904D01*
X127952380Y-54857142D02*
X127285714Y-54857142D01*
X127476190Y-54857142D02*
X127380952Y-54809523D01*
X127333333Y-54761904D01*
X127285714Y-54666666D01*
X127285714Y-54571428D01*
X127952380Y-53476190D02*
X126952380Y-53476190D01*
X126952380Y-53238095D01*
X127000000Y-53095238D01*
X127095238Y-53000000D01*
X127190476Y-52952380D01*
X127380952Y-52904761D01*
X127523809Y-52904761D01*
X127714285Y-52952380D01*
X127809523Y-53000000D01*
X127904761Y-53095238D01*
X127952380Y-53238095D01*
X127952380Y-53476190D01*
X127904761Y-52095238D02*
X127952380Y-52190476D01*
X127952380Y-52380952D01*
X127904761Y-52476190D01*
X127809523Y-52523809D01*
X127428571Y-52523809D01*
X127333333Y-52476190D01*
X127285714Y-52380952D01*
X127285714Y-52190476D01*
X127333333Y-52095238D01*
X127428571Y-52047619D01*
X127523809Y-52047619D01*
X127619047Y-52523809D01*
X127285714Y-51619047D02*
X127952380Y-51619047D01*
X127380952Y-51619047D02*
X127333333Y-51571428D01*
X127285714Y-51476190D01*
X127285714Y-51333333D01*
X127333333Y-51238095D01*
X127428571Y-51190476D01*
X127952380Y-51190476D01*
X127952380Y-50714285D02*
X127285714Y-50714285D01*
X126952380Y-50714285D02*
X127000000Y-50761904D01*
X127047619Y-50714285D01*
X127000000Y-50666666D01*
X126952380Y-50714285D01*
X127047619Y-50714285D01*
X127904761Y-50285714D02*
X127952380Y-50190476D01*
X127952380Y-50000000D01*
X127904761Y-49904761D01*
X127809523Y-49857142D01*
X127761904Y-49857142D01*
X127666666Y-49904761D01*
X127619047Y-50000000D01*
X127619047Y-50142857D01*
X127571428Y-50238095D01*
X127476190Y-50285714D01*
X127428571Y-50285714D01*
X127333333Y-50238095D01*
X127285714Y-50142857D01*
X127285714Y-50000000D01*
X127333333Y-49904761D01*
X127904761Y-49047619D02*
X127952380Y-49142857D01*
X127952380Y-49333333D01*
X127904761Y-49428571D01*
X127809523Y-49476190D01*
X127428571Y-49476190D01*
X127333333Y-49428571D01*
X127285714Y-49333333D01*
X127285714Y-49142857D01*
X127333333Y-49047619D01*
X127428571Y-49000000D01*
X127523809Y-49000000D01*
X127619047Y-49476190D01*
%LPC*%
D13*
X166110000Y-38100000D03*
D14*
X163570000Y-38100000D03*
D13*
X158510000Y-38100000D03*
X155970000Y-38100000D03*
X153430000Y-38100000D03*
X150890000Y-38100000D03*
X148350000Y-38100000D03*
X145810000Y-38100000D03*
X143270000Y-38100000D03*
X140730000Y-38100000D03*
X138190000Y-38100000D03*
X135650000Y-38100000D03*
X133110000Y-38100000D03*
D14*
X130570000Y-38100000D03*
D13*
X125490000Y-38100000D03*
X122950000Y-38100000D03*
X120410000Y-38100000D03*
D14*
X117870000Y-38100000D03*
D15*
X131840000Y-63460000D03*
X131840000Y-60920000D03*
X131840000Y-58380000D03*
X131840000Y-55840000D03*
X131840000Y-53300000D03*
X131840000Y-50760000D03*
X134380000Y-66000000D03*
X134380000Y-60920000D03*
X134380000Y-58380000D03*
X134380000Y-55840000D03*
X134380000Y-53300000D03*
X134380000Y-50760000D03*
X134380000Y-48220000D03*
X134380000Y-45680000D03*
X136920000Y-45680000D03*
X139460000Y-45680000D03*
X142000000Y-45680000D03*
X144540000Y-45680000D03*
X147080000Y-45680000D03*
X149620000Y-45680000D03*
X131840000Y-48220000D03*
X136920000Y-48220000D03*
X139460000Y-48220000D03*
X142000000Y-48220000D03*
X144540000Y-48220000D03*
X147080000Y-48220000D03*
X149620000Y-48220000D03*
X152160000Y-48220000D03*
X152160000Y-50760000D03*
X152160000Y-53300000D03*
X152160000Y-55840000D03*
X152160000Y-58380000D03*
X152160000Y-60920000D03*
X152160000Y-63460000D03*
X149620000Y-50760000D03*
X149620000Y-53300000D03*
X149620000Y-55840000D03*
X149620000Y-58380000D03*
X149620000Y-60920000D03*
X149620000Y-63460000D03*
X136920000Y-66000000D03*
X139460000Y-66000000D03*
X149620000Y-66000000D03*
X147080000Y-66000000D03*
X144540000Y-66000000D03*
D16*
X142000000Y-66000000D03*
D15*
X134380000Y-63460000D03*
X136920000Y-63460000D03*
X139460000Y-63460000D03*
X147080000Y-63460000D03*
X144540000Y-63460000D03*
X142000000Y-63460000D03*
M02*
